<!-- Generator: Adobe Illustrator 19.2.1, SVG Export Plug-In  -->
<svg version="1.1"
	 xmlns="http://www.w3.org/2000/svg" xmlns:xlink="http://www.w3.org/1999/xlink" xmlns:a="http://ns.adobe.com/AdobeSVGViewerExtensions/3.0/"
	 x="0px" y="0px" width="94.3px" height="89.838px" viewBox="0 0 94.3 89.838" style="enable-background:new 0 0 94.3 89.838;"
	 xml:space="preserve">
<style type="text/css">
	.st0{fill:#FFFFFF;}
</style>
<defs>
</defs>
<g>
	<path class="st0" d="M92.734,18.143c0,5.607,0,11.214,0,16.822c0,1.188-0.149,1.393-1.28,1.744
		c-0.534,0.166-1.015,0.448-1.505,0.704c-0.384,0.2-0.795,0.34-1.187,0.506c-1.778,0.754-3.52,1.591-5.288,2.366
		c-1.125,0.494-2.249,1.007-3.363,1.533c-0.801,0.379-1.625,0.733-2.451,1.072c-1.098,0.451-2.157,0.996-3.24,1.484
		c-0.845,0.381-1.706,0.727-2.553,1.105c-0.747,0.333-1.48,0.698-2.227,1.033c-0.843,0.379-1.687,0.758-2.544,1.102
		c-0.375,0.15-0.738,0.335-1.088,0.517c-1.109,0.576-2.283,1.001-3.408,1.539c-0.801,0.382-1.618,0.752-2.455,1.075
		c-1.106,0.427-2.155,1-3.237,1.492c-0.786,0.357-1.588,0.676-2.377,1.026c-0.775,0.344-1.54,0.711-2.314,1.057
		c-0.872,0.39-1.752,0.761-2.622,1.155c-0.772,0.35-1.534,0.723-2.302,1.081c-0.461,0.214-0.925,0.421-1.39,0.626
		c-0.817,0.361-1.636,0.718-2.453,1.079c-0.889,0.393-1.78,0.783-2.665,1.184c-0.771,0.349-1.538,0.705-2.301,1.071
		c-0.17,0.082-0.339,0.151-0.521,0.192c-0.581,0.129-0.778-0.021-0.778-0.624c-0.004-4.054-0.004-8.108-0.001-12.162
		c0-0.56,0.311-0.765,0.862-0.586c0.396,0.129,0.75,0.367,1.111,0.554c0.545,0.282,1.137,0.394,1.69,0.63
		c0.646,0.276,1.359,0.468,2.058,0.531c1.111,0.102,2.212,0.286,3.327,0.372c0.996,0.077,1.941-0.161,2.91-0.221
		c1.047-0.065,2.035-0.383,3.046-0.597c0.418-0.089,0.81-0.303,1.219-0.449c2.366-0.845,4.417-2.225,6.256-3.902
		c1.272-1.161,2.288-2.546,3.213-4.012c0.86-1.363,1.455-2.832,1.955-4.335c0.389-1.168,0.564-2.399,0.699-3.637
		c0.205-1.89,0.07-3.761-0.252-5.606c-0.216-1.235-0.62-2.44-1.109-3.618c-1.019-2.456-2.526-4.559-4.372-6.441
		c-0.227-0.232-0.496-0.423-0.73-0.649c-0.461-0.444-0.438-0.731,0.131-1.037c0.475-0.255,0.988-0.438,1.48-0.662
		c1.068-0.486,2.132-0.98,3.2-1.466c0.492-0.224,0.989-0.438,1.483-0.66c0.857-0.384,1.712-0.775,2.571-1.155
		c0.804-0.356,1.615-0.694,2.417-1.053c0.76-0.34,1.51-0.702,2.268-1.045c0.843-0.382,1.691-0.753,2.536-1.13
		c0.775-0.346,1.55-0.693,2.324-1.042c0.856-0.385,1.713-0.77,2.567-1.16c0.799-0.365,1.593-0.739,2.391-1.104
		c0.743-0.339,1.491-0.669,2.235-1.007c0.872-0.395,1.734-0.815,2.618-1.182c0.469-0.194,0.906-0.453,1.395-0.61
		c0.435-0.14,0.839-0.381,1.267-0.558c0.738-0.306,1.443-0.688,2.169-1.023c0.286-0.132,0.497-0.003,0.566,0.288
		c0.049,0.208,0.048,0.431,0.048,0.647C92.735,6.711,92.734,12.427,92.734,18.143z"/>
	<path class="st0" d="M0.555,42.662c0.001-5.716,0.001-11.431,0.001-17.147c0-0.801,0.153-0.942,0.918-1.226
		c0.791-0.294,1.561-0.65,2.317-1.027c0.871-0.434,1.773-0.796,2.663-1.186c0.75-0.328,1.493-0.673,2.238-1.013
		c0.801-0.365,1.599-0.736,2.402-1.096c0.83-0.373,1.668-0.731,2.497-1.106c0.827-0.374,1.656-0.744,2.479-1.123
		c0.811-0.374,1.648-0.691,2.443-1.106c0.737-0.385,1.526-0.668,2.286-1.009c0.857-0.384,1.711-0.775,2.558-1.178
		c0.376-0.179,0.768-0.313,1.143-0.502c0.767-0.388,1.609-0.629,2.375-1.019c1.073-0.546,2.2-0.971,3.275-1.512
		c0.743-0.374,1.519-0.682,2.279-1.023c0.872-0.392,1.741-0.793,2.615-1.181c0.45-0.199,0.912-0.369,1.362-0.568
		c0.788-0.348,1.585-0.68,2.349-1.076c0.398-0.206,0.809-0.4,1.215-0.562c1.191-0.474,2.35-1.023,3.517-1.545
		c1.121-0.501,2.237-1.031,3.357-1.535c1.107-0.498,2.219-0.999,3.337-1.478c0.774-0.332,1.547-0.693,2.312-1.056
		c0.722-0.343,1.453-0.675,2.19-0.99c0.213-0.091,0.429-0.168,0.633-0.287c0.42-0.244,0.722-0.076,0.776,0.414
		c0.015,0.138,0.011,0.279,0.011,0.419c0,3.883,0,7.766,0,11.649c0,0.093,0.002,0.187-0.002,0.28
		c-0.034,0.721-0.254,0.84-0.896,0.52c-0.883-0.439-1.793-0.804-2.735-1.115c-0.974-0.321-1.959-0.607-2.963-0.725
		c-1.179-0.138-2.371-0.258-3.57-0.115c-0.785,0.093-1.599-0.095-2.366,0.12c-0.861,0.241-1.743,0.378-2.602,0.649
		c-0.889,0.281-1.743,0.617-2.58,1.012c-1.49,0.705-2.882,1.555-4.112,2.672c-0.979,0.889-1.928,1.802-2.735,2.849
		c-0.602,0.782-1.136,1.608-1.603,2.486c-0.408,0.766-0.811,1.536-1.106,2.344c-0.231,0.632-0.532,1.254-0.607,1.939
		c-0.049,0.451-0.217,0.871-0.343,1.303c-0.193,0.663-0.097,1.357-0.191,2.035c-0.222,1.597-0.058,3.196,0.176,4.771
		c0.192,1.294,0.585,2.547,1.077,3.777c0.544,1.362,1.246,2.623,2.055,3.829c0.911,1.357,1.992,2.571,3.254,3.619
		c0.13,0.108,0.26,0.234,0.337,0.38c0.129,0.244,0.127,0.505-0.176,0.622c-1.412,0.544-2.752,1.252-4.147,1.839
		c-0.788,0.332-1.584,0.672-2.348,1.079c-0.746,0.397-1.552,0.683-2.326,1.03c-1.153,0.518-2.298,1.053-3.453,1.568
		c-0.817,0.364-1.648,0.697-2.464,1.062c-0.787,0.352-1.572,0.709-2.34,1.099c-0.375,0.19-0.773,0.316-1.156,0.481
		c-1.133,0.49-2.238,1.039-3.382,1.506c-1.123,0.458-2.203,1.021-3.31,1.522c-1.127,0.51-2.266,0.994-3.394,1.501
		c-0.789,0.355-1.565,0.739-2.356,1.092C3,59.954,2.255,60.281,1.515,60.62c-0.702,0.321-0.96,0.108-0.961-0.671
		C0.554,54.186,0.554,48.424,0.555,42.662z"/>
	<path class="st0" d="M46.565,40.729c-5.795,0.162-10.256-4.821-10.299-10.127c-0.051-6.183,4.813-10.62,10.482-10.601
		c5.458,0.019,10.259,4.337,10.311,10.433C57.107,35.953,52.333,41.013,46.565,40.729z"/>
	<path class="st0" d="M37.931,80.441c-0.001-2.718-0.001-5.436,0-8.155c0-0.872,0.123-0.992,0.996-0.992
		c0.823,0,1.647,0.016,2.47-0.008c0.445-0.013,0.774,0.151,1.057,0.477c1.649,1.894,3.305,3.782,4.951,5.679
		c0.237,0.273,0.38,0.26,0.614-0.022c0.972-1.167,1.966-2.316,2.957-3.467c0.607-0.704,1.234-1.391,1.835-2.101
		c0.309-0.365,0.648-0.586,1.155-0.568c0.822,0.03,1.646,0.009,2.469,0.009c0.868,0.001,0.973,0.1,0.973,0.958
		c0.001,5.266,0.001,10.531,0,15.797c0,0.295,0.004,0.591-0.01,0.885c-0.016,0.349-0.198,0.499-0.56,0.545
		c-1.224,0.155-2.446-0.102-3.67,0.018c-0.381,0.038-0.605-0.281-0.607-0.772c-0.004-1.612,0.061-3.227-0.02-4.834
		c-0.073-1.457,0.144-2.912-0.051-4.364c-0.016-0.118,0.043-0.273-0.11-0.321c-0.148-0.046-0.204,0.105-0.283,0.197
		c-1.201,1.401-2.398,2.806-3.606,4.201c-0.56,0.647-1.11,0.627-1.676-0.029c-1.174-1.361-2.347-2.722-3.527-4.078
		c-0.091-0.104-0.141-0.34-0.332-0.249c-0.154,0.074-0.087,0.281-0.087,0.43c-0.003,2.485-0.002,4.97-0.002,7.456
		c0,0.544,0.006,1.087-0.003,1.631c-0.01,0.542-0.327,0.774-0.869,0.787c-0.834,0.02-1.662-0.14-2.502-0.021
		c-0.389,0.055-0.803-0.031-1.201-0.087c-0.31-0.044-0.361-0.3-0.361-0.567c0-0.916,0-1.833,0-2.749
		C37.932,84.231,37.932,82.336,37.931,80.441z"/>
	<path class="st0" d="M9.393,89.836c-5.124,0.069-9.346-4.352-9.393-9.143c-0.057-5.871,4.402-9.721,9.447-9.719
		c5.033,0.002,9.333,3.984,9.392,9.435C18.895,85.528,14.461,89.95,9.393,89.836z M9.398,75.86
		c-2.663-0.131-4.708,2.266-4.601,4.609c0.119,2.595,1.841,4.562,4.61,4.557c2.498-0.004,4.478-1.749,4.585-4.556
		C14.087,77.993,11.778,75.646,9.398,75.86z"/>
	<path class="st0" d="M77.072,80.388c0-2.717-0.001-5.434,0-8.151c0-0.825,0.116-0.942,0.942-0.943
		c1.009-0.002,2.018-0.004,3.027,0.001c0.739,0.004,0.968,0.235,0.969,0.985c0.004,1.879-0.002,3.757,0.006,5.636
		c0.001,0.186-0.111,0.469,0.124,0.537c0.203,0.058,0.253-0.228,0.354-0.373c1.198-1.709,2.393-3.42,3.59-5.13
		c0.177-0.254,0.397-0.485,0.532-0.759c0.369-0.75,0.964-0.95,1.76-0.909c1.053,0.053,2.111,0.011,3.167,0.014
		c0.245,0.001,0.531-0.047,0.652,0.238c0.112,0.263,0.008,0.525-0.146,0.745c-1.065,1.518-2.16,3.015-3.198,4.552
		c-0.58,0.858-1.167,1.712-1.771,2.552c-0.252,0.35-0.23,0.644,0.038,0.963c1.285,1.532,2.565,3.068,3.845,4.605
		c1.07,1.285,2.134,2.574,3.203,3.86c0.131,0.158,0.178,0.327,0.086,0.516c-0.067,0.137-0.192,0.232-0.338,0.198
		c-0.623-0.145-1.239,0.107-1.854,0.028c-0.943-0.122-1.884,0.021-2.826-0.024c-0.503-0.024-0.869-0.226-1.189-0.613
		c-1.73-2.089-3.476-4.164-5.218-6.243c-0.099-0.118-0.208-0.232-0.326-0.331c-0.13-0.11-0.173-0.411-0.398-0.298
		c-0.178,0.089-0.087,0.341-0.088,0.519c-0.005,2.003-0.003,4.006-0.005,6.008c-0.001,0.801-0.219,0.972-1.003,0.922
		c-0.646-0.042-1.294,0.069-1.946,0.043c-0.491-0.02-0.982-0.06-1.481-0.026c-0.398,0.027-0.511-0.32-0.509-0.69
		c0.006-1.18,0.001-2.36,0.001-3.54C77.072,83.649,77.072,82.019,77.072,80.388z"/>
</g>
</svg>