<!-- Generator: Adobe Illustrator 19.2.1, SVG Export Plug-In  -->
<svg version="1.1"
	 xmlns="http://www.w3.org/2000/svg" xmlns:xlink="http://www.w3.org/1999/xlink" xmlns:a="http://ns.adobe.com/AdobeSVGViewerExtensions/3.0/"
	 x="0px" y="0px" width="41.368px" height="51.369px" viewBox="0 0 41.368 51.369"
	 style="enable-background:new 0 0 41.368 51.369;" xml:space="preserve">
<style type="text/css">
	.st0{fill:#FFFFFF;}
	.st1{opacity:0.6;fill:#FFFFFF;}
	.st2{opacity:0.8;fill:#FFFFFF;}
</style>
<defs>
</defs>
<path class="st0" d="M24.119,10.93V0c7.373,0,13.804,4.008,17.249,9.962l-9.469,5.466C30.345,12.742,27.447,10.93,24.119,10.93z"/>
<g>
	<g>
		<path class="st0" d="M17.377,18.419h0.226c0.489,0,2.597-0.035,3.208-0.035c4.15,0,5.823,1.883,5.823,4.568
			c0,2.719-1.97,4.654-5.928,4.654c-0.506,0-4.583-0.035-5.629-0.035v-2.692l2.3,0.001V18.419z M20.166,21.033v3.923
			c0.174,0.035,0.209,0.035,0.628,0.035c1.691,0,2.877-0.506,2.877-2.039c0-1.483-1.151-1.953-2.877-1.953
			C20.671,20.998,20.375,20.981,20.166,21.033z"/>
	</g>
	<path class="st0" d="M23.628,27.684l0.175,1.016c0,0,0.059,0.369-4.73,0.369c-0.343,0-3.904,0.003-3.904,0.003v2.692
		c0.41,0,1.288,0.005,2.233,0.012v2.872h2.806v-2.852c0.091,0.001,3.351,0.085,4.201-0.72l0.243,1.115l1.406-3.118L23.628,27.684z"
		/>
</g>
<path class="st0" d="M6.455,37.681L0,41.407c3.445,5.953,9.877,9.961,17.249,9.961v-7.182C12.899,43.382,9.099,41.012,6.455,37.681z
	"/>
<path class="st1" d="M8.332,26.515c0-2.224,0.604-4.303,1.643-6.098l-6.687-3.86c-1.695,2.931-2.671,6.33-2.671,9.959
	c0,3.629,0.976,7.029,2.671,9.959l6.687-3.86C8.936,30.818,8.332,28.739,8.332,26.515z"/>
<path class="st2" d="M20.538,14.31L20.538,14.31l0-7.714c-7.373,0-13.804,4.008-17.25,9.961l6.687,3.86
	C12.086,16.77,16.021,14.31,20.538,14.31z"/>
<path class="st0" d="M37.787,16.557l-6.687,3.86c1.039,1.796,1.643,3.874,1.643,6.098c0,2.224-0.604,4.302-1.644,6.098l6.687,3.861
	c1.695-2.93,2.67-6.329,2.67-9.959C40.458,22.887,39.483,19.487,37.787,16.557z"/>
<path class="st2" d="M31.1,32.614c-2.11,3.647-6.045,6.108-10.562,6.108v7.714c7.372,0,13.804-4.008,17.249-9.961L31.1,32.614z"/>
</svg>