<!-- Generator: Adobe Illustrator 19.2.1, SVG Export Plug-In  -->
<svg version="1.1"
	 xmlns="http://www.w3.org/2000/svg" xmlns:xlink="http://www.w3.org/1999/xlink" xmlns:a="http://ns.adobe.com/AdobeSVGViewerExtensions/3.0/"
	 x="0px" y="0px" width="106.018px" height="216.651px" viewBox="0 0 106.018 216.651"
	 style="enable-background:new 0 0 106.018 216.651;" xml:space="preserve">
<style type="text/css">
	.st0{fill:#EBECEC;}
</style>
<defs>
</defs>
<path class="st0" d="M102.165,54.409l-2.687-0.075l-3.2,0.213l-2.189-0.054l-2.557-0.244l-0.821-0.03l-2.805,0.059l-2.652,0.116
	l-2.487-0.111l-0.456-0.006l-5.553,0.086l-2.932,0.133l-2.524,0.032l-2.643-0.085l-0.43-0.001l-2.286,0.065l-2.287-0.269
	l-1.197-0.011l0.065-0.053l2.351-2.248l1.961-1.783l2.084-2.142l1.867-1.684l2.004-1.922l1.944-1.661l0.726-0.716l1.44-1.644
	l1.688-1.376l2.325-2.092l2.175-2.121l1.956-1.988l1.729-1.649l1.937-1.597l2.309-2.096l2.013-2.216l1.735-1.453l-4.434-12.519
	l-2.828-0.047l-2.934,0.097l-2.556-0.079l-0.364-0.002l-5.401,0.13L73.7,11.266l-0.525-0.001l-2.581,0.088l-2.581-0.065
	l-2.998,0.076l-2.879-0.059l-0.902,0.015l0.014-0.82l-0.256-2.348l0.02-2.345l-0.237-3.025l0.074-2.332L46.683,0l-0.087,2.762
	l0.025,0.857l0.216,2.414l-0.021,2.413l0.245,2.698l-0.004,0.029l-1.718,0.042l-2.873,0.209l-2.381-0.007l-2.66-0.104l-0.513-0.002
	l-2.476,0.083l-2.478-0.138l-0.698-0.004l-2.615,0.113l-5.303-0.071l-2.928,0.074l-2.563-0.076L12.9,23.645l1.815,1.632l1.683,1.804
	l0.755,0.699l1.796,1.437l1.584,1.659l4.253,3.964l1.835,1.852l2.191,2.067l4.297,3.792l1.848,1.686l1.83,1.837l2.138,2.005
	l1.914,1.874l2.241,2.041l1.901,1.633l0.727,0.808l-4.949-0.248l-0.892,0.015l-2.633,0.207l-2.379,0.073l-5.319-0.228l-0.55-0.004
	l-2.801,0.092l-2.712,0.188l-5.199-0.175l-0.282-0.005l-2.636,0.009l-2.635-0.114l-1.005,0.028l-2.222,0.22l-2.221-0.144
	l-0.586-0.015l-2.758,0.05L0,67.279l2.167,1.512l2.173,1.58l2.623,1.64l2.092,1.458l2.335,1.488l1.96,1.48l2.657,1.77l2.362,1.443
	l2.048,1.445l2.308,1.505l2.008,1.526l4.522,3.339l0.858,0.532l2.069,1.089l1.846,1.271l2.047,1.481l2.055,1.609l0.711,0.49
	l2.196,1.324l2.123,1.433l1.908,1.217l-4.901-0.024l-3.054,0.172l-2.433,0.023l-2.618-0.074l-2.901-0.022l-5.37,0.054l-2.486-0.16
	l-1.172,0.022l-2.271,0.23l-2.183-0.075l-5.258,12.093l1.861,1.861l4.411,3.563l1.503,1.622l4.566,4.062l2.074,1.715l1.763,1.689
	l2.531,2.009l5.81,5.167l1.897,1.781l4.188,3.544l1.654,1.677l0.688,0.612l2.06,1.606l1.474,1.214l0.035,1.159l-0.266,2.267
	l0.021,1.812l0.253,1.799l-0.241,1.799l-0.058,1.204l0.094,2.548l-0.061,2.547l0.119,1.473l0.381,2.038l-0.041,1.769l-0.219,2.336
	l-0.376,2.584l0.001,2.05l0.258,1.754l-0.247,1.754l0.037,2.205l0.367,2.101l-0.025,1.472l-0.417,2.16l0.123,3.212l0.428,1.565
	l-0.123,1.528l-0.022,0.66l0.036,2.765l0.116,2.735l-0.052,1.984l-0.401,2.24l-0.034,2.292l0.259,1.743l-0.249,1.746l0.101,2.549
	l0.431,1.921l-0.027,1.156l-0.485,2.049l-0.121,2.627l0.393,2.773l14.033-1.986l-0.205-1.448l0.349-1.471l0.189-1.468l0.064-2.769
	l-0.169-1.716l-0.337-1.504l0.211-1.483l-0.006-2.042l-0.24-1.614l0.291-1.625l0.108-1.062l0.073-2.768l-0.121-3.153l-0.03-2.326
	l0.196-2.438l-0.229-2.438l-0.321-1.173l0.221-1.146l0.127-1.222l0.047-2.762l-0.104-1.339l-0.291-1.666l0.233-1.657l-0.006-2.016
	l-0.255-1.736l0.252-1.737l0.302-3.12l0.094-3.258l-0.119-1.467l-0.38-2.035l0.048-2.021l-0.083-2.593l0.291-2.164l-0.006-1.93
	l-0.262-1.858l0.217-1.856l0.046-0.998l-0.045-1.436l1.371-1.112l4.316-3.772l2.025-1.982l1.677-1.438l1.976-1.464l0.834-0.726
	l1.647-1.676l3.908-3.251l0.625-0.591l1.49-1.59l3.923-3.16l2.232-2.109l1.914-1.668l2.073-2.031l1.701-1.459l1.992-1.516
	l2.531-2.376l-4.546-12.174l-2.697-0.144l-0.857,0.006l-2.465,0.167l-2.384-0.037l-2.677-0.101l-3.121,0.186l-5.057-0.246
	l-0.63-0.003l-7.989,0.252l-2.255-0.055l4.585-3.178l4.594-3.604l4.182-2.871l2.172-1.223l1.052-0.725l2.013-1.672l4.146-3.029
	l4.582-2.938l0.723-0.532l1.999-1.679l1.784-1.327l2.101-1.243l2.806-1.982l2.217-1.797l2.018-1.299l2.412-1.675L102.165,54.409z
	 M62.229,25.479l2.654,0.059l2.961-0.077l2.6,0.066l1.895-0.052l-1.04,1.018l-1.811,1.64l-2.005,1.635l-0.849,0.818l-1.494,1.704
	l-1.715,1.465l-2.074,1.978l0.051-2.223l-0.231-1.965L60.845,30.3l0.219-1.219l0.039-2.262l-0.19-1.32L62.229,25.479z
	 M44.878,34.111l-6.416-5.733l-1.861-1.751l-1.079-1.089l1.604-0.054l2.532,0.1l3.046,0.014l3.16-0.218l0.831-0.02l-0.018,0.722
	l0.234,1.625l-0.292,1.631l0.122,3.053l0.471,1.79l-0.021,0.921l-0.275,1.042l-0.175-0.164L44.878,34.111z M42.271,78.827
	l-2.394-1.651l-2.716-1.485l-1.762-1.276l-4.306-3.256l-2.617-1.723l-1.341-0.946l2.039-0.066l5.359,0.229l0.504,0.002l2.801-0.086
	l2.696-0.204l5.117,0.259l0.377,0.01l0.62,0l0.14,2.119l0.363,1.623l-0.155,1.469l-0.377,2.625l-0.03,1.78l0.246,2.253l-0.058,1.674
	l-0.247-0.15l-1.822-1.427L42.271,78.827z M44.564,121.434l-6.227-5.539l-2.198-1.721l-1.685-1.615l-0.351-0.312l0.581,0.011
	l2.753-0.026l2.874-0.169l5.38,0.026l1.063-0.011l0.097,1.478l-0.113,5.136l0.08,3.038l-0.018,1.768l-0.38-0.323L44.564,121.434z
	 M73.11,112.06l0.744,0.037l-2.087,1.639l-0.794,0.728l-1.564,1.669l-3.805,3.162l-2.05,2.032l-1.732,1.284l-0.868,0.736
	l0.036-1.616l-0.081-2.842l0.115-5.414l-0.077-1.297l0.669,0.049l3.096,0.084L73.11,112.06z M77.578,69.943l-4.935,3.588
	l-1.991,1.64l-1.902,1.071l-5.135,3.492l-2.643,2.073l0.046-1.326l-0.038-1.016l-0.204-1.867l0.269-1.87l0.324-3.023l-0.132-2.291
	l-0.376-1.685l0.012-0.141l1.886-0.185l2.042,0.24l1.029,0.046l2.588-0.074l2.586,0.083l0.316,0.003l2.805-0.035l2.92-0.133
	l2.792-0.033L77.578,69.943z"/>
</svg>