<!-- Generator: Adobe Illustrator 19.2.1, SVG Export Plug-In  -->
<svg version="1.1"
	 xmlns="http://www.w3.org/2000/svg" xmlns:xlink="http://www.w3.org/1999/xlink" xmlns:a="http://ns.adobe.com/AdobeSVGViewerExtensions/3.0/"
	 x="0px" y="0px" width="77.474px" height="89.017px" viewBox="0 0 77.474 89.017"
	 style="enable-background:new 0 0 77.474 89.017;" xml:space="preserve">
<style type="text/css">
	.st0{fill:#FFFFFF;}
</style>
<defs>
</defs>
<path class="st0" d="M31.134,82.918c0-2.327-0.259-4.932-2.458-2.466c-0.858,0.962-2.334,2.529-3.645,3.035
	c-1.042,0.402-3.14-0.285-3.826-1.474c-0.661-1.146-0.118-1.072,0.156-2.205c0.21-0.869,0.084-1.882,0.325-2.777
	c0.286-1.061,1.643-1.76,0.134-2.517c-0.576-0.289-1.636,0.067-2.176,0.339c-0.692,0.348-1.116,1.132-1.843,1.453
	c-0.254,0.112-2.728,0.995-2.995,0.969c-2.19-0.209-2.737-3.275-2.186-4.73c0.416-1.101,3.228-4.028,2.32-5.153
	c-0.796-0.986-2.909,0.51-3.787,0.677c-2.251,0.428-4.79,0.108-5.4-2.192c-0.567-2.134,1.676-3.48,3.089-4.982
	c2.867-3.047-1.95-2.087-3.983-2.301c-2.123-0.224-3.286-1.171-3.16-3.364c0.128-2.231,1.621-2.79,3.482-3.752
	c1.808-0.935,3.177-1.615,0.736-2.82c-1.898-0.937-3.777-0.304-5.194-2.186c-1.558-2.069-0.376-3.671,1.441-4.611
	c0.624-0.323,1.321-0.714,2.031-0.894c0.562-0.143,2.299,0.207,2.797-0.185c1.855-1.461-1.254-2.459-2.241-3.047
	c-1.675-1-4.588-3.329-2.839-5.662c0.688-0.919,2.868-1.513,3.967-1.566c2.546-0.121,5.943,0.595,2.895-2.363
	c-1.537-1.492-3.644-2.691-2.957-4.848c0.64-2.007,2.172-2.565,4.305-2.198c1.105,0.19,3.125,1.663,4.321,0.935
	c1.654-1.007-0.041-2.264-0.71-3.198c-0.954-1.331-2.112-3.479-1.018-5.054c1.458-2.1,3.52-1.098,5.11-0.304
	c1.038,0.519,2.812,2.094,3.818,1.603c1.98-0.968-0.34-3.955-0.676-5.423c-0.475-2.074,0.709-3.339,2.883-3.707
	c2.254-0.381,3.169,1.848,4.783,3.025c2.661,1.941,2.5-0.331,2.5-2.57c0-0.846-0.336-2.699,0.149-3.417
	c0.597-0.884,1.136-0.513,2.019-0.869c1.485-0.6,0.956-0.82,2.314-0.207c0.73,0.33,1.761,1.649,2.176,2.313
	c0.425,0.682,0.348,1.934,0.794,2.401c0.958,1.003,2.555,0.094,2.986-1.023c0.321-0.831-0.061-2.016,0.229-2.932
	c0.029-0.093,0.866-1.987,1.023-2.103c1.794-1.322,4.086-0.128,5.043,1.423c0.713,1.156,0.524,4.22,1.378,4.841
	c1.929,1.402,2.359-1.559,2.918-2.369c0.372-0.539,2.216-2.911,2.698-3.092c1.095-0.41,3.809,1.331,4.205,2.386
	c0.463,1.234-0.65,5.237,0.411,5.909c0.942,0.597,2.312-1.446,2.795-1.922c1.075-1.059,1.922-1.801,3.5-1.797
	c6.339,0.016,0.113,9.023,3.097,9.217c0.901,0.059,3.072-2.242,4.082-2.553c1.972-0.608,3.807,0.131,4.359,2.002
	c1.195,4.05-4.42,8.124-6.879,10.534c-1.287,1.262-3.258,4.241-4.906,4.902c-2.687,1.077-2.827-3.322-4.79-3.333
	c-1.055-0.006-2.829,5.398-3.393,6.368c-1.534,2.639-3.401,5.269-1.834,8.208c0.888,1.665,1.322,3.401,0.786,5.416
	c-0.081,0.306-0.651,1.219-0.813,1.585c-0.307,0.693-0.886,1.916-0.846,2.692c0.035,0.682,1.41,2.733,1.787,3.333
	c0.776,1.234,1.206,2.748,1.947,4.013c0.592,1.01,0.996,2.551,1.821,3.43c1.467,1.563,1.532-0.109,2.768-1.561
	c1.602-1.88,2.513-0.164,4.004,1.153c0.68,0.6,1.297,1.075,2.054,1.634c0.964,0.713,1.107,1.584,1.829,2.35
	c0.477,0.506,1.518,0.86,2.088,1.334c0.739,0.614,1.504,1.374,2.074,2.143c0.377,0.509,0.8,1.226,1.095,1.772
	c0.223,0.414,1,1.603,1.101,1.963c0.501,1.773,0.16,2.526-0.992,3.635c-1.57,1.51-2.27,0.781-4.022,0.046
	c-0.945-0.396-2.835-2.222-3.965-1.571c-1.583,0.912,0.822,4.458,0.63,5.928c-0.255,1.957-1.745,2.926-3.806,2.57
	c-1.804-0.312-3.815-4.021-5.35-3.696c-2.024,0.428-0.194,2.761-0.509,4.209c-0.422,1.937-0.961,3.061-2.831,3.656
	c-2.415,0.769-3.535-0.911-4.587-3.032c-0.723-1.457-1.849-3.249-2.911-1.083c-0.284,0.579-0.183,1.76-0.396,2.43
	c-0.177,0.556-0.539,1.451-0.883,1.954c-1.067,1.558-3.642,1.917-5.026,0.667c-1.573-1.421-0.466-3.748-1.776-5.152
	c-1.868-2.003-2.42,1.217-3.666,2.653c-1.647,1.898-2.164,2.245-4.261,1.282c-1.166-0.535-1.196,0.024-1.701-1.258
	C31.042,85.514,31.222,82.918,31.134,82.918C31.134,82.022,31.137,82.918,31.134,82.918z M44.754,20.734
	c-1.284,0-2.986-0.295-4.225,0.07c-0.292,0.245-0.577,0.497-0.857,0.756c-0.54,0.16-1.092,0.213-1.657,0.16
	c-1.318,0.822,0.691,3.697,1.448,4.794c1.133,1.642,2.672,2.991,3.732,4.683c0.965,1.541,1.334,3,2.965,1.091
	c2.19-2.564,3.652-5.787,5.68-8.428c1.495-1.947,1.339-1.65-0.757-2.159c-0.869-0.211-1.442-0.747-2.201-0.953
	C47.7,20.428,45.98,20.735,44.754,20.734C43.514,20.734,45.994,20.735,44.754,20.734z M33.348,40.022
	c3.245,0,0.548-4.019-0.327-5.598c-0.476-0.86-0.76-1.58-1.178-2.464c-0.321-0.679-0.756-1.273-1.058-1.991
	c-0.164-0.391-0.465-1.695-0.654-2.025c-1.601-2.793-3.95,1.799-4.873,3.357c-0.449,0.758-5.333,9.004-3.678,9.479
	c0.191,0.055,1.007-0.607,1.255-0.633c1.159-0.119,2.363-0.104,3.527-0.129C28.696,39.968,31.017,39.912,33.348,40.022
	C33.767,40.022,32.69,39.991,33.348,40.022z M25.417,49.139c-0.001,0.307-3.594-0.439-4.007,0.364
	c-0.214,0.416,0.713,2.538,0.896,3.028c0.977,2.62,2.449,5.43,4.302,7.495c1.003,1.118,1.823,2.757,3.203,2.063
	c0.807-0.406,1.9-3.922,2.297-4.776c0.577-1.239,1.152-2.394,1.834-3.629c0.22-0.398,1.83-3.114,1.758-3.416
	C35.628,49.955,26.472,49.139,25.417,49.139C25.417,49.155,26.474,49.139,25.417,49.139z M45.22,68.364c1.135,0,2.578,0.242,3.685,0
	c0.746-0.163,1.192-0.569,1.826-0.743c1.68-0.459,2.446-0.188,1.308-1.913c-1.866-2.829-3.846-5.792-5.798-8.552
	c-1.307-1.849-1.335-1.203-2.398,0.075c-1.072,1.29-1.944,2.448-2.797,3.849c-0.277,0.455-4.353,5.748-4.134,6.187
	c0.095,0.19,2.665,0.582,3.002,0.661C41.66,68.341,43.336,68.362,45.22,68.364C46.624,68.364,43.837,68.363,45.22,68.364z
	 M45.255,40.645c-1.883,0-4.321,1.33-4.55,3.515c-0.245,2.339,2.162,4.43,4.594,4.314c1.106-0.053,1.848-0.081,2.661-0.918
	c0.253-0.26,1.82-2.63,1.824-2.917c0.008-0.575-1.04-1.635-1.424-2.172C47.314,41.001,47.133,40.638,45.255,40.645
	C44.787,40.645,45.641,40.643,45.255,40.645z"/>
</svg>