<!-- Generator: Adobe Illustrator 19.2.1, SVG Export Plug-In  -->
<svg version="1.1"
	 xmlns="http://www.w3.org/2000/svg" xmlns:xlink="http://www.w3.org/1999/xlink" xmlns:a="http://ns.adobe.com/AdobeSVGViewerExtensions/3.0/"
	 x="0px" y="0px" width="212.598px" height="251.755px" viewBox="0 0 212.598 251.755"
	 style="enable-background:new 0 0 212.598 251.755;" xml:space="preserve">
<style type="text/css">
	.st0{fill:#EF4136;}
	.st1{fill:#FFFFFF;}
</style>
<defs>
</defs>
<g>
	<rect class="st0" width="212.598" height="249.449"/>
</g>
<path class="st1" d="M156.008,89.514l-2.686-0.075l-3.201,0.213l-2.188-0.054l-2.557-0.244l-0.821-0.03l-2.805,0.059l-2.653,0.116
	l-2.488-0.111l-0.456-0.006l-5.552,0.086l-2.932,0.133l-2.523,0.032l-2.644-0.085l-0.429-0.001l-2.287,0.065l-2.287-0.269
	l-1.197-0.011l0.065-0.053l2.352-2.249l1.96-1.783l2.083-2.142l1.866-1.682l2.006-1.925l1.944-1.66l0.725-0.716l1.44-1.642
	l1.687-1.377l2.325-2.091l2.176-2.123l1.956-1.986l1.729-1.65l1.937-1.597l2.309-2.097l2.012-2.215l1.735-1.454l-4.434-12.518
	l-2.828-0.047l-2.935,0.097l-2.556-0.079l-0.364-0.002l-5.4,0.13l-2.547-0.103l-0.53-0.001l-2.58,0.089l-2.581-0.065l-2.998,0.076
	l-2.878-0.059l-0.902,0.015l0.014-0.82l-0.256-2.348l0.02-2.345l-0.238-3.026l0.074-2.331l-14.166-0.449l-0.087,2.762l0.025,0.859
	l0.217,2.413l-0.021,2.412l0.245,2.698l-0.004,0.029l-1.719,0.042l-2.873,0.209l-2.381-0.007l-2.66-0.104l-0.513-0.002l-2.477,0.083
	L85.8,46.36l-0.699-0.004l-2.614,0.113l-5.304-0.071l-2.927,0.074l-2.563-0.076l-4.951,12.353l1.815,1.632l1.683,1.804l0.755,0.699
	l1.796,1.437l1.584,1.659l4.252,3.963l1.835,1.853l2.191,2.067l4.297,3.792l1.848,1.686l1.83,1.837l2.139,2.005l1.912,1.874
	l2.242,2.041l1.901,1.633l0.727,0.808l-4.949-0.248l-0.892,0.015l-2.633,0.207l-2.38,0.073l-5.318-0.228l-0.55-0.004l-2.801,0.092
	l-2.712,0.188l-5.199-0.175l-0.282-0.005l-2.636,0.009l-2.635-0.114l-1.005,0.028l-2.222,0.22l-2.221-0.144l-0.586-0.015
	l-2.758,0.05l-3.928,12.897l2.167,1.512l2.171,1.579l2.623,1.642l2.093,1.458l2.334,1.485l1.959,1.48l2.66,1.772l2.362,1.442
	l2.049,1.445l2.307,1.505l2.009,1.526l4.522,3.339l0.858,0.532l2.07,1.089l1.845,1.271l2.046,1.481l2.056,1.61l0.711,0.49
	l2.196,1.324l2.122,1.433l1.908,1.217l-4.9-0.024l-3.055,0.172l-2.431,0.023l-2.616-0.075l-2.907-0.022l-5.367,0.055l-2.486-0.16
	l-1.172,0.022l-2.271,0.23l-2.182-0.075l-5.258,12.093l1.861,1.861l4.41,3.563l1.503,1.622l4.566,4.063l2.073,1.714l1.764,1.689
	l2.531,2.009l5.809,5.167l1.897,1.781l4.188,3.544l1.654,1.677l0.688,0.612l2.06,1.606l1.474,1.214l0.035,1.159l-0.266,2.267
	l0.021,1.812l0.253,1.8l-0.241,1.799l-0.058,1.202l0.094,2.549l-0.061,2.547l0.119,1.473l0.381,2.038l-0.041,1.77l-0.219,2.335
	l-0.376,2.586l0.001,2.048l0.258,1.754l-0.247,1.754l0.037,2.204l0.366,2.102l-0.024,1.472l-0.417,2.159l0.123,3.214l0.428,1.565
	l-0.123,1.527l-0.022,0.659l0.036,2.765l0.116,2.736l-0.052,1.985l-0.401,2.24l-0.034,2.29l0.259,1.744l-0.249,1.747l0.101,2.547
	l0.43,1.922l-0.027,1.157l-0.485,2.05l-0.121,2.624l0.392,2.773l14.034-1.984l-0.205-1.449l0.348-1.472l0.188-1.467l0.065-2.769
	l-0.169-1.715l-0.337-1.505l0.211-1.484l-0.006-2.04l-0.24-1.615l0.291-1.626l0.108-1.062l0.073-2.768l-0.12-3.153l-0.03-2.326
	l0.196-2.438l-0.229-2.438l-0.321-1.172l0.221-1.145l0.127-1.224l0.046-2.763l-0.104-1.337l-0.291-1.666l0.233-1.657l-0.006-2.016
	l-0.255-1.737l0.253-1.738l0.302-3.118l0.093-3.258l-0.119-1.467l-0.38-2.035l0.048-2.021l-0.083-2.593l0.29-2.165l-0.006-1.929
	l-0.262-1.858l0.217-1.856l0.046-0.997l-0.045-1.436l1.37-1.113l4.317-3.771l2.026-1.984l1.676-1.438l1.976-1.464l0.835-0.727
	l1.646-1.675l3.911-3.254l0.621-0.587l1.492-1.59l3.923-3.161l2.233-2.109l1.915-1.668l2.073-2.032l1.701-1.458l1.992-1.516
	l2.531-2.375l-4.545-12.175l-2.697-0.144l-0.856,0.006l-2.465,0.167l-2.383-0.038l-2.68-0.101l-3.118,0.187l-5.057-0.246
	l-0.629-0.003l-7.989,0.251l-2.256-0.054l4.585-3.178l4.595-3.604l4.181-2.871l2.171-1.223l1.054-0.726l2.011-1.672l4.146-3.029
	l4.583-2.938l0.721-0.532l1.999-1.678l1.785-1.327l2.1-1.243l2.806-1.981l2.218-1.798l2.018-1.299l2.413-1.675L156.008,89.514z
	 M116.071,60.583l2.655,0.059l2.96-0.077l2.601,0.066l1.895-0.053l-1.041,1.019l-1.811,1.64l-2.004,1.635l-0.849,0.818l-1.494,1.703
	l-1.716,1.465l-2.074,1.979l0.052-2.224l-0.231-1.966l-0.327-1.243l0.219-1.218l0.039-2.264l-0.19-1.319L116.071,60.583z
	 M98.72,69.216l-6.416-5.733l-1.861-1.751l-1.079-1.089l1.604-0.054l2.532,0.1l3.046,0.014l3.159-0.218l0.832-0.02l-0.019,0.723
	l0.234,1.624l-0.292,1.63l0.122,3.055l0.471,1.79l-0.021,0.919l-0.276,1.043l-0.176-0.165L98.72,69.216z M96.115,113.933
	l-2.397-1.653l-2.714-1.484l-1.762-1.276l-4.305-3.256l-2.617-1.723l-1.341-0.946l2.038-0.066l5.359,0.229l0.504,0.002l2.801-0.086
	l2.696-0.204l5.118,0.259l0.377,0.01l0.62,0l0.141,2.118l0.363,1.623l-0.155,1.469l-0.378,2.624l-0.03,1.782l0.247,2.253
	l-0.058,1.674l-0.248-0.15l-1.821-1.427L96.115,113.933z M98.406,156.538l-6.226-5.539l-2.199-1.721l-1.686-1.615l-0.351-0.312
	l0.581,0.011l2.753-0.026l2.874-0.169l5.383,0.026l1.06-0.011l0.097,1.478l-0.113,5.135l0.08,3.039l-0.018,1.768l-0.38-0.323
	L98.406,156.538z M126.953,147.164l0.743,0.037l-2.086,1.64l-0.792,0.725l-1.567,1.67l-3.803,3.162l-2.051,2.033l-1.732,1.284
	l-0.869,0.737l0.036-1.616l-0.081-2.842l0.116-5.414l-0.077-1.297l0.668,0.049l3.099,0.083L126.953,147.164z M131.421,105.049
	l-4.933,3.585l-1.993,1.643l-1.901,1.07l-5.136,3.493l-2.642,2.072l0.046-1.326l-0.038-1.017l-0.205-1.866l0.27-1.869l0.324-3.026
	l-0.132-2.291l-0.377-1.685l0.012-0.139l1.887-0.185l2.042,0.24l1.03,0.046l2.587-0.074l2.587,0.083l0.316,0.003l2.804-0.035
	l2.92-0.133l2.792-0.033L131.421,105.049z"/>
</svg>