<!-- Generator: Adobe Illustrator 19.2.1, SVG Export Plug-In  -->
<svg version="1.1"
	 xmlns="http://www.w3.org/2000/svg" xmlns:xlink="http://www.w3.org/1999/xlink" xmlns:a="http://ns.adobe.com/AdobeSVGViewerExtensions/3.0/"
	 x="0px" y="0px" width="126.839px" height="214.431px" viewBox="0 0 126.839 214.431"
	 style="enable-background:new 0 0 126.839 214.431;" xml:space="preserve">
<style type="text/css">
	.st0{fill:#EBECEC;}
</style>
<defs>
</defs>
<g>
	<path class="st0" d="M11.322,214.431L0,207.577l0.608-3.284l0.716-2.852l0.735-2.686l0.562-1.426l0.837-1.591l0.438-2.199
		l1.363-5.015l0.331-2.322l0.863-2.517l0.617-1.079l0.08-1.204l0.696-2.622l0.58-1.196l0.048-1.357l0.414-2.153l0.745-2.068
		l0.483-2.592l0.664-2.701L11.447,165l0.862-1.574l0.429-2.036l0.673-2.597l0.755-3.187l0.757-2.379l0.531-2.314l0.507-2.621
		l0.38-1.291l0.876-2.186l0.769-2.841l0.647-1.823l0.198-1.956l0.674-2.377l0.687-1.416l0.157-1.561l0.149-0.9l0.634-2.715
		l0.488-1.404l0.758-1.611l0.255-1.739l0.397-1.516l0.818-2.126l0.464-2.074l0.479-2.612l0.358-1.274l0.724-1.876l0.295-1.997
		l0.802-2.38l0.972-1.767l0.453-1.675l1.619-7.918l0.479-1.512l0.625-1.407l0.097-1.565l0.422-2.01l1.771-4.699l0.525-2.806
		l0.769-2.68l0.594-1.481l-0.155-0.141l-1.922-1.382l-1.143-1.025l-1.559-1.74l-1.599-1.398l-2.011-1.578l-0.909-0.853l-1.413-1.582
		l-1.39-1.081l-2.056-1.298l-1.022-0.785l-1.767-1.631l-1.916-1.457l-1.025-0.953l-1.626-1.843l-1.486-1.414L9.908,57.07
		l-1.937-1.79l4.107-12.255l2.991-0.294l2.84-0.181l1.989,0.154l2.157,0.48l1.736,0.041l2.281-0.207l2.684-0.359l1.63-0.028
		l3.25,0.33l2.27,0.359l1.596-0.008l2.18-0.422l2.151-0.084l3.242,0.326l0.355-0.824l0.759-2.05l0.503-2.1l0.454-2.549l0.434-1.48
		l0.535-1.287l-0.002-1.474l0.915-3.488l0.533-0.946l0.021-1.087l0.552-2.614l0.836-1.991l0.614-2.704l0.802-2.566l0.983-3.33
		l0.622-1.535l0.104-1.693l0.905-3.052l0.735-1.301l0.184-1.426l0.26-1.195L56.938,0l13.555,0.058l0.731,2.432l0.223,0.995
		l0.328,2.198l0.568,1.761l0.984,2.251l0.569,2.239l0.127,1.494l0.663,1.35l0.716,2.734l0.082,1.482l0.616,1.325l0.614,2.172
		l0.223,1.916l0.681,1.782l0.381,1.431l0.316,2.018l0.734,1.903l0.276,0.888l1.187,4.918l0.988,2.515l0.879,2.643l0.153,0.703
		l0.582,0.043l1.9-0.377l2.654-0.019l1.874,0.344l1.638-0.152l2.611-0.412l2.669,0.088l1.25,0.283l1.256-0.29l3.291,0.023
		l1.923,0.474l1.218-0.026l2.167-0.468l1.762-0.155l3.18,0.128l2.908,0.252l4.263,12.205l-2.078,1.969l-0.674,0.563l-1.86,1.369
		l-1.803,1.735l-2.05,1.872l-1.396,0.995l-1.382,0.75l-1.024,1.161l-0.782,0.761l-2.747,2.23l-1.501,0.993l-1.188,1.383
		l-1.211,1.116l-1.893,1.375l-2.086,1.924l-2.499,2.007l-1.399,0.997l0.57,1.614l0.397,2.062l0.05,1.187l0.578,1.045l0.802,2.342
		l0.305,1.957l0.744,1.836l0.516,2.438l0.062,1.976l0.49,1.701l0.649,1.978l1.05,2.015l0.792,2.885l0.073,1.334l0.611,1.185
		l0.731,2.355l0.33,2.601l0.338,1.85l0.78,1.932l0.307,0.945l0.581,2.337l0.831,2.27l0.385,1.628l0.193,1.683l0.707,1.544
		l0.585,2.041l0.328,2.54l0.349,1.713l0.833,1.852l0.514,1.664l0.443,2.486l0.689,2.681l0.388,1.748l0.891,1.639l0.853,3.021
		l0.074,1.432l0.61,1.271l0.603,1.901l0.367,2.198l0.711,2.097l0.258,0.984l0.463,2.493l0.597,2.266l0.709,2.221l0.954,2.348
		l0.47,1.814l0.283,2.337l0.556,2.156l0.571,1.998l0.971,1.994l0.581,1.733l0.951,4.923l0.775,2.023l0.395,1.51l0.318,2.174
		l0.681,2.065l0.267,1.093l0.354,2.19l1.501,4.6l0.958,2.329l0.531,2.513l0.045,1.727l0.435,1.192l-10.804,8.173l-1.928-1.391
		l-1.616-1.622l-1.324-1.849l-1.39-1.445l-1.315-1.205l-1.793-1.062l-1.574-1.268l-1.647-1.77l-1.804-1.606l-0.608-0.612
		l-3.134-3.592l-1.584-1.161l-1.459-1.437l-1.23-1.624l-1.4-1.217l-2.038-1.617l-1.493-1.625l-0.753-1.132l-1.124-0.736
		l-1.519-1.342l-1.621-1.91l-1.532-1.565l-2.434-2.151l-2.026-2.194l-1.285-1.484l-3.861-2.89l-1.331-1.316l-1.013-1.311
		l-1.378-0.944l-0.968-0.797l-3.51-3.466l-0.524,0.452l-3.491,2.737l-1.12,1.524l-0.753,0.868l-1.976,1.935l-0.943,0.776
		l-1.909,1.312l-1.01,0.914l-1.046,1.609l-2.451,2.307l-1.307,0.739l-0.91,1.123l-0.623,0.675l-2.191,2.077l-1.996,1.764
		l-1.945,1.82l-0.671,0.555l-1.606,1.169l-3.704,4.123l-2.039,1.871l-0.89,0.694l-1.153,0.761l-0.788,1.175l-1.495,1.614
		l-2.674,2.076l-1.511,0.994l-1.165,1.356l-1.128,1.054l-1.556,1.164l-1.241,1.501l-0.789,0.812l-1.612,1.412l-1.357,1.699
		l-1.188,1.171L11.322,214.431z M21.2,183.728l-0.097,1.454l-0.175,0.579l0.161-0.16l1.87-1.233l1.366-1.254l3.388-3.834
		l1.168-1.069l1.898-1.382l1.851-1.728l1.975-1.744l1.574-1.497l1.466-1.809l2.015-1.706l0.968-0.548l0.604-0.93l1.186-1.393
		l2.045-1.852l0.742-0.587L47,161.803l1.125-1.103l1.321-1.798l1.253-1.313l3.779-2.993l-0.985-0.587l-1.24-0.937l-4.029-3.843
		l-0.806-0.924l-1.131-1.549l-1.961-1.684l-1.926-1.961l-0.598-0.692l-1.182-1.563l-4.09-3.36l-1.611-1.586l-0.591-0.439
		l-0.162,1.603l-0.674,2.38l-0.688,1.418l-0.157,1.559l-0.372,1.657l-0.832,2.344l-0.627,2.398l-0.278,0.846l-0.791,1.972
		l-0.452,2.318l-0.778,3.283l-0.757,2.376l-0.604,2.626l-0.653,2.521l-0.527,2.556l-0.725,1.975l-0.929,1.694l-0.391,1.589
		l-0.459,2.531l-0.305,1.136l-0.568,1.579l-0.062,1.747l-0.707,2.848L21.2,183.728z M105.532,184.782l1.204,0.883l-0.836-4.354
		l-0.838-1.723l-0.441-1.151l-0.816-2.864l-0.695-2.699l-0.173-0.914l-0.226-1.86l-0.887-2.237l-0.949-3.006l-0.825-3.206
		l-0.417-2.25l-0.732-2.157l-0.28-1.111l-0.296-1.772l-0.79-1.646l-0.689-2.702l-0.064-1.245l-0.6-1.103l-0.694-1.854l-0.576-2.603
		l-0.784-3.111l-0.337-1.892l-0.481-1.069l-0.98,0.832l-1.763,1.95l-2.267,2.274l-2.313,2.054l-1.351,1.096l-1.019,1.483
		l-1.329,1.453l-3.924,3.198l-2.034,2.2l-1.646,1.46l2.664,2.631l1.779,1.219l1.604,1.513l1.117,1.446l3.597,2.677l1.157,1.069
		l1.726,1.994l1.513,1.632l2.223,1.946l2.262,2.336l1.122,1.322l1.479,0.97l2.015,2.001l0.938,1.408l1.525,1.22l2.076,1.803
		l1.003,1.072L105.532,184.782z M61.413,142.229l1.755,1.045l1.806,1.528l1.646-1.46l1.578-1.762l0.846-0.8l3.448-2.796l1.037-1.511
		l1.379-1.494l2.02-1.638l1.769-1.577l1.667-1.688l1.739-1.938l0.686-0.667l2.553-2.137l1.783-1.285l-0.761-0.873l-1.301-1.255
		l-1.772-1.179l-1.642-1.514l-0.883-1.12l-1.235-0.709l-1.495-1.146l-1.554-1.561l-1.778-1.303l-0.76-0.643l-1.862-1.816
		l-2.27-2.052l-1.291-1.317l-1.611-0.965l-2.021-1.818l-1.24-1.649l-0.697-0.607l-1.834,1.318l-1.961,1.254l-1.355,1.139
		l-1.495,1.702l-0.897,0.855l-1.866,1.493l-1.998,1.963l-2.441,2.137l-1.964,1.513l-1.976,1.793l-2.095,1.806l-0.789,0.591
		l-1.772,1.142l1.322,1.475l0.793,1.271l1.153,0.859l0.738,0.633l1.699,1.672l4.088,3.332l1.131,1.183l1.401,1.854l1.36,1.386
		l1.849,1.545l1.18,1.259l1.281,1.754L61.413,142.229z M83.479,102.251l0.146,0.106l-0.587-1.803l-0.771-2.677l-0.273-1.738
		l-0.051-1.598l-0.577-1.425l-0.435-1.573l-0.238-1.526l-0.798-1.477l-0.197,0.213l-2.018,1.522l-0.998,0.504l-0.663,0.914
		l-2.006,1.768l0.516,0.555l0.854,1.136l1.205,0.722l1.418,1.118l1.767,1.803l2.095,1.884L83.479,102.251z M45.297,94.678
		l-0.111,1.807l-0.599,2.445l-0.258,0.581l0.067-0.06l1.674-1.339l1.438-1.638l0.765-0.747l2.119-1.779l1.335-0.926l-0.121-0.148
		l-1.894-1.255l-2.164-1.688l-0.394-0.406l-0.283,1.02L45.297,94.678z M58.178,80.246l2.058,1.327l1.66,1.487l0.773,0.952
		l0.066-0.069l1.669-1.27l1.076-0.591l0.739-1.02l2.544-2.164l1.386-0.699l1.021-1.107l0.903-0.823l3.853-2.899l0.227-0.271
		l-0.839-2.091l-1.623-5.2l-0.24-0.983l-0.312-1.841l-0.787-1.722l-0.636-2.645l-0.075-1.758l-1.728-4.698l-0.764-2.676
		l-0.229-1.169l-0.227-2.053l-0.577-1.736l-0.959-2.41l-0.304-0.957l-1.195-4.954l-0.839-2.174l-0.389-1.452l-0.318-2.029
		l-0.489-1.28l-0.836,3.067l-0.497,0.883l0.001,1.028l-0.544,2.729l-0.782,1.881l-0.439,2.4l-0.896,3.523l-1.111,2.972l-0.851,1.971
		l-0.463,2.072l-0.282,0.948l-0.839,2.23l-0.438,1.777l-0.209,2.288l-0.737,2.561l-0.602,1.187l-0.064,1.34l-0.611,2.559
		l-0.878,1.96l-0.382,1.62l-0.248,2.361l-0.532,1.948l0.248,0.191l1.968,1.056l2.373,2.067l1.075,1.474L58.178,80.246z
		 M36.151,61.07l1.956,1.549l1.168,1.021l0.06-0.175l0.605-1.353l0.073-1.518l0.758-2.866l0.344-0.679l-1.567,0.304l-1.316,0.13
		l-2.833,0.013L34.26,57.41l-2.514-0.397l2.044,1.588l0.937,0.874L36.151,61.07z M87.34,61.953l0.522,1.627l0.874-0.815l0.67-0.553
		l1.573-1.144l1.29-1.503l1.466-1.294l1.842-1.218l-0.918-0.208l-1.94,0.291l-2.835,0.265l-1.934-0.086l-1.506-0.276l-0.402,0.08
		l0.372,0.814l0.543,1.762L87.34,61.953z"/>
</g>
</svg>