<!-- Generator: Adobe Illustrator 19.2.1, SVG Export Plug-In  -->
<svg version="1.1"
	 xmlns="http://www.w3.org/2000/svg" xmlns:xlink="http://www.w3.org/1999/xlink" xmlns:a="http://ns.adobe.com/AdobeSVGViewerExtensions/3.0/"
	 x="0px" y="0px" width="155.255px" height="97.481px" viewBox="0 0 155.255 97.481"
	 style="enable-background:new 0 0 155.255 97.481;" xml:space="preserve">
<style type="text/css">
	.st0{fill:#FFFFFF;}
</style>
<defs>
</defs>
<g>
	<path class="st0" d="M94.357,0.053c1.786-0.082,3.784-0.098,5.731,0.159c1.895,0.25,3.818,0.234,5.702,0.678
		c1.036,0.244,2.121,0.363,3.171,0.6c1.098,0.248,2.19,0.523,3.269,0.861c1.027,0.322,2.087,0.559,3.078,0.975
		c2.534,1.064,5.092,2.096,7.38,3.65c1.17,0.795,2.381,1.578,3.382,2.562c1.233,1.213,2.488,2.424,3.534,3.826
		c1.198,1.605,2.203,3.322,3.009,5.143c0.79,1.785,1.273,3.666,1.69,5.585c0.318,1.468,0.463,2.918,0.431,4.386
		c-0.037,1.728,0.203,3.477-0.307,5.183c-0.101,0.339-0.072,0.715-0.135,1.068c-0.383,2.135-0.835,4.26-1.573,6.299
		c-0.66,1.824-1.445,3.601-2.258,5.371c-0.798,1.737-1.766,3.364-2.71,5.003c-1.594,2.768-3.502,5.331-5.481,7.839
		c-2.158,2.734-4.51,5.294-7.014,7.707c-2.068,1.993-4.209,3.907-6.445,5.72c-1.691,1.371-3.453,2.641-5.199,3.936
		c-0.352,0.261-0.66,0.583-1.019,0.833c-0.241,0.168-0.582,0.321-0.804,0.026c-0.202-0.268,0.012-0.54,0.231-0.727
		c1.235-1.056,2.244-2.322,3.297-3.546c2.005-2.331,3.817-4.812,5.449-7.411c0.991-1.578,1.854-3.242,2.689-4.917
		c1.08-2.166,1.894-4.432,2.655-6.719c0.282-0.847,0.399-1.747,0.627-2.613c0.574-2.177,0.504-4.439,0.904-6.638
		c0.162-0.892-0.201-1.739-0.23-2.618c-0.067-2.068-0.552-4.068-1.136-6.041c-0.711-2.403-1.802-4.616-3.213-6.7
		c-0.956-1.412-2.046-2.707-3.194-3.937c-1.444-1.547-3.14-2.831-4.889-4.036c-1.051-0.724-2.181-1.315-3.294-1.917
		c-1.184-0.641-2.486-1.063-3.738-1.575c-0.714-0.292-1.417-0.627-2.153-0.846c-0.683-0.203-1.37-0.452-2.059-0.571
		c-1.116-0.192-2.195-0.534-3.301-0.759c-0.807-0.164-1.616-0.207-2.418-0.34c-3.245-0.535-6.522-0.553-9.795-0.49
		c-1.631,0.032-3.28-0.066-4.891,0.233c-1.125,0.209-2.269,0.222-3.378,0.405c-1.148,0.19-2.326,0.316-3.449,0.675
		c-0.151,0.048-0.308,0.098-0.465,0.111c-1.88,0.153-3.675,0.735-5.461,1.253c-1.205,0.35-2.424,0.728-3.623,1.127
		c-1.122,0.374-2.226,0.815-3.363,1.155c-0.949,0.284-1.865,0.692-2.773,1.093c-1.288,0.57-2.555,1.187-3.833,1.779
		c-1.586,0.735-3.157,1.505-4.675,2.371c-1.744,0.995-3.511,1.961-5.18,3.072c-1.707,1.136-3.358,2.361-5.009,3.583
		c-1.069,0.792-2.118,1.619-3.15,2.449c-1.302,1.047-2.521,2.211-3.715,3.394c-2.458,2.434-4.85,4.93-6.923,7.701
		c-1.121,1.498-2.196,3.034-3.198,4.622c-0.979,1.552-1.853,3.159-2.674,4.79c-0.451,0.895-0.821,1.847-1.231,2.766
		c-0.52,1.167-0.853,2.39-1.247,3.589c-0.238,0.722-0.492,1.457-0.658,2.22c-0.322,1.482-0.546,2.98-0.777,4.472
		c-0.219,1.416-0.233,2.859-0.192,4.302c0.046,1.625,0.297,3.218,0.575,4.808c0.166,0.953,0.355,1.909,0.777,2.801
		c0.237,0.5,0.314,1.057,0.53,1.578c0.755,1.825,1.614,3.583,2.752,5.205c1.885,2.686,4.148,5.001,6.812,6.905
		c1.36,0.971,2.802,1.828,4.297,2.588c0.139,0.071,0.293,0.154,0.382,0.274c0.16,0.215,0.441,0.465,0.247,0.737
		c-0.189,0.266-0.422-0.056-0.639-0.099c-0.603-0.119-1.19-0.291-1.78-0.462c-1.397-0.406-2.73-0.97-4.096-1.449
		c-2.16-0.758-4.11-1.905-6.054-3.055c-1.353-0.8-2.568-1.836-3.721-2.913c-1.182-1.105-2.33-2.252-3.307-3.551
		c-0.96-1.276-1.74-2.659-2.49-4.068c-0.859-1.613-1.457-3.334-1.857-5.082c-0.293-1.28-0.77-2.569-0.639-3.94
		c0.037-0.39-0.081-0.793-0.1-1.192c-0.126-2.559,0.056-5.087,0.518-7.617c0.284-1.554,0.64-3.082,1.123-4.572
		c0.524-1.617,1.08-3.226,1.77-4.791c0.681-1.546,1.494-3.022,2.2-4.553c0.131-0.284,0.318-0.557,0.498-0.81
		c1.002-1.411,1.752-2.975,2.752-4.39c1.451-2.052,2.94-4.07,4.567-5.985c0.349-0.411,0.714-0.808,1.061-1.22
		c2.139-2.536,4.418-4.934,6.936-7.1c0.454-0.391,0.914-0.78,1.331-1.209c1.562-1.609,3.397-2.9,5.117-4.318
		c1.884-1.554,3.936-2.905,5.934-4.316c2.068-1.46,4.244-2.754,6.403-4.071c1.642-1.001,3.303-1.98,5.014-2.854
		c1.537-0.785,3.029-1.659,4.634-2.318c1.154-0.474,2.223-1.16,3.388-1.595c1.095-0.409,2.118-0.973,3.238-1.332
		c0.841-0.269,1.672-0.637,2.466-1.035c0.631-0.316,1.312-0.445,1.956-0.696c1.867-0.728,3.777-1.363,5.702-1.92
		c1.485-0.429,2.956-0.91,4.47-1.256c1.432-0.327,2.867-0.651,4.294-0.993C77.6,1.835,79.794,1.37,82.015,1.08
		C86.047,0.554,90.075-0.08,94.357,0.053z"/>
	<path class="st0" d="M56.343,97.396c-7.722,0-15.444-0.001-23.166,0.003c-0.379,0-0.76,0.019-1.136,0.061
		c-0.804,0.091-1.032-0.086-1.034-0.884c-0.006-3.001-0.003-6.002-0.003-9.002c0.001-7.682,0.003-15.364,0.006-23.046
		c0-0.804,0.084-1.595,0.351-2.361c0.059-0.168,0.125-0.355,0.107-0.525c-0.12-1.17,0.34-2.257,0.612-3.337
		c0.31-1.232,0.736-2.461,1.256-3.652c0.599-1.373,1.279-2.683,2.076-3.944c1.404-2.223,3.2-4.071,5.308-5.629
		c1.367-1.01,2.785-1.937,4.342-2.633c1.648-0.737,3.323-1.373,5.084-1.823c1.2-0.306,2.426-0.431,3.625-0.738
		c0.912-0.234,1.902-0.182,2.859-0.223c2.757-0.116,5.515-0.147,8.275-0.134c3.501,0.017,7.002,0.007,10.503,0.002
		c0.378-0.001,0.758-0.029,1.135-0.071c0.294-0.033,0.561,0.016,0.802,0.175c0.365,0.242,0.537,0.485,0.154,0.906
		c-1.183,1.299-2.336,2.626-3.494,3.948c-1.486,1.696-2.968,3.394-4.446,5.097c-0.694,0.799-1.375,1.609-2.059,2.417
		c-0.311,0.367-0.735,0.367-1.156,0.367c-2.061,0.003-4.122,0.045-6.181-0.013c-1.381-0.039-2.69,0.357-4.039,0.486
		c-1.393,0.133-2.68,0.595-3.798,1.419c-1.135,0.837-1.802,2.035-2.38,3.307c-0.477,1.05-0.587,2.175-0.844,3.268
		c-0.216,0.92-0.077,1.02,0.9,1.02c9.943,0.001,19.885,0.002,29.828,0.003c0.08,0,0.16-0.001,0.24,0
		c0.891,0.013,1.228,0.344,1.23,1.244c0.004,3.281,0.002,6.562,0.002,9.843c0,0.36,0.002,0.72-0.007,1.08
		c-0.012,0.508-0.283,0.771-0.786,0.792c-0.24,0.01-0.48,0.008-0.72,0.008c-8.602,0.001-17.204-0.005-25.807,0.007
		c-1.458,0.002-2.915,0.153-4.375,0.099c-0.447-0.016-0.594,0.194-0.592,0.618c0.009,2.701,0.01,5.401-0.001,8.102
		c-0.002,0.451,0.196,0.672,0.623,0.709c0.318,0.028,0.638,0.051,0.957,0.051c9.722,0.004,19.445,0.005,29.167,0.007
		c1.076,0,1.301,0.216,1.302,1.292c0.003,3.561,0.002,7.122-0.001,10.683c-0.001,0.885-0.115,0.996-1.011,0.996
		c-7.902,0.002-15.804,0.001-23.706,0.001C56.343,97.394,56.343,97.395,56.343,97.396z"/>
	<path class="st0" d="M88.74,46.141c0.001,1.899,0.014,3.798-0.007,5.697c-0.006,0.562,0.189,0.819,0.767,0.778
		c0.378-0.027,0.759-0.004,1.139-0.002c0.558,0.002,0.86,0.273,0.863,0.841c0.004,0.88,0.001,1.759,0.003,2.639
		c0.001,0.552-0.32,0.798-0.824,0.829c-0.438,0.027-0.879,0.016-1.319,0.01c-0.424-0.006-0.624,0.19-0.62,0.617
		c0.006,0.66-0.012,1.32,0.002,1.979c0.011,0.486-0.212,0.737-0.682,0.82c-0.299,0.053-0.597,0.093-0.893,0.041
		c-0.617-0.109-1.226-0.092-1.848-0.011c-1.049,0.137-1.382-0.181-1.382-1.228c0-0.46,0.003-0.92-0.001-1.379
		c-0.006-0.758-0.073-0.832-0.818-0.834c-1.759-0.005-3.518-0.001-5.278-0.001c-1.619,0-3.238-0.001-4.858,0
		c-0.56,0-1.115-0.022-1.673-0.093c-1.524-0.192-2.055-1.311-1.326-2.697c0.531-1.009,1.348-1.775,2.059-2.626
		c0.894-1.071,1.896-2.053,2.821-3.099c1.293-1.461,2.553-2.952,3.839-4.419c0.762-0.87,1.526-1.74,2.331-2.57
		c0.448-0.461,0.721-1.053,1.214-1.478c0.304-0.262,0.61-0.429,1.019-0.422c1.379,0.022,2.757,0.032,4.136,0.045
		c0.099,0.001,0.2,0.003,0.298-0.011c0.828-0.121,1.03,0.036,1.035,0.879C88.746,42.342,88.74,44.241,88.74,46.141z M83.939,49.022
		c-0.001,0-0.002,0-0.002,0c0-0.979,0.004-1.958-0.004-2.937c-0.002-0.188,0.089-0.458-0.141-0.534
		c-0.221-0.073-0.317,0.188-0.445,0.332c-1.021,1.142-2.097,2.234-3.123,3.372c-0.866,0.96-1.811,1.852-2.658,2.835
		c-0.135,0.157-0.256,0.326-0.153,0.539c0.104,0.216,0.319,0.223,0.52,0.211c0.418-0.026,0.843-0.136,1.25-0.085
		c1.378,0.172,2.748,0.078,4.123-0.009c0.459-0.029,0.641-0.22,0.637-0.667C83.932,51.06,83.939,50.041,83.939,49.022z"/>
	<path class="st0" d="M142.157,90.865c0,1.74,0,3.479,0,5.219c0,0.281-0.008,0.559-0.106,0.828
		c-0.093,0.253-0.243,0.387-0.535,0.377c-0.659-0.022-1.32-0.009-1.979-0.028c-0.704-0.021-1.005-0.454-1.042-1.155
		c-0.077-1.459-0.033-2.916-0.055-4.374c-0.015-0.976,0.07-1.951,0.015-2.93c-0.03-0.524-0.196-0.791-0.737-0.77
		c-0.559,0.021-1.117,0.04-1.676,0.049c-0.552,0.01-0.744,0.268-0.737,0.827c0.026,2.259,0.009,4.519,0.009,6.779
		c0,1.567-0.011,1.579-1.55,1.58c-0.36,0-0.72,0.006-1.08-0.001c-0.777-0.014-1.083-0.317-1.084-1.105
		c-0.004-3.219-0.001-6.439-0.001-9.658c0-0.32-0.016-0.641,0.007-0.959c0.045-0.627,0.517-0.99,1.134-0.93
		c1.277,0.124,2.557,0.035,3.836,0.048c1.56,0.015,3.119,0,4.679,0.006c0.768,0.003,0.902,0.142,0.904,0.92
		c0.003,1.76,0.001,3.519,0.001,5.279C142.158,90.865,142.158,90.865,142.157,90.865z"/>
	<path class="st0" d="M124.891,84.667c1.3,0,2.599-0.002,3.899,0.002c0.219,0.001,0.441,0.008,0.657,0.041
		c0.574,0.087,0.879,0.37,0.831,1.012c-0.237,3.174-0.074,6.353-0.118,9.53c-0.004,0.259,0,0.521,0.028,0.778
		c0.095,0.852-0.383,1.323-1.255,1.256c-0.438-0.034-0.879-0.017-1.319-0.023c-0.843-0.01-1.054-0.214-1.061-1.076
		c-0.009-1.12-0.001-2.24-0.001-3.359c0-1.36-0.009-2.72,0.004-4.079c0.004-0.465-0.098-0.688-0.65-0.641
		c-0.589,0.051-1.192-0.019-1.786-0.032c-0.641-0.015-0.689,0.258-0.688,0.741c0.009,2.34,0.003,4.679,0.006,7.019
		c0.002,1.412-0.013,1.43-1.44,1.431c-0.48,0-0.96-0.005-1.44,0.004c-0.458,0.009-0.716-0.223-0.788-0.656
		c-0.043-0.254-0.081-0.522-0.049-0.774c0.21-1.631,0.002-3.267,0.084-4.902c0.085-1.695-0.151-3.392-0.094-5.092
		c0.033-0.976,0.229-1.186,1.218-1.184c1.32,0.002,2.639,0.001,3.959,0.001C124.891,84.664,124.891,84.665,124.891,84.667z"/>
	<path class="st0" d="M153.341,97.269c-0.3-0.001-0.599,0-0.899-0.001c-0.671-0.003-1.146-0.403-1.282-1.079
		c-0.269-1.331-0.269-1.331-1.627-1.326c-0.619,0.002-1.239,0.013-1.858-0.002c-0.383-0.01-0.61,0.136-0.664,0.524
		c-0.011,0.079-0.03,0.157-0.048,0.235c-0.329,1.477-0.541,1.649-2.04,1.649c-0.42,0-0.839,0.009-1.259-0.003
		c-0.626-0.018-0.905-0.403-0.727-0.989c0.629-2.075,1.237-4.156,1.841-6.238c0.453-1.563,0.91-3.127,1.386-4.685
		c0.097-0.316,0.281-0.526,0.619-0.571c0.336-0.045,0.672-0.11,1.009-0.114c1.019-0.013,2.038-0.006,3.057,0.002
		c0.883,0.007,0.903,0.148,1.183,0.995c0.435,1.316,0.719,2.674,1.193,3.981c0.46,1.268,0.76,2.595,1.141,3.893
		c0.235,0.8,0.464,1.603,0.747,2.386c0.335,0.926,0.083,1.345-0.874,1.346C153.94,97.27,153.64,97.269,153.341,97.269z
		 M148.964,91.266c0.284-0.102,0.872,0.193,0.79-0.458c-0.08-0.627-0.307-1.235-0.481-1.849c-0.037-0.13-0.091-0.298-0.24-0.32
		c-0.205-0.031-0.245,0.175-0.31,0.309c-0.295,0.611-0.258,1.326-0.612,1.927c-0.103,0.176,0.087,0.331,0.291,0.358
		C148.579,91.257,148.76,91.256,148.964,91.266z"/>
	<path class="st0" d="M97.259,91.305c-0.058-1.518,0.077-3.377-0.093-5.236c-0.1-1.097,0.242-1.43,1.334-1.405
		c1.998,0.046,4-0.123,5.994,0.111c1.857,0.217,2.815,1.216,2.959,3.045c0.066,0.838,0.078,1.696-0.137,2.508
		c-0.474,1.787-1.534,3.045-3.725,3.214c-0.717,0.055-1.435,0.091-2.153,0.119c-0.403,0.015-0.595,0.214-0.57,0.602
		c0.042,0.659-0.102,1.311-0.025,1.974c0.07,0.598-0.298,0.996-0.904,1.025c-0.559,0.027-1.119,0.026-1.679,0.033
		c-0.693,0.009-0.987-0.267-0.998-0.97c-0.012-0.78-0.003-1.56-0.003-2.341C97.259,93.205,97.259,92.425,97.259,91.305z
		 M101.808,90.549c0.59-0.004,1.029-0.067,1.451-0.287c0.42-0.219,0.789-0.524,0.697-1.068c-0.088-0.523-0.347-0.939-0.93-1.032
		c-0.315-0.05-0.631-0.097-0.948-0.121c-1.122-0.086-1.381,0.172-1.32,1.302c0.007,0.119,0.028,0.237,0.046,0.355
		C100.939,90.555,100.939,90.555,101.808,90.549z"/>
	<path class="st0" d="M109.603,84.649c0.4,0,0.801,0.022,1.199-0.005c0.648-0.044,1.087,0.231,1.338,0.821
		c0.394,0.927,0.815,1.843,1.225,2.763c0.058,0.129,0.125,0.278,0.284,0.276c0.182-0.002,0.179-0.186,0.226-0.31
		c0.363-0.964,0.823-1.889,1.089-2.894c0.128-0.485,0.615-0.607,1.067-0.623c0.759-0.026,1.52-0.019,2.28-0.009
		c0.698,0.009,0.975,0.365,0.705,1.003c-0.355,0.841-0.684,1.694-1.061,2.523c-0.6,1.319-1.132,2.665-1.698,3.997
		c-0.483,1.134-0.909,2.29-1.598,3.334c-0.737,1.118-1.802,1.584-3.06,1.734c-0.276,0.033-0.56,0.007-0.839,0.014
		c-0.653,0.017-0.968-0.241-1-0.885c-0.027-0.539-0.018-1.08,0.002-1.62c0.019-0.504,0.233-0.822,0.809-0.823
		c0.419-0.001,0.744-0.277,1.03-0.546c0.266-0.25,0.222-0.569,0.044-0.881c-0.819-1.433-1.662-2.853-2.432-4.312
		c-0.492-0.933-0.917-1.899-1.494-2.789c-0.207-0.319,0.038-0.684,0.506-0.727c0.456-0.042,0.919-0.009,1.379-0.009
		C109.603,84.671,109.603,84.66,109.603,84.649z"/>
	<path class="st0" d="M87.422,90.93c0-1.74-0.003-3.48,0.001-5.221c0.002-0.751,0.2-1.019,0.929-1.028
		c2.36-0.028,4.72-0.024,7.08-0.009c0.578,0.004,0.915,0.436,0.82,1.006c-0.093,0.559-0.046,1.117-0.066,1.676
		c-0.021,0.596-0.248,0.821-0.818,0.749c-1.137-0.144-2.277-0.051-3.416-0.066c-0.669-0.009-0.807,0.143-0.808,0.82
		c-0.005,2.34,0,4.68-0.002,7.021c0,0.24-0.002,0.481-0.028,0.719c-0.047,0.438-0.264,0.69-0.745,0.674
		c-0.499-0.017-1-0.004-1.5-0.002c-1.353,0.004-1.448-0.094-1.448-1.478C87.422,94.17,87.421,92.55,87.422,90.93z"/>
</g>
</svg>