<!-- Generator: Adobe Illustrator 19.2.1, SVG Export Plug-In  -->
<svg version="1.1"
	 xmlns="http://www.w3.org/2000/svg" xmlns:xlink="http://www.w3.org/1999/xlink" xmlns:a="http://ns.adobe.com/AdobeSVGViewerExtensions/3.0/"
	 x="0px" y="0px" width="215.161px" height="78.67px" viewBox="0 0 215.161 78.67"
	 style="enable-background:new 0 0 215.161 78.67;" xml:space="preserve">
<style type="text/css">
	.st0{fill:#FFFFFF;}
</style>
<defs>
</defs>
<g>
	<g>
		<path class="st0" d="M33.978,0c6.657,1.49,12.479,4.399,17.188,9.506c11.636,12.619,9.313,33.599-4.829,43.305
			c-1.565,1.074-2.537,1.053-3.723-0.485c-1.967-2.55-4.075-4.994-6.206-7.411c-0.96-1.089-0.921-1.684,0.4-2.424
			c2.536-1.421,4.583-3.383,6.057-5.947c0.795-1.382,0.397-1.744-1.033-1.735c-3.869,0.025-7.739-0.054-11.607,0.02
			c-1.659,0.032-2.818-0.536-3.849-1.843c-2.084-2.641-4.316-5.163-6.478-7.743c-0.361-0.431-0.948-0.891-0.724-1.47
			c0.282-0.727,1.092-0.55,1.713-0.551c6.807-0.015,13.613-0.003,20.42-0.032c0.666-0.003,1.592,0.375,1.94-0.427
			c0.304-0.701-0.382-1.323-0.756-1.912c-5.581-8.788-17.658-9.723-24.66-1.814c-1.319,1.49-1.972,1.566-3.181-0.032
			c-1.856-2.452-3.887-4.781-5.958-7.059C7.498,10.63,7.412,9.734,8.788,8.401c3.962-3.839,8.543-6.459,13.892-7.765
			C23.442,0.45,24.191,0.213,24.946,0C27.957,0,30.967,0,33.978,0z"/>
		<path class="st0" d="M0,46.451c0.882-3.912,1.855-7.765,3.887-11.313c2.231-3.896,5.369-6.845,8.897-9.487
			c1.033-0.774,1.796-0.617,2.573,0.316c2.199,2.641,4.391,5.29,6.641,7.887c0.948,1.094,0.591,1.685-0.508,2.325
			c-2.391,1.39-4.377,3.247-5.8,5.63c-1.232,2.065-1.02,2.418,1.329,2.432c3.871,0.022,7.742,0.053,11.612-0.011
			c1.418-0.023,2.408,0.43,3.304,1.555c2.051,2.576,4.25,5.034,6.346,7.574c0.373,0.452,1.129,0.891,0.723,1.628
			c-0.313,0.568-1.019,0.437-1.577,0.434c-6.879-0.036-13.759-0.089-20.638-0.134c-0.622-0.004-1.425-0.347-1.786,0.304
			c-0.336,0.605,0.266,1.208,0.557,1.758c4.848,9.187,18.374,10.653,24.983,2.651c1.266-1.533,2.113-1.563,3.317-0.052
			c2.008,2.52,4.079,4.992,6.19,7.426c0.737,0.85,0.862,1.42,0.047,2.352c-7.897,9.029-23.758,11.66-34.227,5.865
			C7.264,70.831,2.058,63.78,0.313,54.13C0.263,53.854,0.107,53.598,0,53.333C0,51.039,0,48.745,0,46.451z"/>
		<path class="st0" d="M122.354,61.058c-1.536-0.082-2.187-0.346-1.609-1.47c0.196-0.382,0.374-0.79,0.648-1.112
			c1.362-1.599,1.403-3.126,0.004-4.765c-0.431-0.506-1.318-1.363-0.369-1.981c0.787-0.511,1.82-0.273,2.442,0.668
			c0.158,0.239,0.292,0.501,0.483,0.71c0.407,0.446,0.488,1.449,1.23,1.253c0.573-0.152,0.248-1.014,0.299-1.555
			c0.085-0.904,0.564-1.241,1.418-1.23c0.887,0.011,1.258,0.46,1.353,1.319c0.058,0.519-0.312,1.362,0.389,1.49
			c0.575,0.105,0.756-0.745,1.063-1.206c0.356-0.535,0.612-1.174,1.238-1.441c0.601-0.255,1.321-0.415,1.837,0.047
			c0.568,0.509,0.085,1.137-0.253,1.517c-1.728,1.95-1.46,3.794,0.053,5.721c0.369,0.47,1.175,1.223,0.218,1.803
			c-0.775,0.47-1.681,0.289-2.338-0.447c-0.236-0.264-0.372-0.615-0.597-0.891c-0.384-0.472-0.512-1.427-1.243-1.265
			c-0.645,0.143-0.305,0.996-0.366,1.528c-0.102,0.896-0.578,1.252-1.429,1.228c-0.856-0.024-1.285-0.426-1.357-1.314
			c-0.049-0.604,0.324-1.608-0.324-1.729c-0.749-0.14-0.876,0.958-1.278,1.509C123.323,60.194,122.934,61.115,122.354,61.058z"/>
		<path class="st0" d="M104.234,21.527c-0.156,0.303-0.312,0.801-0.621,1.171c-1.372,1.647-1.517,3.21-0.099,4.973
			c0.431,0.536,1.716,1.487,0.371,2.258c-1.057,0.607-2.065,0.027-2.647-1.094c-0.164-0.316-0.347-0.63-0.568-0.908
			c-0.288-0.361-0.354-1.114-0.958-0.947c-0.42,0.116-0.238,0.751-0.244,1.156c-0.012,0.986-0.051,1.92-1.4,1.925
			c-1.349,0.005-1.394-0.921-1.412-1.912c-0.007-0.404-0.066-1.114-0.232-1.154c-0.635-0.155-0.679,0.561-0.96,0.921
			c-0.676,0.866-0.935,2.182-2.393,2.182c-1.062,0-1.755-0.275-1.056-1.511c0.211-0.373,0.383-0.783,0.657-1.104
			c1.311-1.536,1.326-2.997,0.013-4.584c-0.452-0.547-1.471-1.441-0.38-2.118c0.919-0.57,1.941-0.103,2.531,0.921
			c0.071,0.124,0.151,0.244,0.239,0.356c0.391,0.494,0.551,1.501,1.148,1.418c0.771-0.108,0.376-1.063,0.458-1.642
			c0.127-0.905,0.642-1.206,1.468-1.188c0.892,0.02,1.231,0.52,1.311,1.361c0.05,0.524-0.29,1.366,0.4,1.49
			c0.574,0.103,0.755-0.752,1.048-1.217c0.588-0.935,1.161-1.843,2.484-1.654C103.832,20.69,104.266,20.755,104.234,21.527z"/>
		<path class="st0" d="M91.612,56.286c0.022-5.454-0.439-4.715,4.841-4.754c3.427-0.026,4.141,0.926,2.858,4.028
			c-0.323,0.781,0.01,1.146,0.217,1.718c0.93,2.569,0.107,3.739-2.603,3.774c-0.142,0.002-0.285,0.002-0.427,0.002
			C91.08,61.042,91.656,61.478,91.612,56.286z M95.676,54.964c0.298-0.047,0.704-0.067,0.745-0.494
			c0.043-0.442-0.322-0.547-0.684-0.544c-0.344,0.003-0.753,0.023-0.79,0.463C94.911,54.817,95.268,54.929,95.676,54.964z
			 M95.692,57.391c-0.373-0.004-0.746,0.06-0.77,0.509c-0.017,0.319,0.275,0.471,0.568,0.513c0.357,0.051,0.769,0.052,0.85-0.383
			C96.421,57.599,96.073,57.441,95.692,57.391z"/>
		<path class="st0" d="M195.27,40.864c0.001,0.999,0.011,1.998-0.002,2.997c-0.013,0.975-0.359,1.673-1.485,1.672
			c-1.134-0.001-1.442-0.724-1.479-1.686c-0.011-0.285,0.009-0.575-0.035-0.855c-0.053-0.338-0.07-0.885-0.258-0.961
			c-0.559-0.228-0.627,0.41-0.861,0.715c-0.932,1.216-1.267,3.502-3.476,2.656c-1.835-0.703-0.787-2.632-0.96-4.008
			c-0.15-1.193-0.034-2.422-0.012-3.635c0.018-0.951,0.29-1.681,1.459-1.675c1.121,0.005,1.443,0.637,1.528,1.631
			c0.058,0.672-0.331,1.804,0.331,1.918c0.778,0.134,0.886-1.099,1.354-1.686c0.353-0.444,0.586-0.99,0.965-1.406
			c0.544-0.596,1.297-0.53,2.004-0.384c0.799,0.165,0.901,0.841,0.918,1.497C195.29,38.722,195.269,39.793,195.27,40.864z"/>
		<path class="st0" d="M89.927,56.263c-0.02,5.221,0.501,4.769-4.883,4.795c-3.233,0.016-3.233,0.001-3.278-3.159
			c-0.003-0.214-0.004-0.428-0.001-0.642c0.089-6.662-0.876-5.618,6.064-5.741c1.599-0.028,2.195,0.661,2.107,2.179
			C89.887,54.548,89.927,55.407,89.927,56.263z M84.724,56.25c0.236,0.722-0.304,2.069,1.062,2.07
			c1.484,0.001,1.088-1.384,1.103-2.284c0.014-0.845,0.276-2.11-1.124-2.039C84.377,54.066,84.94,55.357,84.724,56.25z"/>
		<path class="st0" d="M101.467,56.285c0.03-5.407-0.506-4.714,4.859-4.75c3.082-0.021,3.083,0.001,3.275,3.123
			c0.013,0.214,0.025,0.428,0.024,0.642c-0.03,7.089,0.436,5.53-5.597,5.776c-1.949,0.079-2.768-0.717-2.573-2.65
			C101.525,57.718,101.466,56.998,101.467,56.285z M106.65,56.249c-0.216-0.848,0.437-2.163-1.133-2.301
			c-1.128-0.099-1.284,0.733-1.095,1.57c0.225,0.995-0.529,2.598,1.099,2.797C106.927,58.485,106.471,57.084,106.65,56.249z"/>
		<path class="st0" d="M72.144,40.729c0-1.072-0.006-2.144,0.002-3.215c0.006-0.827,0.344-1.36,1.253-1.399
			c0.994-0.043,1.455,0.464,1.474,1.41c0.028,1.357,0.014,2.716,0.052,4.072c0.018,0.627-0.05,1.416,0.844,1.483
			c0.949,0.072,1.187-0.659,1.215-1.423c0.047-1.285,0.026-2.572,0.054-3.858c0.02-0.933,0.228-1.704,1.418-1.716
			c1.123-0.011,1.491,0.608,1.539,1.609c0.107,2.245-0.129,4.468,0.841,6.69c0.699,1.603-0.759,2.837-2.203,1.957
			c-1.295-0.789-2.579-0.814-3.895-0.715c-2.107,0.157-2.864-0.743-2.63-2.753c0.082-0.705,0.013-1.428,0.013-2.142
			C72.128,40.729,72.136,40.729,72.144,40.729z"/>
		<path class="st0" d="M80.481,25.224c0,1.146,0.011,2.293-0.003,3.439c-0.012,0.964-0.503,1.451-1.485,1.4
			c-0.889-0.046-1.192-0.558-1.277-1.4c-0.088-0.873,0.466-2.231-0.383-2.477c-0.577-0.167-1.004,1.372-1.53,2.126
			c-0.364,0.522-0.662,1.161-1.158,1.508c-1.077,0.754-2.427,0.138-2.477-1.147c-0.086-2.218-0.023-4.441-0.016-6.662
			c0.003-0.854,0.402-1.327,1.298-1.355c1.022-0.032,1.35,0.532,1.451,1.454c0.089,0.816-0.416,2.109,0.305,2.316
			c0.584,0.168,0.871-1.276,1.387-1.94c0.35-0.45,0.598-0.987,0.981-1.402c0.55-0.595,1.302-0.531,2.014-0.38
			c0.813,0.172,0.882,0.854,0.897,1.512c0.022,1.003,0.006,2.006,0.006,3.009C80.487,25.224,80.484,25.224,80.481,25.224z"/>
		<path class="st0" d="M175.528,25.364c0,1.145,0.022,2.291-0.007,3.436c-0.023,0.88-0.548,1.265-1.402,1.255
			c-0.873-0.01-1.258-0.445-1.34-1.319c-0.084-0.892,0.321-2.472-0.302-2.522c-0.855-0.068-1.188,1.387-1.672,2.228
			c-0.611,1.062-1.276,1.978-2.682,1.575c-1.403-0.402-0.888-1.628-0.927-2.539c-0.074-1.715-0.01-3.436-0.013-5.154
			c-0.002-0.968,0.23-1.703,1.42-1.676c1.051,0.024,1.303,0.684,1.349,1.562c0.041,0.773,0.109,1.545,0.166,2.318
			c0.904-0.332,1.006-1.29,1.504-1.938c0.304-0.395,0.52-0.858,0.818-1.259c0.542-0.727,1.316-0.805,2.129-0.646
			c0.935,0.183,0.961,0.944,0.974,1.671c0.019,1.002,0.005,2.005,0.005,3.007C175.54,25.364,175.534,25.364,175.528,25.364z"/>
		<path class="st0" d="M215.148,40.824c0,1.074-0.008,2.149,0.002,3.223c0.009,0.961-0.424,1.479-1.413,1.474
			c-0.884-0.004-1.239-0.484-1.348-1.331c-0.113-0.878,0.436-2.257-0.385-2.492c-0.593-0.169-0.923,1.411-1.476,2.141
			c-0.344,0.454-0.61,1.009-1.045,1.344c-1.132,0.869-2.6,0.304-2.656-1.061c-0.092-2.216-0.03-4.44-0.013-6.66
			c0.006-0.846,0.426-1.323,1.317-1.348c1.009-0.027,1.376,0.5,1.442,1.446c0.058,0.833-0.26,2.336,0.207,2.365
			c0.919,0.058,1.052-1.299,1.599-2.004c0.262-0.338,0.463-0.724,0.704-1.079c0.522-0.767,1.286-0.836,2.103-0.69
			c0.96,0.171,0.95,0.941,0.963,1.663c0.019,1.003,0.005,2.006,0.005,3.008C215.153,40.824,215.151,40.824,215.148,40.824z"/>
		<path class="st0" d="M152.332,56.404c0,0.999,0.005,1.999-0.001,2.998c-0.006,0.877-0.255,1.555-1.309,1.572
			c-0.952,0.016-1.463-0.39-1.476-1.392c-0.006-0.469,0.096-1.105-0.576-1.211c-0.602-0.095-0.81,0.483-1.08,0.888
			c-0.469,0.704-0.8,1.547-1.787,1.709c-0.573,0.094-1.198,0.191-1.632-0.241c-0.467-0.464-0.018-0.933,0.235-1.333
			c0.825-1.304-0.433-2.368-0.373-3.649c0.21-4.509-0.437-4.21,4.145-4.214C152.967,51.526,152.286,51.271,152.332,56.404z
			 M148.22,53.904c-0.356,0.031-0.877,0.096-0.922,0.765c-0.049,0.735,0.408,1.025,1.07,1.034c0.665,0.009,1.13-0.273,1.087-1.009
			C149.418,54.045,148.933,53.913,148.22,53.904z"/>
		<path class="st0" d="M130.886,40.882c-0.071,5.041,0.817,4.696-4.693,4.714c-0.215,0.001-0.431,0.019-0.644-0.004
			c-0.88-0.093-1.966,0.299-2.442-0.832c-0.25-0.595-0.303-1.353,0.208-1.823c0.798-0.735,1.692-0.482,2.565,0.003
			c0.692,0.384,1.598,0.419,1.869-0.324c0.313-0.857-0.659-0.661-1.145-0.772c-0.555-0.127-0.912-0.385-0.927-0.99
			c-0.017-0.674,0.338-1.034,0.96-1.236c0.469-0.152,1.407-0.011,1.077-0.867c-0.221-0.573-1.006-0.336-1.552-0.175
			c-0.54,0.16-1.053,0.462-1.6,0.532c-0.914,0.118-1.523-0.278-1.565-1.294c-0.036-0.868,0.134-1.66,1.176-1.689
			c1.857-0.053,3.718-0.036,5.575,0.018c0.927,0.027,1.127,0.744,1.134,1.52C130.894,38.735,130.886,39.809,130.886,40.882z"/>
		<path class="st0" d="M119.163,56.366c-0.003,0.714,0.016,1.428-0.007,2.142c-0.035,1.118,0.209,2.493-1.55,2.456
			c-1.797-0.038-1.349-1.497-1.435-2.553c-0.063-0.78,0.026-1.572-0.027-2.354c-0.045-0.669,0.27-1.775-0.577-1.833
			c-1.014-0.069-0.813,1.139-0.975,1.835c-0.242,1.039-0.367,2.107-0.509,3.167c-0.11,0.82-0.279,1.579-1.265,1.734
			c-0.709,0.111-1.506,0.258-1.998-0.38c-0.586-0.759-0.064-1.425,0.352-2.13c0.861-1.459,0.78-3.164,0.954-4.771
			c0.174-1.615,0.875-2.203,2.479-2.174C119.776,51.597,119.107,51.031,119.163,56.366z"/>
		<path class="st0" d="M198.519,36.095c1.161-0.041,1.399,0.716,1.466,1.671c0.033,0.47-0.142,1.152,0.454,1.308
			c0.728,0.191,0.851-0.608,1.169-1.03c0.626-0.829,0.937-1.983,2.303-1.972c1.071,0.009,1.789,0.2,1.036,1.466
			c-0.11,0.184-0.203,0.386-0.345,0.542c-1.53,1.67-1.619,3.301-0.097,5.087c0.464,0.544,1.462,1.487,0.503,2.167
			c-0.938,0.665-2.064,0.244-2.762-0.81c-0.118-0.179-0.215-0.376-0.355-0.536c-0.498-0.567-0.613-1.783-1.441-1.649
			c-0.776,0.126-0.38,1.218-0.489,1.88c-0.137,0.833-0.547,1.287-1.404,1.311c-0.959,0.027-1.506-0.435-1.52-1.391
			c-0.032-2.215-0.039-4.431-0.019-6.646C197.027,36.553,197.525,36.036,198.519,36.095z"/>
		<path class="st0" d="M122.751,25.388c-0.003,1.002-0.027,2.004,0.004,3.005c0.029,0.968-0.131,1.723-1.349,1.699
			c-1.136-0.022-1.465-0.694-1.452-1.689c0.004-0.286-0.017-0.572-0.038-0.858c-0.048-0.64-0.287-1.103-1.027-1.113
			c-0.794-0.01-1.184,0.415-1.25,1.166c-0.037,0.427-0.041,0.858-0.033,1.287c0.015,0.804-0.387,1.18-1.17,1.201
			c-0.788,0.022-1.534-0.161-1.556-1.077c-0.058-2.429-0.046-4.862,0.001-7.291c0.015-0.772,0.583-1.078,1.335-1.072
			c0.881,0.008,1.28,0.446,1.349,1.311c0.054,0.679-0.213,1.596,0.635,1.895c1.419,0.5,1.745-0.428,1.758-1.596
			c0.011-0.995,0.364-1.647,1.503-1.636c1.251,0.012,1.308,0.839,1.297,1.76C122.745,23.384,122.755,24.386,122.751,25.388z"/>
		<path class="st0" d="M91.464,40.853c0-0.929-0.007-1.858,0.002-2.787c0.009-0.956-0.015-1.936,1.362-1.949
			c1.183-0.011,1.376,0.761,1.428,1.706c0.023,0.416,0.091,0.864,0.278,1.226c0.22,0.428,0.703,0.452,1.139,0.364
			c0.81-0.163,0.923-0.808,0.934-1.476c0.016-1.016,0.161-1.903,1.496-1.82c1.368,0.085,1.276,1.126,1.288,2.045
			c0.025,1.857,0.005,3.716,0.004,5.573c-0.001,0.949-0.232,1.714-1.381,1.771c-1.202,0.06-1.375-0.699-1.416-1.663
			c-0.034-0.8,0.225-1.874-1.091-1.934c-1.491-0.068-1.217,1.105-1.256,1.976c-0.044,0.985-0.321,1.664-1.466,1.675
			c-1.218,0.012-1.37-0.74-1.34-1.705c0.031-0.999,0.007-2.001,0.007-3.001C91.456,40.853,91.46,40.853,91.464,40.853z"/>
		<path class="st0" d="M82.461,25.296c0-1.144-0.017-2.288,0.006-3.431c0.016-0.762,0.438-1.168,1.207-1.215
			c0.838-0.051,1.389,0.264,1.492,1.151c0.041,0.355,0.051,0.713,0.082,1.069c0.067,0.78,0.5,1.149,1.277,1.11
			c0.715-0.036,0.976-0.494,1.026-1.135c0.022-0.285,0.041-0.571,0.048-0.856c0.021-0.852,0.406-1.327,1.304-1.34
			c0.866-0.012,1.395,0.389,1.409,1.249c0.037,2.286,0.042,4.574,0.011,6.86c-0.013,0.977-0.627,1.359-1.57,1.325
			c-0.946-0.034-1.208-0.591-1.183-1.42c0.011-0.357-0.001-0.715-0.019-1.072c-0.039-0.774-0.438-1.173-1.229-1.161
			c-0.713,0.011-1.018,0.424-1.074,1.079c-0.042,0.498-0.04,1.001-0.104,1.496c-0.102,0.786-0.632,1.067-1.364,1.05
			c-0.733-0.017-1.274-0.32-1.298-1.116c-0.037-1.214-0.01-2.429-0.01-3.644C82.468,25.296,82.464,25.296,82.461,25.296z"/>
		<path class="st0" d="M143.581,25.278c0-1.071-0.01-2.143,0.003-3.214c0.012-0.953,0.477-1.443,1.466-1.415
			c0.908,0.025,1.222,0.534,1.286,1.368c0.061,0.8-0.213,1.879,1.083,1.955c1.451,0.085,1.258-1.059,1.309-1.952
			c0.056-0.979,0.541-1.416,1.509-1.367c0.91,0.046,1.24,0.6,1.243,1.417c0.008,2.214,0.005,4.428-0.004,6.642
			c-0.004,0.856-0.429,1.328-1.309,1.344c-0.843,0.016-1.365-0.34-1.417-1.232c-0.025-0.428-0.038-0.856-0.062-1.284
			c-0.037-0.651-0.306-1.094-1.029-1.107c-0.772-0.014-1.203,0.367-1.274,1.135c-0.033,0.355-0.048,0.713-0.046,1.07
			c0.004,0.978-0.477,1.44-1.45,1.422c-1.044-0.02-1.317-0.682-1.321-1.567c-0.005-1.071-0.001-2.143-0.001-3.214
			C143.572,25.278,143.576,25.278,143.581,25.278z"/>
		<path class="st0" d="M169.464,40.705c-0.022-5.304-0.337-4.595,4.523-4.648c0.285-0.003,0.575-0.033,0.856,0.006
			c0.908,0.124,2.278-0.388,2.343,1.122c0.067,1.582-1.325,1.093-2.23,1.204c-0.423,0.052-0.856,0.019-1.283,0.035
			c-0.366,0.014-0.785,0.075-0.834,0.49c-0.052,0.445,0.373,0.551,0.725,0.613c0.776,0.137,1.364,0.442,1.347,1.358
			c-0.019,1.063-0.812,0.98-1.522,1.04c-0.385,0.033-0.717,0.214-0.716,0.637c0.002,0.567,0.461,0.67,0.9,0.685
			c0.784,0.026,1.57,0.008,2.355,0.012c0.69,0.003,1.3,0.105,1.34,0.997c0.036,0.793-0.36,1.247-1.117,1.264
			c-1.782,0.04-3.567,0.051-5.348,0.007c-0.986-0.024-1.318-0.733-1.334-1.611C169.449,42.847,169.464,41.776,169.464,40.705z"/>
		<path class="st0" d="M140.767,40.844c-0.003,1.001-0.017,2.002,0.001,3.003c0.018,0.997-0.285,1.684-1.436,1.667
			c-1.029-0.015-1.343-0.633-1.343-1.543c0-0.357-0.029-0.714-0.06-1.07c-0.06-0.693-0.463-1.001-1.141-0.999
			c-0.674,0.002-1.089,0.299-1.141,0.998c-0.037,0.499-0.041,1-0.072,1.499c-0.049,0.801-0.543,1.111-1.282,1.13
			c-0.721,0.018-1.362-0.228-1.381-1.016c-0.058-2.428-0.051-4.857-0.022-7.286c0.009-0.788,0.567-1.098,1.307-1.102
			c0.717-0.004,1.274,0.212,1.356,1.037c0.028,0.284,0.051,0.57,0.056,0.855c0.014,0.79,0.192,1.434,1.172,1.438
			c0.977,0.004,1.163-0.64,1.189-1.428c0.031-0.964,0.055-1.937,1.422-1.912c1.541,0.028,1.345,1.173,1.372,2.155
			C140.788,39.128,140.77,39.986,140.767,40.844z"/>
		<path class="st0" d="M80.037,56.466c0,1.072,0.012,2.144-0.004,3.215c-0.013,0.882-0.509,1.285-1.367,1.282
			c-0.848-0.003-1.35-0.377-1.359-1.277c-0.005-0.5,0.086-1.03-0.048-1.494c-0.406-1.414,1.096-4.029-1.11-4.075
			c-2.344-0.049-0.81,2.59-1.226,3.978c-0.118,0.395-0.027,0.852-0.035,1.281c-0.015,0.864-0.222,1.575-1.28,1.611
			c-1.125,0.038-1.491-0.595-1.483-1.618c0.016-2.001,0.032-4.002-0.008-6.002c-0.025-1.244,0.468-1.885,1.756-1.829
			c0.428,0.019,0.857-0.016,1.286-0.012C80.713,51.58,79.998,50.922,80.037,56.466z"/>
		<path class="st0" d="M142.712,40.649c0.029-5.081-0.585-4.608,4.594-4.551c1.096,0.012,3.057-0.817,3.049,1.18
			c-0.007,1.811-1.88,0.858-2.933,1.119c-0.566,0.14-1.48-0.322-1.593,0.583c-0.08,0.64,0.735,0.506,1.183,0.621
			c0.64,0.166,0.998,0.498,0.971,1.196c-0.027,0.713-0.432,0.992-1.085,1.08c-0.487,0.065-1.157,0.119-1.073,0.77
			c0.079,0.607,0.742,0.544,1.24,0.559c0.787,0.024,1.574,0.049,2.361,0.064c0.695,0.014,1.063,0.353,1.073,1.053
			c0.009,0.664-0.298,1.175-0.97,1.188c-1.929,0.039-3.861,0.037-5.789-0.035c-0.787-0.029-1.023-0.679-1.026-1.392
			C142.709,42.939,142.712,41.794,142.712,40.649z"/>
		<path class="st0" d="M105.774,25.226c0.022-5.138-0.498-4.656,4.577-4.6c1.107,0.012,3.095-0.769,3.091,1.145
			c-0.004,1.947-2.002,0.836-3.095,1.141c-0.514,0.143-1.335-0.179-1.433,0.565c-0.089,0.674,0.696,0.561,1.143,0.658
			c0.778,0.169,1.054,0.64,1.017,1.391c-0.038,0.772-0.535,0.895-1.168,0.94c-0.498,0.035-1.129,0.124-1.005,0.815
			c0.118,0.653,0.78,0.488,1.252,0.515c0.786,0.044,1.575,0.03,2.362,0.069c0.682,0.034,1.04,0.413,1.038,1.104
			c-0.002,0.59-0.33,1.02-0.878,1.036c-1.929,0.057-3.863,0.086-5.791,0.019c-0.904-0.031-1.09-0.814-1.105-1.575
			C105.758,27.376,105.774,26.301,105.774,25.226z"/>
		<path class="st0" d="M82.428,40.768c0.089-5.187-0.718-4.671,4.69-4.712c0.286-0.002,0.574-0.019,0.858,0.006
			c0.876,0.079,2.068-0.239,2.111,1.164c0.045,1.488-1.194,1.075-2.045,1.16c-0.425,0.043-0.86-0.013-1.286,0.024
			c-0.461,0.04-1.144-0.147-1.182,0.561c-0.03,0.557,0.584,0.523,0.984,0.588c0.74,0.12,1.174,0.48,1.151,1.274
			c-0.024,0.834-0.526,1.094-1.274,1.094c-0.423,0-0.993-0.022-0.965,0.551c0.03,0.609,0.638,0.722,1.139,0.746
			c0.784,0.038,1.572,0.022,2.357-0.006c0.675-0.025,1.107,0.164,1.113,0.937c0.006,0.712-0.125,1.35-0.979,1.367
			c-1.856,0.036-3.715,0.034-5.571-0.011c-0.78-0.019-1.1-0.57-1.102-1.313C82.424,43.055,82.426,41.911,82.428,40.768z"/>
		<path class="st0" d="M124.672,25.294c0.02-5.227-0.569-4.675,4.687-4.707c0.071,0,0.146-0.013,0.214,0.002
			c1.009,0.213,2.717-0.602,2.782,1.078c0.076,1.96-1.76,1.005-2.79,1.237c-0.411,0.093-0.853,0.04-1.28,0.071
			c-0.315,0.023-0.563,0.2-0.54,0.52c0.012,0.16,0.211,0.387,0.374,0.443c0.831,0.286,1.953,0.17,1.86,1.576
			c-0.083,1.262-1.165,0.742-1.775,1.066c-0.222,0.118-0.494,0.364-0.522,0.58c-0.06,0.454,0.344,0.589,0.708,0.607
			c0.927,0.045,1.857,0.04,2.784,0.072c0.719,0.025,1.273,0.281,1.272,1.116c-0.001,0.833-0.576,1.115-1.275,1.13
			c-1.642,0.035-3.285,0.021-4.928,0.019c-1.057-0.001-1.569-0.549-1.57-1.595C124.672,27.437,124.672,26.366,124.672,25.294z"/>
		<path class="st0" d="M133.722,25.216c0.011-5.019-0.654-4.637,4.546-4.609c1.078,0.006,2.654-0.566,3.103,0.696
			c0.615,1.728,0.543,3.716,0.022,5.487c-0.261,0.888-1.537,0.431-2.353,0.443c-1.349,0.021-2.642-0.075-2.645,1.878
			c-0.001,0.832-0.73,0.959-1.419,0.941c-0.764-0.02-1.221-0.431-1.245-1.188C133.694,27.649,133.722,26.432,133.722,25.216z
			 M137.738,24.863c0.678-0.048,1.07-0.372,1.01-1.091c-0.053-0.638-0.489-0.814-1.049-0.806c-0.658,0.009-1.134,0.279-1.138,0.991
			C136.557,24.718,137.103,24.871,137.738,24.863z"/>
		<path class="st0" d="M109.508,40.874c-0.013-5.556-0.494-4.763,4.779-4.794c1.052-0.006,2.623-0.578,2.983,0.89
			c0.416,1.696,0.6,3.588-0.187,5.246c-0.41,0.865-1.56,0.488-2.383,0.487c-1.305-0.002-2.453,0.003-2.474,1.809
			c-0.011,0.921-0.803,1.06-1.578,1.034c-0.959-0.032-1.158-0.643-1.144-1.455C109.522,43.02,109.508,41.947,109.508,40.874z
			 M113.61,40.329c0.577-0.021,0.992-0.28,0.978-0.886c-0.019-0.84-0.598-1.048-1.324-0.993c-0.607,0.046-0.892,0.401-0.854,0.991
			C112.458,40.194,112.989,40.334,113.61,40.329z"/>
		<path class="st0" d="M155.811,36.055c0.57,0.002,1.142,0.035,1.709-0.005c1.515-0.105,2.304,0.497,2.156,2.096
			c-0.033,0.353,0,0.712-0.003,1.068c-0.025,3.226,0.355,3.687-3.273,3.508c-1.211-0.06-1.884,0.386-1.922,1.68
			c-0.028,0.933-0.708,1.147-1.499,1.11c-0.885-0.041-1.241-0.571-1.242-1.407c-0.002-1.994,0.054-3.991-0.031-5.982
			c-0.068-1.617,0.678-2.182,2.182-2.078C154.526,36.09,155.17,36.053,155.811,36.055z M156.799,39.508
			c0.029-0.751-0.349-1.059-1.014-1.073c-0.608-0.013-1.135,0.122-1.183,0.86c-0.045,0.699,0.354,1.012,1.014,1.031
			C156.228,40.344,156.727,40.189,156.799,39.508z"/>
		<path class="st0" d="M134.572,56.17c0-1.001-0.011-2.003,0.003-3.003c0.013-0.868,0.254-1.549,1.313-1.585
			c1.001-0.034,1.505,0.452,1.429,1.412c-0.137,1.738,0.844,1.978,2.268,1.96c0.921-0.012,2.277-0.507,2.64,0.736
			c0.454,1.56,0.466,3.254-0.094,4.838c-0.093,0.263-0.719,0.402-1.121,0.475c-0.487,0.089-0.997,0.064-1.498,0.059
			C133.764,61.002,134.643,61.577,134.572,56.17z M138.371,57.294c-0.35,0.052-0.84,0.069-0.87,0.618
			c-0.032,0.572,0.423,0.655,0.869,0.625c0.486-0.032,1.1-0.048,1.065-0.713C139.408,57.302,138.863,57.312,138.371,57.294z"/>
		<path class="st0" d="M153.448,25.344c0-1.068,0.003-2.136-0.001-3.204c-0.003-0.924,0.353-1.493,1.373-1.489
			c0.867,0.004,1.422,0.413,1.351,1.272c-0.17,2.054,1.101,2.077,2.592,2.067c2.481-0.017,2.548,0.117,2.542,3.186
			c-0.005,2.713-0.179,2.906-2.65,2.952c-0.142,0.003-0.285,0.002-0.427,0.002C152.711,30.099,153.495,30.61,153.448,25.344z
			 M158.097,27.024c-0.09-0.546-0.485-0.646-0.946-0.635c-0.394,0.01-0.741,0.177-0.741,0.592c0,0.67,0.496,0.801,1.043,0.739
			C157.836,27.676,158.113,27.47,158.097,27.024z"/>
		<path class="st0" d="M181.761,36.088c0.931,0.003,1.862-0.019,2.791,0.01c0.646,0.02,1.096,0.34,1.135,1.038
			c0.037,0.657-0.245,1.168-0.936,1.203c-1.421,0.072-1.522,1.009-1.514,2.092c0.008,1.217-0.015,2.434-0.048,3.651
			c-0.026,0.942-0.501,1.449-1.478,1.448c-1.005-0.001-1.406-0.588-1.436-1.494c-0.038-1.145-0.057-2.291-0.043-3.436
			c0.014-1.147-0.041-2.176-1.577-2.271c-0.703-0.044-0.928-0.597-0.865-1.244c0.068-0.698,0.539-0.979,1.18-0.994
			C179.899,36.07,180.83,36.086,181.761,36.088z"/>
		<path class="st0" d="M108.33,37.282c-0.014,0.47-0.202,0.964-0.662,0.979c-2.138,0.069-1.784,1.607-1.807,2.934
			c-0.017,1.002-0.007,2.005-0.037,3.007c-0.026,0.849-0.45,1.329-1.342,1.315c-0.849-0.013-1.358-0.396-1.374-1.286
			c-0.021-1.146-0.027-2.291-0.033-3.437c-0.006-1.232,0.171-2.559-1.756-2.453c-0.632,0.035-0.819-0.481-0.797-1.042
			c0.021-0.537,0.187-1.047,0.792-1.113c2.068-0.225,4.144-0.222,6.211-0.006C108.089,36.239,108.337,36.712,108.33,37.282z"/>
		<path class="st0" d="M161.618,40.657c0.058-5.003-0.82-4.599,4.786-4.584c0.87,0.002,2.087-0.272,2.141,1.122
			c0.056,1.448-1.191,1.245-2.043,1.171c-1.826-0.159-2.216,0.78-2.129,2.33c0.065,1.141,0.003,2.29-0.013,3.436
			c-0.014,0.983-0.541,1.424-1.504,1.379c-0.904-0.042-1.239-0.583-1.238-1.417C161.618,42.948,161.618,41.802,161.618,40.657z"/>
		<path class="st0" d="M165.23,25.395c0,1.069,0.002,2.137-0.001,3.206c-0.003,0.944-0.438,1.469-1.425,1.455
			c-0.871-0.012-1.316-0.455-1.317-1.321c-0.004-2.28-0.01-4.56,0.01-6.839c0.008-0.884,0.531-1.252,1.385-1.244
			c0.887,0.009,1.31,0.485,1.328,1.324c0.025,1.139,0.006,2.279,0.006,3.419C165.222,25.394,165.226,25.394,165.23,25.395z"/>
		<path class="st0" d="M171.294,18.339c0.731,0.188,1.983-0.327,1.971,0.948c-0.013,1.374-1.311,0.969-2.138,0.993
			c-0.778,0.023-1.969,0.277-1.882-1.021C169.326,18.023,170.516,18.497,171.294,18.339z"/>
	</g>
</g>
</svg>