<!-- Generator: Adobe Illustrator 19.2.1, SVG Export Plug-In  -->
<svg version="1.1"
	 xmlns="http://www.w3.org/2000/svg" xmlns:xlink="http://www.w3.org/1999/xlink" xmlns:a="http://ns.adobe.com/AdobeSVGViewerExtensions/3.0/"
	 x="0px" y="0px" width="127.266px" height="210.104px" viewBox="0 0 127.266 210.104"
	 style="enable-background:new 0 0 127.266 210.104;" xml:space="preserve">
<style type="text/css">
	.st0{fill:#EBECEC;}
</style>
<defs>
</defs>
<path class="st0" d="M127.077,206.099l-0.27-1.522l-0.786-2.687l-1.315-3.253l-0.858-2.229l-0.653-2.28l-0.625-2.458l-0.544-2.587
	l-0.686-2.897l-0.315-0.997l-0.611-1.526l-0.093-1.688l-0.705-2.712l-0.694-1.427l-0.162-1.564l-0.169-0.971l-0.67-2.711
	l-0.616-1.612l-0.732-1.385l-0.193-1.517l-0.348-1.464l-0.727-2.059l-0.365-2.157l-0.605-2.977l-0.33-1.127l-0.706-1.831
	l-0.26-1.952l-0.347-1.439l-0.758-2.132l-0.429-2.221l-0.597-1.778l-1.089-2.219l-0.406-1.105l-0.004-1.636l-0.805-3.259
	l-0.951-1.824l-0.347-1.316l-0.175-2.199l-0.802-2.752l-0.706-1.334l-0.164-1.47l-0.231-1.165l-0.654-2.257l0.154,0.082l2.606,1.308
	l2.827,1.12l1.792,0.94l2.065,1.326l1.317,0.664l2.59,0.981l5.023-13.254l-1.896-0.719l-1.703-1.093l-2.972-1.59l-3.009-1.206
	l-2.08-1.042l-2.363-1.251l-2.68-1.206l-2.138-1.182l-2.69-1.224l-2.01-1.196l-0.023-0.011l-0.816-3.068l-0.525-2.511l-1.05-3.381
	l-0.78-1.938l-0.051-1.567l-0.288-1.783l-0.791-2.67l-0.402-1.047l-0.651-1.36l-0.117-1.509l-0.335-1.669l-0.77-2.335l-0.548-2.396
	l-0.054-0.165l1.956-1.214l1.858-0.909l2.285-0.865l1.533-0.807l1.745-1.213l1.916-0.858l5.191-2.68l2.108-1.018l2.319-0.898
	l1.096-0.537l1.906-1.146l2.059-0.843l1.204-0.635l1.942-1.276l2.074-1.005l-6.182-12.754l-2.488,1.206l-0.799,0.453l-1.756,1.153
	l-1.929,0.789l-0.969,0.487l-1.848,1.111l-2.014,0.78l-3.004,1.425l-4.869,2.524l-2.359,1.058l-1.145,0.646l-1.57,1.091
	l-1.775,0.673l-2.824,1.349l-0.068-0.921l-0.147-1.002l-0.602-2.722l-1.115-3.4l-1.056-2.659l-0.505-1.676l-0.188-2.096
	l-0.159-0.986l-0.636-2.712l-0.772-1.944l-0.654-1.126l-0.111-1.245l-0.173-1.047l-0.658-2.702l-0.282-0.896l-0.766-1.965
	l-0.337-1.872l1.903-1.088l2.14-1.067l2.357-1.077l2.556-1.268l2.381-1.107l2.65-1.529l4.547-2.05l2.905-1.555l-6.775-12.449
	l-2.144,1.167l-4.781,2.159l-2.699,1.555l-2.144,0.997l-2.495,1.238l-2.362,1.079l-1.992,0.991l-0.21-0.754l-0.782-2.139
	l-0.461-2.225l-0.831-2.696l-0.218-2.066L72.97,8.552l-0.737-2.686L71.309,3.03l-0.81-2.888L56.894,0l-0.919,3.032l-0.293,1.656
	l-0.117,2.079l-0.448,1.587l-0.904,2.272l-0.396,1.4l-0.328,1.883l-0.794,1.76l-0.553,1.896l-0.323,2.224l-1.547-0.9l-2.834-1.363
	l-2.23-1.197l-2.7-1.196l-2.062-1.152l-2.86-1.332l-2.307-1.161l-2.66-1.239l-5.971,12.854l2.359,1.096l2.326,1.171l2.447,1.124
	l2.123,1.187l2.863,1.279l2.132,1.145l2.513,1.193l2.082,1.212l2.223,1.022l-0.535,1.558l-0.279,1.091l-0.407,2.351l-0.675,2.277
	l-0.584,2.77l-0.789,2.046l-0.279,0.897l-0.65,2.711l-0.473,2.8l-0.678,2.185l-0.639,2.735l-1.851,4.796l-0.895,2.627l-1.684-0.866
	l-4.989-2.326l-2.235-1.227l-2.568-1.2l-1.997-1.223l-2.968-1.523l-0.846-0.36l-1.79-0.628l-1.577-1.042l-1.392-0.714l-2.067-0.786
	l-1.914-1.092l-2.853-1.419l-6.26,12.717l2.278,1.121l2.206,1.258l0.992,0.468l1.846,0.702l1.655,1.094l1.563,0.777l2.186,0.767
	l1.788,0.901l2.105,1.289l3.015,1.441l2.198,1.206l5.322,2.496l4.457,2.292l-0.08,0.523l-0.615,2.334L34.26,83.74l-0.829,1.888
	l-0.404,1.205l-0.624,2.617l-0.655,2.448l-0.792,2.512l-1.612,5.489l-0.657,3.544l-0.309,2.187l-0.072,0.039l-2.398,1.359
	l-2.293,1.136l-2.394,1.266l-2.295,1.021l-2.667,1.41l-2.28,1.012l-2.65,1.25l-0.742,0.406l-2.084,1.311l-1.853,0.947l-2.243,0.865
	l5.098,13.225l2.592-0.999l3.142-1.563l2.53-1.559l2.036-0.962l2.447-1.086l0.615-0.325l-0.714,1.886l-0.421,1.849l-0.215,2.381
	l-0.333,1.521l-0.86,1.844l-0.445,1.247l-0.688,2.697l-0.172,0.927l-0.227,1.941l-0.678,1.812l-0.293,1.003l-0.446,2.092
	l-0.826,1.994l-0.503,1.998l-0.206,2.036l-0.467,1.413l-1.044,2.069l-0.584,1.625l-0.616,2.719l-0.436,2.435l-0.753,1.984
	l-1.546,6.222l-0.531,3.02l-0.522,2.124l-0.807,2.315l-0.243,0.876l-0.349,1.66l-0.871,1.55l-0.896,3.035l-0.099,1.593l-0.625,1.436
	l-0.482,1.606l-0.461,2.636l-0.496,2.35l-1.363,4.831l-1.926,4.92l-0.437,1.829L0,208.668l14.1,1.436l0.19-1.866l1.672-4.249
	l1.733-6.01l0.705-3.243l0.384-2.167l0.786-1.806l0.575-2.391l0.075-1.219l0.61-1.085l0.758-2.017l0.479-2.281l0.768-2.201
	l0.853-3.344l0.527-2.998l1.148-4.797l0.819-2.16l0.354-1.29l0.452-2.58l0.385-1.7l0.889-1.762l0.401-0.967l0.876-2.649l0.322-1.512
	l0.18-1.773l0.675-1.63l0.383-1.231l0.473-2.213l0.795-2.126l0.401-1.659l0.271-2.326l0.407-1.596l0.913-1.956l0.502-1.486
	l0.595-2.726l0.134-0.873l0.169-1.869l1.628-4.291l0.257-0.812l0.676-2.702l0.649-2.886l0.137-0.84l0.146-1.449l0.688-1.315
	l0.054-0.135l0.735-0.374l1.685-1.169l4.441-1.896l2.945-1.529l2.342-1.335l2.228-1.036l2.6-1.407l2.264-1.027l2.862-1.576
	l1.518-0.804l1.109,0.721l0.914,0.503l2.478,1.132l7.228,3.439l2.296,1.234l2.382,1.099l1.789,1.222l0.771,0.458l4.932,2.468
	l0.624,1.587l0.768,2.247l0.57,2.125l0.398,2.416l1.568,5.584l0.248,2.214l0.78,2.526l0.65,1.23l0.109,1.369l0.211,1.238
	l0.709,2.696l0.57,1.477l0.521,0.999l0.003,1.16l0.436,2.427l0.966,2.626l1.124,2.375l0.351,1.817l0.28,1.029l0.688,1.935
	l0.272,2.046l0.412,1.615l0.796,2.064l0.418,2.039l0.446,2.64l0.306,1.179l0.679,1.921l0.261,2.045l0.766,2.417l0.928,1.755
	l0.343,1.386l0.24,2.32l0.678,2.373l0.617,1.268l0.078,1.423l0.497,2.243l0.85,2.121l0.503,2.119l0.556,2.642l0.754,2.992
	l0.823,2.89l1.211,3.218l1.012,2.422l0.456,1.559l0.137,2.074l14.143-0.936L127.077,206.099z M65.635,75.839l-1.961,0.812
	l-4.269-2.044l-2.338-1.213l-2.934-1.227l-1.747-0.853l0.204-1.301l0.061-1.819l0.52-1.531l1.947-5.036l0.317-1.034l0.552-2.45
	l0.742-2.393l0.227-0.968l0.404-2.505l0.479-1.993l0.838-2.173l0.338-1.161l0.484-2.424l0.701-2.365l0.394-2.077l0.012,0.006
	l5.944-0.069l0.815,2.091l0.42,1.728l0.204,2.284l0.932,2.932l0.915,1.573l0.28,1.195l0.207,2.318l0.273,1.415l0.805,2.669
	l1.183,3.022l0.714,2.091l0.406,1.839l0.173,2.321l0.98,3.103l0.158,0.265l-2.212,1.067l-2.695,1.646l-2.121,1.028L65.635,75.839z
	 M55.388,92.079l-2.287,1.28l-2.232,1.013l-2.688,1.45l-2.287,1.063l-1.043,0.586l0.46-1.457l0.809-2.994l0.546-2.279l0.876-1.994
	l0.454-1.43l0.445-2.18l2.388,0.987l2.161,1.121l4.938,2.37l1.117,0.641l-0.558,0.225L55.388,92.079z M76.581,94.42l-4.576-2.108
	l-1.895-1.23l-1.307-0.668l-0.476-0.184l0.94-0.555l2.089-0.865l2.913-1.496l2.373-1.15l2.472-1.509l0.732,2.316l0.153,1.972
	l0.673,2.511l0.979,2.045l0.372,1.258l0.063,1.951l0.094,0.436l-0.258-0.139L76.581,94.42z"/>
</svg>