<!-- Generator: Adobe Illustrator 19.2.1, SVG Export Plug-In  -->
<svg version="1.1"
	 xmlns="http://www.w3.org/2000/svg" xmlns:xlink="http://www.w3.org/1999/xlink" xmlns:a="http://ns.adobe.com/AdobeSVGViewerExtensions/3.0/"
	 x="0px" y="0px" width="309.555px" height="94.171px" viewBox="0 0 309.555 94.171"
	 style="enable-background:new 0 0 309.555 94.171;" xml:space="preserve">
<style type="text/css">
	.st0{fill:#F1F2F2;}
</style>
<defs>
</defs>
<g>
	<g>
		<path class="st0" d="M119.691,94.171c0.074-0.48-0.207-0.703-0.59-0.908c-3.536-1.887-5.143-6.163-4.093-9.848
			c0.496-1.743,1.14-3.443,1.706-5.167c0.123-0.375,0.263-0.762,0.279-1.149c0.016-0.365-0.018-0.971-0.213-1.056
			c-0.382-0.168-1.039-0.236-1.32-0.014c-1.018,0.804-2.017,1.669-2.853,2.655c-0.939,1.108-1.696,2.37-2.527,3.569
			c-0.225,0.324-0.412,0.676-0.65,0.989c-0.213,0.281-0.438,0.576-0.72,0.776c-0.457,0.325-0.852,0.118-0.904-0.431
			c-0.019-0.196-0.018-0.398,0.007-0.594c0.153-1.213,0.201-2.455,0.507-3.629c0.296-1.136,0.822-2.219,1.322-3.29
			c0.247-0.53,0.807-1.016,0.369-1.606c-0.411-0.554-1.14-0.391-1.668-0.228c-1.469,0.455-2.91,1.004-4.055,2.116
			c-1.334,1.296-2.711,2.548-4.039,3.85c-1.485,1.456-3.18,2.551-5.077,3.415c-1.85,0.842-3.777,1.422-5.736,1.838
			c-2.086,0.443-4.23,0.564-6.357,0.103c-0.638-0.138-1.19-0.415-1.605-0.937c-0.341-0.429-0.28-0.822,0.221-1.03
			c0.247-0.102,0.542-0.081,0.811-0.135c0.463-0.093,0.936-0.163,1.383-0.311c3.5-1.156,6.007-3.564,8.055-6.508
			c1.083-1.557,2.458-2.771,4.026-3.796c0.132-0.086,0.288-0.144,0.403-0.247c0.327-0.291,0.278-0.681-0.143-0.837
			c-0.281-0.104-0.628-0.163-0.913-0.097c-0.96,0.22-1.901,0.515-2.855,0.762c-3.296,0.85-6.595,1.669-10.052,1.285
			c-0.763-0.085-1.488-0.25-2.092-0.743c-0.399-0.326-0.363-0.678,0.066-0.959c0.129-0.084,0.282-0.156,0.432-0.178
			c1.417-0.207,2.425-1.096,3.403-2.032c0.997-0.954,1.881-2.018,3.21-2.596c0.79-0.344,0.792-0.938,0.118-1.471
			c-0.235-0.186-0.55-0.305-0.847-0.372c-2.431-0.554-4.881-1.012-7.387-0.904c-1.732,0.075-3.458,0.299-5.189,0.405
			c-1.859,0.114-3.718,0.06-5.552-0.307c-1.473-0.294-2.91-0.657-4.22-1.477c-1.219-0.764-2.36-1.579-3.225-2.745
			c-0.61-0.822-1.244-1.627-1.864-2.442c-0.095-0.125-0.191-0.256-0.254-0.399c-0.241-0.551,0.047-0.978,0.655-0.895
			c0.38,0.052,0.756,0.221,1.106,0.394c2.139,1.06,4.417,1.074,6.719,0.925c1.871-0.122,3.408-1.031,5.005-1.926
			c1.246-0.698,2.609-1.358,4.142-1.305c0.158,0.005,0.348,0.046,0.469-0.023c0.25-0.144,0.604-0.32,0.653-0.54
			c0.051-0.233-0.13-0.667-0.338-0.782c-1.341-0.742-2.553-1.724-4.086-2.116c-1.222-0.313-2.46-0.637-3.612-1.136
			c-1.483-0.643-2.962-1.376-3.793-2.898c-0.117-0.214-0.206-0.544-0.124-0.746c0.159-0.394,0.522-0.247,0.818-0.126
			c0.846,0.344,1.681,0.308,2.553,0.054c1.175-0.343,2.361-0.679,3.565-0.878c1.035-0.172,2.102-0.323,3.112,0.297
			c0.361,0.221,0.959,0.587,1.293,0.145c0.219-0.289,0.17-0.932,0.013-1.324c-0.423-1.058-0.902-2.106-1.48-3.087
			c-1.204-2.044-2.196-4.17-3.031-6.396c-0.567-1.511-0.845-3.051-0.953-4.616c-0.111-1.609-0.049-3.236,0.696-4.747
			c0.523-1.06,0.979-2.154,1.515-3.207c0.191-0.376,0.483-0.735,0.811-0.998c0.486-0.389,0.891-0.169,0.946,0.465
			c0.088,1.022,0.175,2.044,0.236,3.068c0.096,1.591,1.057,2.687,2.125,3.709c0.367,0.352,0.797,0.658,1.243,0.904
			c0.991,0.547,1.732,0.156,1.853-0.959c0.047-0.431-0.001-0.872,0.024-1.307c0.121-2.131,0.236-4.262,0.979-6.298
			c0.107-0.294,0.148-0.613,0.225-0.919c0.307-1.224,0.649-2.44,0.918-3.673c0.353-1.619,0.702-3.242,0.938-4.88
			c0.079-0.546-0.173-1.148-0.314-1.714c-0.097-0.389-0.304-0.857,0.104-1.073c0.296-0.157,0.816-0.143,1.123,0.015
			c1.197,0.614,2.059,1.613,2.657,2.792c1.196,2.359,1.158,4.873,0.838,7.422c-0.152,1.214-0.258,2.443,0.095,3.652
			c0.104,0.354,0.239,0.777,0.664,0.686c0.291-0.063,0.645-0.362,0.754-0.64c0.389-0.988,0.674-2.016,1.019-3.021
			c0.192-0.558,0.477-1.088,0.628-1.655c0.606-2.264,1.648-4.357,2.602-6.473c0.61-1.354,1.409-2.677,2.363-3.813
			c2.135-2.542,4.419-4.957,6.642-7.425c0.053-0.059,0.083-0.139,0.141-0.191c0.373-0.341,0.72-0.305,0.929,0.149
			c0.249,0.537,0.552,1.087,0.629,1.658c0.236,1.739,0.213,3.489-0.397,5.159c-0.406,1.109-0.942,2.17-1.43,3.248
			c-0.421,0.93-0.662,1.879-0.237,2.867c0.136,0.316,0.338,0.63,0.584,0.868c0.426,0.412,0.791,0.403,1.257,0.008
			c0.332-0.281,0.613-0.621,0.934-0.916c1.293-1.187,2.735-2.115,4.394-2.741c2.22-0.838,4.482-1.526,6.761-2.172
			c0.378-0.107,0.737-0.286,1.102-0.438c0.219-0.091,0.424-0.239,0.651-0.285c0.46-0.092,1.034-0.257,1.287,0.245
			c0.135,0.268-0.021,0.758-0.178,1.085c-0.783,1.636-1.614,3.249-2.416,4.877c-0.138,0.28-0.278,0.585-0.301,0.888
			c-0.018,0.247,0.067,0.599,0.239,0.73c0.129,0.098,0.497-0.032,0.711-0.148c1.142-0.617,2.135-1.514,3.431-1.842
			c0.916-0.232,1.835-0.451,2.754-0.67c0.268-0.064,0.548-0.083,0.812-0.159c1.712-0.49,3.454-0.806,5.213-1.091
			c0.85-0.138,1.64-0.715,2.427-1.148c0.481-0.264,0.891-0.654,1.358-0.947c0.315-0.198,0.562-0.026,0.596,0.308
			c0.04,0.389,0.098,0.828-0.036,1.174c-0.341,0.881-0.76,1.734-1.196,2.574c-0.422,0.815-1.122,1.273-2.008,1.548
			c-1.251,0.388-2.419,0.969-3.44,1.821c-0.601,0.501-0.754,1.196-0.852,1.896c-0.065,0.467,0.288,0.726,0.772,0.61
			c0.381-0.092,0.788-0.204,1.104-0.422c1.565-1.083,3.264-1.036,5.011-0.67c0.188,0.039,0.386,0.108,0.539,0.22
			c0.338,0.247,0.475,0.585,0.092,0.88c-0.4,0.307-0.858,0.537-1.29,0.803c-0.399,0.246-0.846,0.441-1.182,0.754
			c-0.441,0.411-0.37,0.852,0.115,1.187c0.158,0.109,0.352,0.195,0.541,0.228c1.972,0.343,3.903,0.964,5.969,0.508
			c1.146-0.253,2.355-0.229,3.536-0.31c1.182-0.081,2.365-0.171,3.549-0.193c0.626-0.012,1.263,0.211,1.882,0.16
			c2.718-0.227,4.997,0.994,7.298,2.144c0.235,0.117,0.499,0.45,0.505,0.69c0.012,0.45-0.41,0.519-0.784,0.52
			c-1.269,0.003-2.538,0.017-3.806-0.01c-1.235-0.027-2.396,0.323-3.367,0.995c-0.717,0.497-1.283,1.275-1.773,2.021
			c-0.938,1.426-2.127,2.269-3.896,2.253c-0.983-0.009-1.968,0.13-2.95,0.228c-0.446,0.044-0.497,0.256-0.196,0.635
			c0.575,0.723,1.387,0.987,2.23,1.265c1.273,0.42,2.492,0.997,3.519,1.882c0.76,0.655,0.695,1.189-0.237,1.58
			c-0.684,0.287-1.441,0.404-2.171,0.577c-0.461,0.109-0.943,0.139-1.393,0.276c-0.86,0.263-1.122,1.08-0.439,1.618
			c2.484,1.959,4.319,4.664,7.152,6.212c1.073,0.586,2.175,1.121,3.245,1.714c1.481,0.82,2.974,1.634,4.266,2.738
			c0.745,0.637,1.488,1.308,2.082,2.079c0.495,0.642,0.779,1.449,1.14,2.191c0.066,0.135,0.065,0.309,0.071,0.466
			c0.025,0.72-0.314,0.93-0.958,0.631c-0.822-0.381-1.657-0.733-2.482-1.108c-1.066-0.484-2.201-0.628-3.351-0.63
			c-2.138-0.004-4.276-0.084-6.371-0.502c-1.219-0.243-2.5-0.397-3.541-1.239c-0.183-0.148-0.639-0.131-0.869-0.007
			c-0.36,0.194-0.294,0.596-0.181,0.959c0.27,0.865,0.559,1.726,0.775,2.604c0.118,0.478,0.333,1.092-0.191,1.417
			c-0.515,0.32-0.948-0.088-1.365-0.423c-0.302-0.244-0.671-0.44-1.042-0.55c-0.22-0.065-0.561,0.005-0.741,0.148
			c-0.244,0.195-0.313,0.487-0.128,0.846c0.414,0.805,0.822,1.623,1.114,2.477c0.254,0.741,0.355,1.535,0.505,2.309
			c0.535,2.763,0.648,5.563,0.755,8.367c0.066,1.745,0.348,3.465,1.23,5.014c0.21,0.369,0.585,0.641,0.826,0.997
			c0.14,0.205,0.284,0.537,0.208,0.724c-0.078,0.192-0.407,0.35-0.65,0.396c-1.675,0.311-2.706-0.674-3.514-1.912
			c-1.16-1.779-2.209-3.63-3.348-5.424c-0.79-1.244-1.828-2.274-3.014-3.15c-0.094-0.07-0.2-0.151-0.31-0.169
			c-0.414-0.068-0.833-0.112-1.249-0.166c-0.033,0.415-0.173,0.855-0.082,1.24c0.477,2.028,0.177,3.994-0.385,5.945
			c-0.062,0.215-0.213,0.427-0.376,0.584c-0.276,0.264-0.586,0.265-0.786-0.098c-0.287-0.52-0.534-1.062-0.814-1.587
			c-0.259-0.485-0.53-1.183-1.118-1.07c-0.717,0.138-0.453,0.918-0.433,1.426c0.061,1.532-0.314,2.946-0.773,4.402
			c-0.452,1.435-1.109,2.779-1.568,4.205c-0.445,1.382-1.136,2.688-1.531,4.081c-0.352,1.242-0.548,2.55-0.629,3.841
			c-0.103,1.658-0.022,3.328-0.02,4.993C121.119,94.171,120.405,94.171,119.691,94.171z M85.327,45.265
			c0.035,0.002,0.071,0.005,0.106,0.007c0,0.872-0.07,1.751,0.017,2.614c0.121,1.212,0.316,2.421,0.563,3.614
			c0.15,0.725,0.458,1.417,0.695,2.123c0.076,0.225,0.121,0.467,0.233,0.672c0.675,1.237,1.334,2.485,2.061,3.692
			c0.445,0.74,0.934,1.475,1.52,2.104c2.078,2.232,4.228,4.395,6.991,5.802c1.087,0.553,2.204,1.047,3.312,1.556
			c0.138,0.063,0.314,0.037,0.466,0.076c0.571,0.147,1.142,0.293,1.707,0.46c0.492,0.145,0.968,0.42,1.464,0.457
			c1.694,0.128,3.393,0.213,5.091,0.239c0.903,0.014,1.809-0.167,2.714-0.183c0.813-0.014,1.556-0.209,2.291-0.536
			c0.426-0.19,0.891-0.292,1.338-0.432c0.595-0.187,1.197-0.352,1.782-0.566c0.366-0.134,0.71-0.332,1.057-0.514
			c1.005-0.528,2.079-0.962,2.994-1.616c1.639-1.171,3.13-2.53,4.542-3.979c1.503-1.541,2.688-3.273,3.549-5.239
			c0.109-0.249,0.308-0.457,0.44-0.698c0.148-0.271,0.313-0.546,0.388-0.84c0.225-0.875,0.349-1.771,0.896-2.546
			c0.191-0.27,0.227-0.673,0.266-1.023c0.173-1.567,0.328-3.137,0.474-4.707c0.033-0.353,0.031-0.715-0.002-1.069
			c-0.146-1.57-0.297-3.14-0.474-4.706c-0.044-0.388-0.116-0.806-0.301-1.14c-0.671-1.211-0.909-2.579-1.528-3.828
			c-1.085-2.19-2.454-4.141-4.089-5.914c-1.45-1.573-3.179-2.797-4.999-3.945c-2.003-1.263-4.16-2.1-6.391-2.696
			c-1.659-0.443-3.428-0.496-5.154-0.653c-1.707-0.155-3.377,0.284-5.064,0.426c-1.821,0.153-3.427,0.928-5.083,1.533
			c-1.092,0.399-2.08,1.104-3.079,1.728c-1.406,0.879-2.822,1.773-3.928,3.024c-1.174,1.327-2.335,2.683-3.335,4.141
			c-0.796,1.162-1.405,2.468-1.977,3.764c-0.461,1.043-0.744,2.165-1.1,3.254c-0.049,0.149-0.083,0.307-0.094,0.464
			C85.563,41.877,85.446,43.571,85.327,45.265z"/>
		<path class="st0" d="M309.555,48.965c-0.418-0.048-0.656,0.119-0.777,0.54c-0.559,1.953-1.892,3.377-3.374,4.64
			c-1.565,1.334-3.473,2.041-5.47,2.416c-2.072,0.389-4.178,0.425-6.254,0.012c-2.032-0.404-3.91-1.17-5.569-2.476
			c-1.275-1.004-2.25-2.255-2.971-3.645c-0.593-1.141-1.044-2.44-1.186-3.711c-0.205-1.834-0.311-3.716,0.14-5.553
			c0.102-0.417,0.288-0.817,0.458-1.215c0.47-1.096,0.247-1.473-0.919-1.475c-2.695-0.005-5.391-0.004-8.086,0.007
			c-1.207,0.005-1.452,0.254-1.453,1.478c-0.005,4.678-0.044,9.356,0.025,14.032c0.025,1.672-0.365,2.682-2.906,2.451
			c-1.173-0.106-2.364-0.012-3.547-0.004c-0.431,0.003-0.875,0.089-1.29,0.013c-1.044-0.192-1.319-0.537-1.32-1.622
			c-0.008-6.937-0.009-13.874-0.001-20.811c0.001-1.28,0.448-1.729,1.708-1.731c5.51-0.008,11.02-0.006,16.53,0
			c1.244,0.001,1.69,0.446,1.734,1.717c0.023,0.673-0.002,1.348-0.001,2.021c0,0.277-0.02,0.56,0.029,0.83
			c0.032,0.176,0.137,0.412,0.275,0.472c0.108,0.047,0.343-0.106,0.47-0.225c0.14-0.131,0.215-0.329,0.327-0.492
			c1.272-1.865,3.018-3.048,5.127-3.846c2.519-0.952,5.063-0.95,7.694-0.813c1.612,0.084,3.078,0.569,4.409,1.242
			c2.317,1.171,4.262,2.869,5.254,5.406c0.185,0.472,0.263,1.033,0.944,1.061C309.555,42.779,309.555,45.872,309.555,48.965z
			 M300.13,44.352c-0.108-1.146-0.134-2.338-0.356-3.492c-0.198-1.028-0.747-1.933-1.816-2.316
			c-2.389-0.855-3.722,0.416-4.297,2.528c-0.274,1.007-0.244,2.111-0.255,3.172c-0.009,0.902,0.185,1.806,0.173,2.708
			c-0.012,0.881,0.284,1.589,0.763,2.305c0.831,1.242,2.043,1.237,3.277,1.078c0.968-0.125,2.059-1.385,2.178-2.41
			C299.934,46.752,300.018,45.574,300.13,44.352z"/>
		<path class="st0" d="M191.301,44.329c0-3.211,0-6.422,0-9.634c0-0.317-0.013-0.635,0.007-0.951
			c0.057-0.907,0.518-1.414,1.405-1.426c2.061-0.026,4.123,0.018,6.184-0.019c0.69-0.012,1.203,0.41,1.395,1.204
			c0.073,0.302,0.048,0.63,0.049,0.947c0.003,1.665-0.01,3.33,0.003,4.995c0.009,1.157,0.271,1.423,1.381,1.436
			c0.951,0.011,1.903,0.019,2.854-0.006c0.97-0.026,1.453-0.501,1.464-1.472c0.021-1.744,0.068-3.492-0.02-5.232
			c-0.063-1.263,0.722-1.939,1.848-1.886c1.82,0.087,3.646,0.015,5.47,0.028c1.34,0.009,1.762,0.434,1.764,1.796
			c0.007,6.819,0.004,13.638-0.001,20.456c0,0.314-0.011,0.64-0.095,0.939c-0.121,0.434-0.357,0.812-0.88,0.841
			c-0.661,0.037-1.322,0.072-1.984,0.082c-1.145,0.017-2.29,0.009-3.434,0.024c-0.392,0.005-0.793,0.115-1.175,0.064
			c-1.14-0.153-1.482-0.559-1.488-1.73c-0.011-2.022,0.001-4.044,0.001-6.066c0-1.378-0.263-1.643-1.674-1.659
			c-0.991-0.011-1.983-0.021-2.973,0c-0.868,0.019-1.048,0.187-1.055,1.056c-0.018,2.061-0.003,4.123-0.006,6.184
			c-0.001,0.356,0.02,0.722-0.051,1.066c-0.11,0.532-0.367,0.973-1.004,1c-0.623,0.026-1.245,0.061-1.868,0.067
			c-1.145,0.012-2.29,0.002-3.434,0.012c-0.155,0.001-0.308,0.077-0.464,0.095c-1.548,0.178-2.211-0.405-2.215-1.985
			C191.294,51.147,191.301,47.738,191.301,44.329z"/>
		<path class="st0" d="M22.601,44.46c0-3.329,0-6.658,0.001-9.987c0-0.317-0.016-0.637,0.021-0.95
			c0.092-0.771,0.45-1.176,1.226-1.189c2.179-0.038,4.359-0.022,6.538-0.012c0.542,0.002,0.898,0.31,1.011,0.834
			c0.108,0.5,0.235,1.013,0.227,1.517c-0.025,1.5-0.092,3-0.181,4.498c-0.064,1.069,0.408,1.672,1.472,1.7
			c1.109,0.03,2.219,0.025,3.329,0.012c0.823-0.01,1.075-0.224,1.112-1.043c0.044-0.989,0.015-1.981,0.016-2.972
			c0.002-1.03-0.023-2.062,0.01-3.091c0.037-1.18,0.346-1.466,1.509-1.47c1.942-0.006,3.884-0.007,5.826,0.002
			c1.071,0.005,1.396,0.273,1.601,1.333c0.067,0.346,0.065,0.709,0.066,1.064c0.004,6.42,0.007,12.84-0.005,19.261
			c-0.001,0.508-0.078,1.024-0.186,1.522c-0.161,0.74-0.463,0.995-1.209,1.055c-0.351,0.028-0.709-0.045-1.064-0.048
			c-1.417-0.01-2.835-0.014-4.253-0.011c-0.235,0.001-0.47,0.066-0.706,0.071c-0.919,0.019-1.408-0.372-1.555-1.268
			c-0.051-0.31-0.032-0.632-0.033-0.949c-0.003-2.021,0.007-4.042-0.006-6.063c-0.007-1.095-0.138-1.212-1.248-1.219
			c-0.991-0.006-1.982-0.005-2.972,0.007c-1.469,0.018-1.722,0.477-1.644,1.896c0.111,2.044,0.078,4.106-0.054,6.149
			c-0.071,1.102-0.811,1.582-1.904,1.426c-1.501-0.214-2.98-0.231-4.484-0.018c-0.562,0.08-1.199-0.055-1.74-0.256
			c-0.298-0.111-0.548-0.535-0.673-0.872c-0.117-0.316-0.046-0.704-0.046-1.061C22.6,51.039,22.601,47.749,22.601,44.46z"/>
		<path class="st0" d="M218.668,44.345c0-3.25-0.001-6.5,0.001-9.75c0-0.317-0.02-0.638,0.026-0.949
			c0.132-0.882,0.613-1.299,1.521-1.33c0.515-0.018,1.03-0.004,1.546-0.004c4.796,0,9.591-0.001,14.387-0.001
			c0.238,0,0.476-0.007,0.713,0.002c1.239,0.043,1.746,0.516,1.779,1.724c0.028,0.99,0.025,1.982,0.001,2.972
			c-0.027,1.102-0.398,1.482-1.536,1.493c-2.378,0.024-4.756,0.006-7.134,0.006c-0.317,0-0.636-0.018-0.951,0.006
			c-0.855,0.065-1.325,0.526-1.288,1.238c0.04,0.757,0.59,1.319,1.362,1.371c0.276,0.019,0.555,0.003,0.832,0.002
			c1.744-0.001,3.488-0.015,5.232,0.001c1.197,0.012,1.568,0.379,1.595,1.557c0.022,0.951,0.012,1.902-0.002,2.853
			c-0.018,1.181-0.297,1.491-1.468,1.51c-1.664,0.028-3.329,0.007-4.994,0.006c-0.277,0-0.555-0.004-0.832-0.003
			c-1.484,0.005-2.192,1.029-1.676,2.434c0.15,0.409,0.459,0.641,0.895,0.671c0.316,0.022,0.634,0.019,0.95,0.019
			c2.576-0.001,5.152-0.009,7.728-0.003c1.299,0.003,1.538,0.238,1.552,1.511c0.012,1.11,0.023,2.22-0.006,3.329
			c-0.029,1.138-0.641,1.636-1.759,1.539c-0.982-0.085-1.968-0.175-2.952-0.18c-3.725-0.021-7.451-0.014-11.177-0.002
			c-0.55,0.002-1.101,0.141-1.648,0.123c-0.623-0.021-1.269-0.065-1.854-0.256c-0.491-0.16-0.834-0.597-0.837-1.187
			c-0.003-0.594-0.005-1.189-0.005-1.783c-0.001-2.972,0-5.945,0-8.917C218.67,44.345,218.669,44.345,218.668,44.345z"/>
		<path class="st0" d="M174.884,47.058c-0.753,0-1.508,0.031-2.259-0.008c-0.858-0.045-1.239-0.404-1.274-1.252
			c-0.045-1.108-0.051-2.221-0.006-3.329c0.047-1.175,0.737-1.656,1.909-1.543c1.177,0.114,2.364,0.136,3.547,0.184
			c0.364,0.015,0.817-0.019,0.844-0.45c0.019-0.29-0.192-0.708-0.434-0.881c-0.992-0.707-2.162-1.004-3.352-1.003
			c-1.097,0.001-2.2,0.168-3.29,0.334c-1.027,0.157-1.856-0.231-2.07-1.246c-0.252-1.193-0.398-2.415-0.498-3.632
			c-0.081-0.989,0.453-1.621,1.435-1.87c0.459-0.116,0.927-0.211,1.397-0.266c2.761-0.319,5.54-0.442,8.278,0.03
			c1.494,0.258,2.988,0.747,4.274,1.649c0.611,0.429,1.247,0.84,1.79,1.347c1.398,1.303,2.278,2.901,2.556,4.814
			c0.142,0.975,0.361,1.939,0.478,2.916c0.258,2.166-0.295,4.256-0.785,6.325c-0.222,0.938-0.75,1.843-1.299,2.655
			c-1.37,2.026-3.285,3.291-5.602,4.144c-2.823,1.039-5.653,0.862-8.541,0.673c-1.448-0.095-2.781-0.58-4.163-0.898
			c-1.204-0.277-1.364-0.666-1.109-1.887c0.201-0.964,0.302-1.95,0.51-2.912c0.335-1.55,0.983-1.913,2.526-1.684
			c1.362,0.202,2.743,0.375,4.116,0.373c0.928-0.001,1.874-0.265,2.774-0.537c0.414-0.125,0.822-0.488,1.085-0.851
			c0.482-0.662,0.231-1.146-0.579-1.191c-0.751-0.042-1.506-0.009-2.259-0.009C174.884,47.055,174.884,47.056,174.884,47.058z"/>
		<path class="st0" d="M241.977,44.326c0-3.33-0.002-6.66,0.002-9.99c0-0.356-0.014-0.72,0.055-1.066
			c0.135-0.679,0.45-0.955,1.145-0.957c3.489-0.008,6.98-0.071,10.465,0.048c1.482,0.05,3.001,0.344,4.412,0.807
			c1.393,0.456,2.571,1.403,3.407,2.661c1.467,2.207,1.549,4.661,0.855,7.074c-0.549,1.906-1.862,3.347-3.686,4.304
			c-1.446,0.758-2.931,1.156-4.559,1.059c-0.632-0.038-1.269-0.022-1.902,0.005c-0.999,0.043-1.343,0.38-1.358,1.397
			c-0.024,1.585-0.076,3.176,0.015,4.756c0.114,1.984-0.928,2.304-2.501,2.056c-1.271-0.201-2.6-0.041-3.903-0.032
			c-0.155,0.001-0.308,0.077-0.464,0.096c-1.454,0.169-1.973-0.275-1.977-1.751C241.97,51.303,241.977,47.814,241.977,44.326z
			 M253.644,40.626c0.009-0.925-0.763-1.899-1.641-2.073c-0.525-0.104-1.086,0.123-1.113,0.613
			c-0.052,0.931,0.015,1.875,0.115,2.805c0.04,0.373,0.399,0.555,0.809,0.546C252.481,42.502,253.826,41.367,253.644,40.626z"/>
		<path class="st0" d="M0,44.394c0-3.29,0-6.581,0-9.871c0-0.357-0.004-0.714,0.008-1.07c0.036-1.126,0.038-1.138,1.134-1.144
			c1.586-0.009,3.171,0.002,4.757,0.003c1.506,0.001,3.013,0.001,4.519,0.002c1.79,0.001,3.566,0.217,5.259,0.767
			c2.647,0.86,4.977,3.31,4.813,6.338c-0.019,0.356-0.019,0.715,0.005,1.07c0.182,2.757-1.012,4.853-3.255,6.306
			c-1.284,0.832-2.713,1.476-4.326,1.458c-0.951-0.01-1.903-0.009-2.854,0.014c-1.057,0.026-1.253,0.222-1.259,1.259
			c-0.009,1.506,0.002,3.013,0.004,4.519c0,0.278,0.009,0.556-0.004,0.832c-0.06,1.247-0.684,1.772-1.923,1.675
			c-1.062-0.084-2.126-0.158-3.191-0.179c-0.587-0.012-1.177,0.1-1.766,0.146c-0.275,0.021-0.557,0.051-0.829,0.019
			c-0.922-0.109-1.075-0.254-1.078-1.201c-0.014-3.647-0.006-7.294-0.006-10.941C0.005,44.394,0.003,44.394,0,44.394z M8.799,40.435
			c0.004,0,0.007,0,0.011,0c0,0.356-0.001,0.711,0.001,1.067c0.001,0.078,0.007,0.159,0.026,0.235c0.18,0.719,0.848,1.007,1.458,0.6
			c0.259-0.173,0.477-0.413,0.696-0.64c0.421-0.437,0.798-0.899,0.538-1.571c-0.297-0.766-0.71-1.422-1.601-1.587
			c-0.705-0.13-1.061,0.126-1.123,0.83C8.774,39.721,8.799,40.079,8.799,40.435z"/>
		<path class="st0" d="M111.163,67.216c-0.942,0.092-1.882,0.236-2.825,0.259c-0.744,0.018-1.491-0.127-2.238-0.177
			c-0.434-0.029-0.885,0.05-1.305-0.035c-0.684-0.14-1.35-0.367-2.02-0.572c-0.337-0.103-0.657-0.276-0.999-0.349
			c-0.771-0.164-1.5-0.32-2.171-0.839c-0.703-0.544-1.554-0.911-2.369-1.295c-1.015-0.478-1.933-1.05-2.584-1.996
			c-0.123-0.179-0.378-0.261-0.549-0.413c-0.643-0.573-1.319-1.119-1.893-1.756c-0.236-0.261-0.282-0.722-0.344-1.103
			c-0.064-0.387-0.018-0.791-0.061-1.184c-0.08-0.718,0.019-0.94,0.675-1.089c0.38-0.086,0.798-0.013,1.176-0.105
			c0.273-0.066,0.663-0.243,0.719-0.448c0.06-0.217-0.199-0.534-0.349-0.79c-0.053-0.091-0.188-0.141-0.292-0.197
			c-0.477-0.252-0.479-0.693-0.44-1.136c0.058-0.655,0.48-0.914,0.945-0.466c0.794,0.765,1.72,0.71,2.656,0.664
			c0.318-0.016,0.695-0.187,0.923-0.41c0.415-0.407,0.245-0.928-0.339-0.997c-0.797-0.095-1.08-0.527-1.126-1.26
			c-0.022-0.351-0.154-0.693-0.193-1.044c-0.015-0.136,0.051-0.349,0.152-0.41c0.086-0.053,0.315,0.018,0.409,0.109
			c0.486,0.466,1.018,0.907,1.4,1.451c0.334,0.477,0.674,0.751,1.256,0.683c0.534-0.062,0.898,0.137,1.156,0.629
			c0.119,0.226,0.37,0.432,0.609,0.538c1.128,0.496,1.403,1.516,1.665,2.566c0.19,0.761,0.4,1.519,0.636,2.267
			c0.068,0.215,0.233,0.417,0.397,0.582c0.402,0.404,0.89,0.375,1.034-0.142c0.463-1.669,2.095-2.047,3.192-3.008
			c0.291-0.255,0.682-0.396,1.03-0.584c0.492-0.266,0.758-0.183,0.799,0.387c0.079,1.089,0.618,1.58,1.673,1.814
			c0.749,0.166,1.428,0.649,2.139,0.988c0.214,0.102,0.426,0.217,0.651,0.289c0.408,0.131,0.702-0.08,0.897-0.404
			c0.222-0.368-0.081-0.574-0.31-0.792c-0.337-0.321-0.738-0.601-0.987-0.981c-0.337-0.512-0.252-0.779,0.282-1.058
			c0.524-0.273,1.081-0.492,1.643-0.679c1.296-0.431,2.116-1.362,2.656-2.55c0.146-0.322,0.17-0.806,0.036-1.125
			c-0.303-0.719-0.696-1.412-1.132-2.061c-0.62-0.924-0.484-1.561,0.545-1.903c0.365-0.121,0.702-0.22,0.759-0.632
			c0.165-1.178,0.973-2.135,1.069-3.353c0.079-1.006-0.04-1.49-0.86-1.993c-1.231-0.754-1.659-1.717-0.935-2.938
			c0.631-1.063,0.623-2.257,1.077-3.338c0.108-0.257-0.039-0.717-0.219-0.979c-0.31-0.451-0.719-0.842-1.125-1.217
			c-0.387-0.358-0.677-0.3-0.975,0.121c-0.023,0.032-0.055,0.063-0.064,0.099c-0.407,1.645-1.928,2.242-3.076,3.144
			c-0.849,0.667-2.029,0.563-2.966,0.181c-0.979-0.398-1.588-0.123-2.191,0.549c-0.507,0.564-1.04,1.077-1.772,1.359
			c-0.475,0.183-0.936,0.248-1.371-0.011c-1.103-0.656-2.349-0.617-3.555-0.756c-0.445-0.051-0.823-0.123-1.193-0.42
			c-0.513-0.413-0.769-0.334-1.2,0.142c-0.362,0.4-0.75,0.777-1.127,1.164c-0.587-0.304-1.219-0.546-1.748-0.931
			c-0.437-0.318-0.819-0.761-1.105-1.224c-0.523-0.846-1.243-1.016-2.142-0.846c-0.501,0.095-1.015,0.126-1.515,0.23
			c-0.166,0.034-0.305,0.203-0.456,0.31c0.137,0.117,0.286,0.347,0.408,0.333c0.888-0.1,1.412,0.356,1.806,1.071
			c0.074,0.134,0.203,0.244,0.323,0.347c0.756,0.651,1.189,1.297,0.515,2.339c-0.429,0.663-0.042,1.166,0.78,1.28
			c1.154,0.16,1.865,0.958,1.961,2.108c0.035,0.415,0.252,0.812,0.313,1.228c0.047,0.324,0.043,0.685-0.06,0.988
			c-0.054,0.159-0.363,0.298-0.568,0.314c-0.11,0.008-0.336-0.253-0.349-0.407c-0.085-0.972-0.78-1.527-1.401-2.132
			c-0.165-0.161-0.371-0.342-0.583-0.38c-0.248-0.044-0.614-0.03-0.757,0.121c-0.135,0.142-0.11,0.515-0.04,0.752
			c0.075,0.253,0.285,0.467,0.437,0.697c0.174,0.263,0.372,0.514,0.52,0.791c0.415,0.776,0.379,1.126-0.112,1.449
			c-0.539,0.355-1.11,0.164-1.635-0.443c-0.93-1.074-1.275-2.442-1.912-3.662c-0.109-0.209-0.149-0.454-0.259-0.662
			c-0.385-0.734-0.348-1.445,0.08-2.145c0.369-0.605,0.514-1.243,0.259-1.929c-0.306-0.824-0.927-0.989-1.543-0.372
			c-0.272,0.272-0.456,0.637-0.656,0.974c-0.119,0.201-0.147,0.47-0.298,0.632c-0.132,0.141-0.379,0.176-0.575,0.257
			c0.001-0.181-0.039-0.374,0.011-0.54c0.159-0.523,0.455-1.024,0.51-1.554c0.127-1.222,0.666-2.244,1.264-3.279
			c1.226-2.124,2.898-3.871,4.712-5.456c1.328-1.16,2.77-2.238,4.512-2.782c0.256-0.08,0.482-0.255,0.725-0.379
			c0.453-0.232,0.888-0.526,1.367-0.673c0.86-0.263,1.745-0.446,2.625-0.636c0.097-0.021,0.23,0.122,0.347,0.19
			c-0.082,0.076-0.157,0.164-0.25,0.225c-0.063,0.042-0.173,0.025-0.222,0.073c-0.154,0.153-0.29,0.325-0.433,0.489
			c0.171,0.14,0.321,0.336,0.517,0.408c0.471,0.172,0.964,0.281,1.446,0.424c0.373,0.11,0.636-0.026,0.744-0.38
			c0.067-0.221,0.041-0.47,0.064-0.706c0.082-0.864,0.397-1.1,1.247-0.909c0.577,0.13,1.165,0.238,1.714,0.447
			c0.244,0.093,0.467,0.378,0.585,0.63c0.159,0.34,0.092,0.866,0.33,1.071c0.367,0.318,0.898,0.553,1.382,0.603
			c0.71,0.073,1.31,0.261,1.799,0.78c0.027,0.029,0.057,0.061,0.092,0.075c1.295,0.495,2.193,1.36,2.613,2.711
			c0.059,0.191,0.315,0.44,0.494,0.453c0.747,0.054,1.503,0.062,2.251,0.017c0.353-0.021,0.412-0.371,0.126-0.733
			c-0.416-0.527-0.828-1.064-1.302-1.535c-0.423-0.42-0.673-0.861-0.625-1.467c0.019-0.234-0.009-0.476-0.043-0.71
			c-0.135-0.938,0.014-1.155,0.941-0.946c0.799,0.18,1.629,0.45,2.307,0.892c1.451,0.945,2.996,1.856,4.163,3.1
			c1.281,1.365,2.816,2.554,3.634,4.347c0.419,0.919,1.173,1.687,1.583,2.608c0.543,1.219,1.055,2.493,1.297,3.795
			c0.346,1.854,0.561,3.754,0.592,5.638c0.023,1.403-0.336,2.812-0.523,4.219c-0.052,0.391-0.094,0.783-0.15,1.173
			c-0.039,0.271-0.016,0.593-0.157,0.799c-0.486,0.709-0.74,1.482-0.821,2.325c-0.004,0.039-0.004,0.087-0.026,0.115
			c-1.142,1.414-1.574,3.287-2.961,4.548c-0.406,0.369-0.714,0.844-1.104,1.235c-0.241,0.241-0.534,0.442-0.833,0.608
			c-0.443,0.246-0.956,0.383-1.361,0.676c-1.243,0.899-2.446,1.852-3.671,2.776c-0.25,0.189-0.509,0.406-0.798,0.493
			c-0.526,0.159-0.923,0.43-1.177,0.919c-0.266,0.513-0.787,0.624-1.273,0.792c-0.521,0.18-1.065,0.318-1.55,0.567
			C113.546,67.409,112.351,67.265,111.163,67.216z M101.836,28.764c0.037,0.097,0.07,0.634,0.321,0.769
			c1.069,0.577,2.2,1.068,3.451,1.053c0.334-0.004,0.724-0.148,0.983-0.358c0.276-0.224,0.608-0.618,0.582-0.907
			c-0.027-0.296-0.418-0.722-0.723-0.798c-1.076-0.269-2.077-0.691-3.093-1.119C102.367,26.988,101.857,27.413,101.836,28.764z"/>
		<path class="st0" d="M98.198,45.311c0.256-0.722,0.479-1.561,0.85-2.329c0.297-0.617,1.405-0.628,1.817-0.052
			c0.123,0.172,0.139,0.541,0.039,0.731c-0.313,0.593-0.168,1.004,0.282,1.461c0.525,0.534,0.391,0.898-0.336,1.185
			c-0.286,0.113-0.591,0.197-0.848,0.358c-0.778,0.489-1.153,0.401-1.531-0.437C98.36,45.984,98.314,45.71,98.198,45.311z"/>
		<path class="st0" d="M93.279,51.448c0-0.056,0.002,0.062,0,0.18c-0.008,0.416-0.064,0.819-0.587,0.862
			c-0.369,0.03-0.817-0.446-0.797-0.876c0.051-1.134,0.128-2.266,0.228-3.397c0.013-0.141,0.221-0.362,0.35-0.371
			c0.149-0.01,0.329,0.157,0.458,0.284c0.072,0.071,0.088,0.217,0.098,0.332C93.111,49.401,93.186,50.338,93.279,51.448z"/>
	</g>
</g>
</svg>