<!-- Generator: Adobe Illustrator 19.2.1, SVG Export Plug-In  -->
<svg version="1.1"
	 xmlns="http://www.w3.org/2000/svg" xmlns:xlink="http://www.w3.org/1999/xlink" xmlns:a="http://ns.adobe.com/AdobeSVGViewerExtensions/3.0/"
	 x="0px" y="0px" width="110.729px" height="224.337px" viewBox="0 0 110.729 224.337"
	 style="enable-background:new 0 0 110.729 224.337;" xml:space="preserve">
<style type="text/css">
	.st0{fill:#EBECEC;}
</style>
<defs>
</defs>
<path class="st0" d="M110.112,214.321l-0.106-0.905l-0.47-1.834l-0.33-2.256l-0.799-2.506l-0.114-0.493l-0.047-0.821l-0.252-1.515
	l-0.384-1.367l-0.425-1.265l-0.433-2.284l-0.24-0.922l-0.206-0.618l-0.067-0.652l-0.317-1.48l-0.163-0.494l-0.033-0.526
	l-0.521-2.256l-1.114-5.396l-0.383-0.994l-0.12-0.442l-0.08-0.83l-0.31-1.492l-0.225-0.699l-0.087-0.729l-0.41-1.672l0.001-0.03
	l-0.643-3.219l-0.108-0.235l-0.661-3.609l-0.348-1.346l-0.062-0.744l-0.763-2.654l-0.68-2.874l-0.318-1.531l-0.371-1.151
	l-0.191-0.744l-0.194-2.022l-0.233-1.348l-0.239-0.872l-0.111-0.903l-0.158-0.849l-0.344-1.374l-0.35-1.043l-0.705-3.062
	l-0.253-1.485l-0.357-1.371l-0.294-0.884l-0.09-0.222l-0.208-2.081l-0.755-2.368l-0.129-1.017l-0.291-1.387l-0.421-1.417
	l-0.278-2.232l-0.589-2.038l-0.351-1.837l-1.116-3.788l-0.073-0.321l0.015-0.58l-0.411-2.554l-0.206-0.578l-0.07-0.607l-0.286-1.336
	l-0.387-1.216l-0.195-0.712l-0.103-0.884l-0.368-1.569l-0.116-0.326l-0.244-1.872l-0.361-1.369l-0.298-0.887l-0.588-2.764
	l-0.21-0.512l-0.411-2.075l-0.097-0.954l-0.275-1.361l-0.634-2.189l-0.196-1.095l-0.774-3.135l-0.108-0.388l21.743-7.674
	l-4.717-13.365l-20.08,7.087l-0.491-2.182l-0.231-0.812l0.002-0.355l-0.17-1.578l-0.68-2.899l-0.35-1.191l-0.122-0.863l-0.399-1.544
	l-0.279-0.727l-0.139-0.751l-0.309-1.128l-0.189-0.521l-0.059-0.551l-0.341-1.545l-0.13-0.379l-0.256-2.435l-0.647-2.164
	l-0.142-1.111l-0.291-1.384l-0.832-2.708l-0.194-1.488l-0.898-4.204l-0.272-0.904l-0.017-0.043l0.002-0.075l-0.751-3.361
	l-0.229-0.454l-0.059-0.924l-0.191-1.242l-0.337-1.369l-0.375-1.115l-0.196-0.455l-0.209-1.688l-0.428-1.999l-0.358-2.28
	l-0.395-1.925l-0.244-0.86l-0.299-0.846l-0.167-0.87l-0.454-1.589l-0.349-2.324l-0.588-1.919l-0.17-0.361l-0.382-2.087l-0.465-1.817
	l-0.375-1.213l-0.106-0.626l-0.098-1.13l-0.198-1.155l-0.531-2.068l-0.044-0.748l-0.488-2.2l-0.444-1.119l-0.107-0.33l-0.045-0.581
	l-0.304-2.008l-0.331-1.264l-0.094-0.259l-0.008-0.291l-0.599-2.669L63.369,3.77l-0.313-1.542l-0.259-0.832l-0.126-0.844L48.757,0
	l-0.255,1.104l-0.345,1.102l-0.317,1.808l-0.505,1.492l-0.315,1.383l-0.161,1.103L46.779,9.18l-0.081,0.595l-0.247,0.807
	l-0.31,1.399l-0.267,0.634l-0.535,2.205l-0.085,1.102l-0.209,0.488l-0.708,3.115l0.003,0.862l-0.267,0.752l-0.36,1.289l-0.21,1.176
	l-0.283,1.16l-0.225,1.399l-0.467,1.438l-0.316,1.376l-0.209,1.144l-0.271,0.741l-0.333,1.259l-0.235,1.396L41.03,34.98
	l-0.188,0.727l-0.248,1.361l-0.247,0.66l-0.569,1.962l-0.32,1.731l-0.271,0.938l-0.248,1.3l-0.115,1.204l-0.686,1.848l-0.342,1.364
	l-0.157,0.838l-0.177,1.401l-0.078,0.868l-0.561,1.437l-0.357,1.149l-0.303,1.38l-0.163,1.374l-0.006,0.296l-0.62,2.104
	l-0.229,1.284l-0.08,0.938l-0.143,0.637l-0.334,1.087l-0.229,0.994l-0.151,0.97l-0.656,2.323l-0.326,1.674l-0.281,0.924
	l-0.299,1.842l-0.684,2.787l-0.021,0.847l-0.757,2.064l-0.244,1.222l-0.301,1.21l-0.199,2.114l0.018,0.321l-0.371,1.447
	l-0.364,1.058l-0.233,0.844l-0.235,1.114l-0.162,0.557L3.606,80.474L0,94.181L25.915,101l-0.103,0.33l-0.286,2.235l-0.336,1.027
	l-0.322,1.37l-0.252,1.662l-0.167,0.634l-0.375,1.056l-0.408,2.443l0.006,0.604l-1.013,4.188l-0.346,0.938l-0.561,1.98l-0.377,2.036
	l-0.16,1.422l-0.112,0.473l-0.344,0.912l-0.455,2.588l-0.617,2.78l0.005,0.306l-0.279,0.573l-0.685,2.449l-0.24,2.272l-0.519,2.133
	l-0.2,1.04l-0.181,0.375l-0.542,1.593l-0.292,1.374l-0.152,1.27l-0.007,0.256l-0.376,1.224l-0.294,1.374l-0.145,1.077l-0.526,1.454
	l-0.332,1.366l-0.274,1.822l-0.543,2.126l-0.503,3.048l-0.268,0.877l-0.287,1.492l-0.561,1.587l-0.341,1.366l-0.21,1.695
	l-0.486,2.261l-0.02,0.269l-0.443,1.262l-0.343,1.362l-0.533,2.704l-0.32,1.032l-0.278,2.162l-0.345,1.027l-0.33,1.362l-0.191,1.319
	l-0.016,0.314l-0.541,2.239l-0.03,0.392l-0.696,2.054l-0.476,1.841l-0.205,1.441l-0.026,0.697l-0.403,1.868l-0.284,0.77
	l-0.412,1.863l-0.043,0.517l-0.43,1.438l-0.507,2.633L4.29,197.79l-0.197,1.198l-0.076,0.977l-0.385,1.696l-0.357,1.007
	l-0.541,2.114l-0.287,1.454l-0.649,2.632l-0.482,2.766l-0.294,0.979l-0.413,1.78l10.967,7.345l1.089-0.758l1.675-1.4l1.095-1.205
	l1.962-1.663l0.256-0.326l1.886-1.575l0.972-0.797l0.726-0.688l0.366-0.398l1.835-1.273l1.608-1.584l0.214-0.292l1.505-1.24
	l0.872-0.614l1.65-1.393l0.856-0.894l0.687-0.854l0.464-0.477l0.448-0.363l0.853-0.537l1.593-1.372l0.692-0.803l1.042-0.985
	l1.744-1.092l1.081-0.908l1.276-1.413l1.586-1.348l1.841-1.45l0.593-0.604l0.682-0.499l1.312-1.248l0.208-0.256l1.602-1.309
	l0.681-0.741l0.755-0.653l1.177-1.187l0.355-0.293l0.779-0.471l1.111-0.827l1.043-0.949l0.599-0.642l0.729,0.748l1.482,1.161
	l0.691,0.407l1.138,1.011l0.615,0.735l1.424,1.293l0.947,0.649l1.453,1.241l0.791,0.829l0.775,0.702l0.647,0.504l0.557,0.607
	l1.571,1.278l2.442,2.121l0.378,0.199l1.309,1.214l0.779,0.831l1.383,1.142l0.526,0.332l0.999,1.135l1.656,1.427l0.236,0.147
	l1.426,1.398l0.831,0.615l0.753,0.697l0.799,0.64l0.562,0.388l1.126,1.288l1.96,1.612l2.153,1.897l0.744,0.409l0.818,0.668
	l0.311,0.449l1.817,1.811l0.48,0.331l0.39,0.433l1.777,1.377l1.353,1.397l0.862,0.653l0.618,0.57l0.815,0.858l1.402,1.306
	l0.863,0.675l1.192,0.791l10.794-7.618L110.112,214.321z M42.938,90.334l0.331-1.472l0.318-0.925l0.854-3.188l0.233-2.248
	l-0.022-0.392l0.236-1.061L45.1,80.64l0.711-2.199l0.21-1.398l0.075-0.861l0.676-2.74l0.013-0.477l0.338-1.306l0.175-1.025
	l0.663-2.343l0.186-0.847l0.139-0.894l0.266-0.862l0.451-1.912l0.146-0.949l0.065-0.766l0.523-1.585l0.406-2.224l0.015-0.746
	l0.335-0.876l0.605-1.759l0.345-1.682l0.102-1.258l0.104-0.821l0.06-0.238l0.311-0.64l0.628-2.01l0.216-1.395l0.124-1.167
	l0.399-1.574l0.162-1.013l0.188-0.681l0.387-1.037l0.363-1.382l0.165-1.054l0.267-1.03l0.209-1.297l0.073-1.072l0.068-0.404
	l0.265-0.725l0.073-0.274l0.296,0.933l0.189,0.981l0.276,1.019l0.325,0.922l0.146,0.675l0.152,1.127l0.304,1.703l0.31,1.34
	l0.346,2.58l0.507,1.79l0.334,0.774l0.096,0.979l0.129,0.967l0.282,1.382l0.546,1.576l0.379,2.251l0.335,0.892l0.672,3.198
	l0.091,0.979l0.331,1.579l0.743,2.277l0.099,0.471l0.039,0.857l0.701,2.771l0.13,0.269l0.048,1.096l0.374,1.982l0.201,0.59
	l0.066,0.621l0.388,1.677l0.285,0.785l0.15,0.811l0.351,1.243l0.224,0.583l0.318,1.662l0.356,1.178l0.39,1.634l-0.004,0.648
	l0.317,2.135l0.343,1.105l0.538,2.41l0.264,0.915l0.009,0.023l-0.002,0.063l0.012,0.063l-12.633,4.458l-12.552-3.303L42.938,90.334z
	 M43.052,175.378l-0.85,0.601l-1.086,0.896l-0.621,0.578l-0.738,0.774l-0.805,0.696l-0.947,0.961l-0.453,0.297l-1.613,1.457
	l-0.326,0.401l-1.27,1.044l-0.334,0.34l-0.43,0.252l-1.8,1.503l-0.193,0.225l-0.261,0.159l-2.18,2.073l-0.161,0.236l-0.369,0.187
	l-1.684,1.184l-2.049,1.938l-0.739,0.802l-0.998,0.688l-1.1,0.892l-1.603,1.577l-0.958,1.14l-0.351,0.302l0.432-1.921l0.038-0.457
	l0.475-1.578l0.219-1.176l0.29-1.159l0.206-1.446l0.027-0.699l0.41-1.362l0.443-1.164l0.442-1.978l0.031-0.404l0.142-0.379
	l0.445-2.146l0.037-0.753l0.353-0.863l0.582-3.139l-0.01-0.222l0.753-3.525l0.154-0.609l0.346-0.825l0.531-2.211l0.03-0.396
	l0.14-0.371l0.458-2.486l0.001-0.492l0.265-0.546l0.686-2.51l0.054-0.657l0.202-0.672l1.634,1.327l1.578,1.566l1.029,0.739
	l0.405,0.319l0.442,0.533l1.542,1.383l0.517,0.343l1.46,1.523l0.639,0.585l0.848,0.687l0.778,0.763l1.651,1.204l0.634,0.335
	l0.836,0.753l0.573,0.729l1.948,1.626L43.052,175.378z M65.028,155.788l-1.019,0.978l-0.81,0.839l-0.681,0.519l-0.747,0.656
	l-0.688,0.696l-0.767,0.605l-0.812,0.751l-0.812,0.88l-0.479,0.459l-1.825,1.266l-1.588,1.61l-0.268,0.193l-0.94-0.883l-1.495-1.067
	l-0.661-0.726l-1.033-0.979l-1.432-1.212l-1.229-0.823l-0.378-0.199l-1.545-1.34l-1.617-1.697l-1.241-1.043l-0.324-0.215
	l-1.317-1.341l-1.115-0.879l-0.487-0.359l-0.19-0.26l-2.125-1.926l-0.361-0.212l-1.672-1.62l-1.27-1.026l-1.545-1.584l-1.219-1.024
	l-0.591-0.393l0.008-0.272l0.241-0.502l0.606-1.937l0.17-1.054l0.637-2.684l0.306-2.262l0.53-1.451l0.38-1.356l0.26-2.022
	l0.612-2.725l-0.001-0.11l0.293-0.938l0.327-1.371l0.158-0.934l0.118-1.173l0.141-0.828l0.196-0.729l0.379-1.029l0.244-0.807
	l1.326-5.528l0.181-1.665l-0.002-0.188l0.585-2.078l0.174-0.891l0.135-1.042l0.101-0.428l0.322-0.759l0.543-3.039l14.145,3.722
	l4.162-0.171l13.012-4.593l0.418,1.574l0.196,1.096l0.776,2.882l0.227,1.631l0.252,1.069l0.156,1.09l0.46,1.688l0.589,2.768
	l0.367,0.893l0.073,0.838l0.409,2.097l0.207,0.58l0.274,1.657l0.374,1.368l0.306,0.979l0.084,0.732l0.366,1.571l0.037,0.104
	l-0.004,0.141l0.172,1.731l0.312,1.38l1.093,3.785l0.039,0.607l0.635,2.519l0.157,0.341l0.187,1.625l0.313,1.435l0.321,0.976
	l0.031,0.147l-1.008,0.988l-1.029,1.137l-1.026,0.91l-0.559,0.284l-1.826,1.335l-0.678,0.687l-0.757,0.595l-1.507,1.355
	l-2.513,2.424l-0.4,0.225l-2.079,1.771l-0.156,0.196L65.028,155.788z M91.025,197.521l-1.124-0.962l-0.753-0.519l-0.664-0.615
	l-1.05-0.831l-0.361-0.438l-1.724-1.507l-0.282-0.176l-1.564-1.647l-1.259-1.013l-0.45-0.283l-2.631-2.54l-1.585-1.154l-1.887-1.727
	l-0.347-0.207l-1.126-1.082l-0.702-0.547l-0.617-0.646l-1.44-1.325l-1.384-1.132l-0.828-0.596l-0.958-1.043l-2.269-2.011
	l-0.975-0.698l0.441-0.398l1.325-0.975l0.813-0.67l1.02-0.974l0.894-0.947l0.673-0.531l0.646-0.579l0.644-0.651l0.729-0.556
	l0.831-0.743l0.873-0.913l0.405-0.389l0.615-0.394l1.729-1.562l1.616-1.23l0.941-0.945l2.7-2.557l0.893-0.701l0.646-0.576
	l0.179,1.21l0.199,1.004l0.193,0.705l0.278,2.542l0.164,0.852l0.354,1.374l0.312,1.008l0.056,0.629l0.803,2.676l0.604,2.7
	l0.266,1.393l0.295,1.047l0.45,2.264l0.101,1.023l0.566,2.093l0.413,2.511l0.198,0.522l0.065,0.547l0.293,1.338l0.201,0.624
	l0.063,0.66l0.213,1.168l0.371,1.372l0.229,0.698l0.667,3.009l0.536,2.703l0.103,0.247l0.357,2.029l0.044,0.132L91.025,197.521z"/>
</svg>