<!-- Generator: Adobe Illustrator 19.2.1, SVG Export Plug-In  -->
<svg version="1.1"
	 xmlns="http://www.w3.org/2000/svg" xmlns:xlink="http://www.w3.org/1999/xlink" xmlns:a="http://ns.adobe.com/AdobeSVGViewerExtensions/3.0/"
	 x="0px" y="0px" width="127.265px" height="210.103px" viewBox="0 0 127.265 210.103"
	 style="enable-background:new 0 0 127.265 210.103;" xml:space="preserve">
<style type="text/css">
	.st0{fill:none;stroke:#F1F2F2;stroke-width:14.1732;stroke-linejoin:bevel;stroke-miterlimit:10;}
</style>
<defs>
</defs>
<g>
	<polyline class="st0" points="7.05,209.385 7.336,206.575 8.342,203.964 9.379,201.361 10.113,198.675 10.891,196 11.467,193.27 
		11.949,190.513 13.073,187.933 13.248,185.095 14.653,182.595 15.226,179.868 16.143,177.237 16.806,174.536 17.273,171.781 
		17.942,169.082 18.565,166.369 19.557,163.756 20.039,161.003 20.655,158.285 21.936,155.746 22.812,153.097 23.096,150.288 
		24.169,147.696 24.751,144.97 25.729,142.353 26.057,139.558 26.744,136.861 27.939,134.302 28.533,131.576 28.788,128.755 
		29.769,126.135 30.769,123.521 31.445,120.82 32.056,118.101 32.34,115.292 33.661,112.765 34.444,110.09 35.28,107.428 
		35.669,104.646 36.145,101.889 36.926,99.215 37.713,96.542 38.553,93.881 39.273,91.188 39.92,88.476 41.052,85.897 
		41.612,83.161 42.322,80.463 42.747,77.69 43.851,75.103 44.744,72.457 45.508,69.774 45.605,66.911 46.501,64.265 47.497,61.646 
		48.523,59.037 49.135,56.312 49.96,53.652 50.407,50.884 51.058,48.173 52.065,45.561 52.613,42.822 53.406,40.146 53.884,37.388 
		54.791,34.743 55.622,32.08 56.551,29.44 57.072,26.69 57.965,24.042 58.749,21.361 59.153,18.583 60.315,16.009 60.797,13.245 
		61.835,10.633 62.596,7.945 62.757,5.087 63.675,2.055 64.527,5.093 65.398,7.742 66.136,10.427 66.432,13.233 67.293,15.884 
		67.86,18.617 68.819,21.243 69.357,23.984 70.358,26.596 70.785,29.363 71.737,31.986 72.628,34.625 73.124,37.372 74.139,39.977 
		74.797,42.679 75.048,45.493 76.494,47.982 77.129,50.693 77.382,53.511 78.186,56.18 79.231,58.783 80.132,61.423 80.733,64.145 
		80.944,66.972 82.423,69.451 82.808,72.231 83.64,74.889 84.228,77.614 85.352,80.195 85.974,82.915 86.846,85.565 87.066,88.392 
		88.288,90.944 89.079,93.614 89.172,96.475 90.249,99.068 91.107,101.724 91.678,104.457 92.424,107.142 92.9,109.899 
		93.74,112.557 94.782,115.16 95.685,117.804 96.408,120.496 96.863,123.26 97.647,125.934 98.416,128.614 98.73,131.42 
		100.066,133.944 100.292,136.771 101.001,139.468 102.321,141.998 102.329,144.886 103.295,147.512 104.546,150.061 
		105.076,152.807 106.013,155.442 106.383,158.227 107.39,160.841 107.951,163.578 108.418,166.337 109.348,168.972 
		109.705,171.767 111.04,174.291 111.71,177 112.001,179.811 113.244,182.365 113.401,185.214 114.445,187.822 115.091,190.54 
		115.665,193.271 116.352,195.976 117.121,198.661 118.131,201.281 119.22,203.879 120.006,206.566 120.194,209.416 	"/>
</g>
<g>
	<polyline class="st0" points="6.971,56.326 9.443,57.542 11.836,58.907 14.418,59.888 16.728,61.417 19.348,62.335 21.807,63.575 
		24.162,65.017 26.665,66.168 29.083,67.494 31.572,68.675 34.08,69.821 36.535,71.072 38.983,72.343 41.467,73.536 43.927,74.782 
		46.315,76.174 48.763,77.432 51.241,78.641 53.804,79.684 56.254,80.955 58.748,82.139 61.237,83.344 63.679,84.743 66.096,83.317 
		68.643,82.262 71.078,80.984 73.553,79.786 75.895,78.311 78.373,77.109 80.895,76.001 83.452,74.959 85.822,73.535 88.376,72.487 
		90.728,71.027 93.203,69.817 95.795,68.835 98.082,67.246 100.6,66.118 103.059,64.867 105.492,63.579 107.975,62.381 
		110.56,61.38 112.931,59.952 115.493,58.903 117.82,57.375 120.308,56.169 	"/>
</g>
<g>
	<polyline class="st0" points="29.631,16.675 32.092,17.817 34.517,19.038 36.987,20.167 39.36,21.493 41.855,22.574 44.248,23.858 
		46.707,25.016 49.055,26.382 51.54,27.484 53.901,28.839 56.434,29.85 58.857,31.084 61.19,32.507 63.679,33.704 66.128,32.454 
		68.501,31.129 70.992,30.043 73.437,28.859 75.834,27.584 78.194,26.231 80.625,25.017 83.092,23.89 85.523,22.681 87.988,21.534 
		90.332,20.144 92.805,19.011 95.297,17.905 97.69,16.602 	"/>
</g>
<g>
	<polyline class="st0" points="120.438,124.196 117.848,123.215 115.52,121.721 113.086,120.444 110.506,119.454 108.044,118.22 
		105.61,116.931 103.091,115.816 100.679,114.483 98.157,113.364 95.785,111.952 93.284,110.791 90.736,109.726 88.26,108.513 
		85.806,107.258 83.508,105.688 80.994,104.548 78.569,103.244 76.089,102.04 73.6,100.848 71.095,99.686 68.583,98.539 
		66.25,97.022 63.679,96.029 61.135,97.054 58.704,98.341 56.304,99.687 53.798,100.824 51.381,102.148 48.883,103.311 
		46.491,104.678 44.056,105.965 41.52,107.056 38.979,108.13 36.69,109.717 34.067,110.631 31.631,111.926 29.231,113.288 
		26.761,114.513 24.323,115.805 21.805,116.925 19.376,118.23 16.851,119.35 14.356,120.53 12.007,122.005 9.546,123.264 
		6.954,124.263 	"/>
</g>
</svg>