<!-- Generator: Adobe Illustrator 19.2.1, SVG Export Plug-In  -->
<svg version="1.1"
	 xmlns="http://www.w3.org/2000/svg" xmlns:xlink="http://www.w3.org/1999/xlink" xmlns:a="http://ns.adobe.com/AdobeSVGViewerExtensions/3.0/"
	 x="0px" y="0px" width="218.26px" height="226.133px" viewBox="0 0 218.26 226.133"
	 style="enable-background:new 0 0 218.26 226.133;" xml:space="preserve">
<style type="text/css">
	.st0{fill:#C2B59B;}
</style>
<defs>
</defs>
<g>
	<path class="st0" d="M159.791,226.133l-11.656-2.43l-3.333,0.464l-0.214-1.204l0.027-0.132l-0.016-0.115l-0.069-1.364l0.021-0.544
		l-0.109-0.558l-0.146-1.638l0.06-2.059l0.102-1.046l-0.005-0.657l-0.114-1.065l0.236-2.442l-0.128-1.323l0.011-1.446l0.086-1.118
		l-0.046-0.237l-0.015-2.878l0.008-0.043l0.013-3.355l0.106-0.422l-0.277-1.785l-0.04-1.444l0.104-1.041l-0.52-0.478l-0.646-0.65
		l-0.579-0.442l-1.557-1.104l-1.121-0.916l-2.165-2.656l-1.979-1.912l-2.357-1.896l-2.184-2.087l-0.825-0.944l-0.427-0.577
		l-0.336-0.31l-2.188-1.825l-1.656-1.981l-0.396-0.613l-0.796-0.682l-0.906-0.92l-0.545-0.652l-0.571-0.317l-1.771-1.347
		l-0.892-0.908l-0.931-0.87l-1.605-2.081l-0.773-0.781l-2.746-2.33l-0.751-1.033l-0.832-0.598l-1.489-1.25l-1.043-0.981
		l-1.041-1.324l-2.474,2.551l-1.941,1.778l-0.304,0.52l-1.64,1.97l-1.568,1.317l-0.716,0.523l-0.623,0.61l-1.138,0.935l-0.847,1.195
		l-2.354,2.067l-1.602,1.549l-1.141,1.4l-1.767,1.739l-0.793,0.899l-1.7,1.211l-0.927,1.218l-1.572,1.438l-1.689,1.305l-1.247,1.514
		l-1.924,1.671l-0.332,0.204l-1.28,1.196l-0.151,0.227l-1.574,1.729l-0.281,0.228l-0.218,0.31l-2.349,2.25l-0.917,1.159
		l-0.627,0.561l0.21,2.082l-0.115,1.444l-0.188,1.141l0.077,2.521l-0.002,0.011l0.002,0.011l0.082,2.428l-0.125,1.186l0.133,0.652
		l-0.178,3.623l0.042,0.751l0.011,1.447l-0.035,0.805l-0.115,1.451l0.126,0.641l0.141,1.793l-0.029,0.764l0.107,0.772l-0.089,2.648
		l-0.114,0.55l0.017,0.532l-0.128,0.004l-0.076,0.365l-1.518-0.315l-13.802,0.427l-0.045-1.452l0.188-1.956l-0.017-0.118
		l-0.068-1.36l0.021-0.542l-0.11-0.56l-0.145-1.631l0.059-2.062l0.102-1.043l-0.005-0.661l-0.113-1.062l0.236-2.437l-0.129-1.33
		l0.011-1.444l0.086-1.121l-0.046-0.235l-0.016-2.868l0.009-0.048l0.012-3.354l0.108-0.425l-0.277-1.786l-0.04-1.442l0.233-2.123
		l-0.061-0.872l-0.02-1.445l0.1-1.492l-0.069-0.607l0.196-2.49l-0.14-2.711l0.095-0.502l-0.042-0.931l-0.002-0.944l-0.125-0.945
		l0.124-2.718l0.132-0.585l-0.052-0.218l-0.18-2.526l0.123-1.726l-0.112-0.82l0.229-2.414l-0.217-1.827l0.146-2.419l-0.285-1.939
		l0.309-3.397l0.062-1.689l-0.206-1.395l-0.072-1.443l0.155-1.978l0.116-3.043l-0.058-2.378l0.005-3.288l0.084-0.386l-0.021-0.362
		l-0.001-0.945l0.056-0.923l-0.013-0.165l-0.194-0.707l-0.271-2.417l0.065-1.44l0.399-2.205l-0.049-0.639l-0.197-0.913l0.166-2.708
		l-0.308-2.5l0.104-1.167l0.052-1.736l0.101-1.109l0.017-2.382l-0.051-1.252l0.071-1.384l-0.122-3.013l0.006-0.034l-0.01-0.045
		l0.017-3.269l0.172-0.778l-0.011-0.045l-0.065-0.684l-2.545-2.348l-1.823-1.896l-0.527-0.291l-2.007-1.588l-1.362-1.541
		l-0.537-0.699l-0.622-0.603l-0.971-1.123l-1.21-0.812l-2.119-2.297l-1.596-1.57L40.956,95.9l-1.781-1.723l-0.918-0.77l-1.255-1.672
		l-1.243-0.899l-1.478-1.538l-1.342-1.651l-1.542-1.208l-1.723-1.888l-0.212-0.328l-1.224-1.245l-0.232-0.146l-1.766-1.529
		l-0.234-0.275l-0.316-0.211l-1.106-1.093l-1.321,0.474l-1.644,1.06l-2.352,1.009l-0.384,0.094l-1.56,0.738l-0.217,0.174
		l-2.029,1.17l-0.334,0.13L14.443,84.8l-2.938,1.437l-1.227,0.825L7.87,88.14l-0.76,0.194l-0.685,0.312L0,74.507l1.309-0.595
		l1.505-0.547l1.173-0.795l2.27-1.047l2.299-1.298l2.911-1.188l2.973-1.627l1.169-0.761l1.737-0.844l2.026-0.713l0.123-0.121
		l3.837-1.746l0.789-0.456l1.862-0.954l0.42-0.352l3.282-1.621l2.246-1.043l1.164-0.876l2.489-1.248l0.725-0.212l0.654-0.328
		l1.025-0.427l0.957-0.32l0.119-0.106l1.427-1.018l1.687-0.918l2.275-1.041l0.641-0.419l2.142-0.848l2.148-1.349l0.454-0.153
		l0.398-0.259l2.47-0.942l1.728-1.176l1.976-1.089l1.265-0.562l-0.013-0.713l-0.149-0.911l-0.147-1.438l0.077-2.146l0.242-1.554
		l-0.064-0.705l-0.022-1.098l0.039-0.784l-0.094-0.789l0.058-2.233l-0.02-0.103l-0.133-1.748l0.054-1.44l0.168-1.344l0.027-2.312
		l-0.225-2.315l0.106-1.866l-0.11-0.658l-0.003-2.55l0.056-0.338l-0.041-0.331l0.438-3.675l-0.09-1.702l0.015-0.909l-0.087-0.719
		l-0.215-1.246l-0.112-1.435l0.025-1.707l12.562-5.99l0.688,0.541l2.201,1.083L73.8,2.859l2.822,1.143l2.697,1.372l1.062,0.665
		l0.574,0.429l0.409,0.197l2.629,1.119l2.153,1.415l0.567,0.479l0.961,0.425l1.136,0.62l0.713,0.469l0.644,0.14l2.081,0.778
		l1.121,0.614l1.146,0.566l2.143,1.531l0.958,0.521l3.309,1.441l1.028,0.777l0.977,0.336l1.782,0.767l1.288,0.642l1.936,1.367
		l0.367-0.124l1.475-0.965l1.255-0.713l2.417-0.883l0.346-0.07l0.573-0.349l0.741-0.599l2.465-1.34l1.426-0.466l2.02-1.314
		l0.818-0.321l0.759-0.434l3.572-1.333l0.273-0.245l1.353-0.972l1.256-0.711l1.083-0.509l0.752-0.283l1.383-0.76l1.314-0.598
		l1.92-0.603l1.559-0.95l1.268-0.682l1.356-0.571l0.799-0.25l1.558-0.801l2.282-1.447l0.746-0.408l1.17-0.56l1.383-0.724L149.048,0
		l9.774,7.964l0.948-0.084l0.081,0.922l0.109,0.09l-0.065,0.26l0.223,1.351l0.175,1.438l0.057,1.059l-0.018,1.111l0.094,1.596
		l0.009,1.438l-0.402,2.371l-0.064,1.98l0.026,0.159l0.103,1.573l-0.075,1.834l0.056,0.21l0.054,6.478l-0.153,0.723l0.102,0.532
		l0.041,2.671l-0.06,0.378l0.044,0.371l0.044,1.295l-0.045,0.893l0.082,0.893l-0.005,1.47l-0.282,2.366l0.205,0.906l0.038,3.246
		l-0.002,0.008l0.001,0.112l1.374,0.998l0.398,0.38l0.624,0.279l2.361,0.801l2.807,1.745l1.829,1.019l4.393,2.144l2.294,1.289
		l0.595,0.128l2.376,0.939l1.747,1.081l0.726,0.52l0.78,0.403l1.265,0.8l1.4,0.433l2.694,1.588l1.022,0.538l0.776-0.359l0.447,0.967
		l1.427,0.547l2.205,1.136l1.107,0.476l1.681,1.237l1.446,0.5l1.861,1.047l1.763,1.195l1.826,0.712l2.188,1.306l0.303,0.256
		l1.52,0.834l0.269,0.074l2.136,0.956l0.303,0.195l0.363,0.111l2.886,1.535l1.389,0.51l2.284,1.316l0.603,0.501l0.652,0.37
		l-7.674,13.502l-1.249-0.71l-1.33-0.9l-1.332-0.483l-2.181-1.224l-2.401-1.102l-2.668-1.658l-3.065-1.456l-1.297-0.497
		l-1.701-0.911l-1.689-1.171l-0.079,0.092l-2.71,2.1l-1.958,1.928l-1.956,2.313l-2.14,2.129l-0.961,0.799l-0.588,0.413l-0.319,0.33
		l-1.878,2.142l-2.024,1.609l-0.621,0.38l-0.701,0.778l-0.944,0.886l-0.663,0.527l-0.333,0.566l-1.391,1.735l-0.928,0.866
		l-0.889,0.906l-2.122,1.557l-0.805,0.758l-2.395,2.684l-1.053,0.728l-0.617,0.815l-1.286,1.458l-1.007,1.019l-1.112,0.831
		l0.161,2.492l-0.284,2.221l0.062,2.318l0.136,2.937l-0.106,0.732l0.035,1.094l-0.051,3.528l-0.105,1.159l-0.082,4.821l0.064,0.298
		l0.156,1.075l0.129,1.954l0.012,1.439l-0.353,2.386l0.247,1.425l0.107,1.442l0.007,1.045l-0.059,0.968l0.06,0.969l-0.17,2.163
		l-0.056,3.093l0.036,2.417l-0.023,3.012l-0.07,0.346l0.136,0.548l0.119,3.167l-0.073,0.43l0.04,0.421l-0.303,2.624l0.193,1.229
		l0.043,2.098l-0.125,1.078l0.066,0.235l-0.091,3.767l0.026,0.19l0.068,1.237l-0.081,2.127l0.046,0.192l0.2,2.211l-0.076,1.439
		l-0.199,1.39l0.01,0.076l0.065,0.994l0.003,1.218l0.072,1.217l-0.144,2.026l0.028,3.403l-0.001,0.002l0.011,1.572l-0.101,1.004
		l0.009,0.625l0.117,1.069l-0.2,2.807l0.064,0.223l0.28,2.772l-0.115,1.443l-0.188,1.142l0.159,4.973l-0.125,1.186l0.132,0.648
		l-0.178,3.616l0.043,0.762l0.011,1.444l-0.035,0.804l-0.116,1.458l0.125,0.635l0.142,1.795l-0.029,0.765l0.107,0.772l-0.089,2.656
		L159.791,226.133z M143.832,174.618l0.742,0.575l0.031-0.738l-0.112-0.827l0.229-2.408l-0.218-1.826l0.147-2.421l-0.285-1.936
		l0.308-3.387l0.062-1.704l-0.205-1.388l-0.073-1.442l0.155-1.988l0.116-3.057l-0.058-2.363l0.006-3.289l0.083-0.384l-0.021-0.362
		l-0.001-0.945l0.056-0.918l-0.013-0.165l-0.196-0.712l-0.271-2.415l0.065-1.441l0.399-2.206l-0.048-0.64l-0.197-0.906l0.166-2.714
		l-0.309-2.5l0.104-1.17l0.074-1.979l-1.225,1.139l-1.513,1.493l-2.064,2.271l-0.611,0.441l-0.512,0.531l-1.267,1.075l-1.629,2.084
		l-0.992,1.037l-0.803,0.729l-1.767,1.356l-0.587,0.692l-0.979,1.05l-1.157,1.049l-2.205,2.216l-0.695,0.462l-0.96,0.866
		l-1.643,1.357l-0.139,0.285l-2.459,2.584l-0.161,0.243l-1.021,1.215l0.958,1.176l0.167,0.287l0.516,0.426l0.81,0.505l2.073,1.889
		l0.9,1.187l1.901,1.474l0.57,0.667l0.657,0.573l2.422,2.928l0.319,0.178l1.36,0.958l1.082,0.951l0.836,0.858l0.513,0.614
		l1.172,1.059l0.991,1.042l1.193,1.608l1.411,1.164l1.06,0.975l0.985,1.096l0.492,0.666L143.832,174.618z M73.096,174.901
		l0.003,0.014l0.854-0.814l1.713-1.296l0.081-0.152l3.733-3.506l1.476-1.467l0.291-0.46l2.64-2.548l1.799-1.657l0.833-1.179
		l2.003-1.96l0.617-0.415l0.516-0.505l0.851-0.722l0.805-0.589l0.078-0.133l1.053-1.408l1.322-1.382l1.853-1.688l0.486-0.597
		l1.484-1.217l-0.172-0.121l-2.021-1.906l-1.551-2.03l-1.55-1.593l-1.521-1.466l-2.33-2.016l-0.455-0.601l-0.544-0.499l-1.104-1.236
		l-2.123-1.577l-1.061-0.965l-0.751-0.787l-1.4-1.733l-0.707-0.57l-1.073-0.952l-1.076-1.13l-2.269-2.146l-0.481-0.688l-0.885-0.933
		l-1.419-1.621l-0.022,0.247l-0.081,4.828l0.064,0.298l0.155,1.064l0.13,1.964l0.011,1.439l-0.353,2.377l0.248,1.431l0.106,1.442
		l0.007,1.038l-0.059,0.97l0.06,0.968l-0.17,2.164l-0.054,3.088l0.035,2.427l-0.023,3.004l-0.071,0.349l0.136,0.549l0.12,3.16
		l-0.074,0.436l0.04,0.426l-0.302,2.621l0.192,1.222l0.044,2.103l-0.125,1.081l0.067,0.239l-0.092,3.757l0.025,0.188l0.069,1.247
		L73.096,174.901z M107.302,139.068l0.316,0.159l1.236,1.217l0.205-0.31l1.741-1.604l1.006-1.472l0.976-1.055l0.685-0.655
		l2.138-1.779l0.879-0.812l0.936-0.734l1.754-1.852l0.583-0.43l0.313-0.336l0.754-0.923l1.499-1.403l1.589-1.176l0.277-0.29
		l1.588-2.077l1.457-1.429l0.659-0.494l0.564-0.586l0.998-0.865l1.926-2.14l0.253-0.186l0.189-0.252l1.713-1.661l0.392-0.277
		l0.304-0.355l2.981-2.354l0.165-0.309l2.942-2.902l0.417-0.494l0.969-1.055l1.085-0.918l0.942-1.302l0.635-0.666l-0.01-0.56
		l0.027-1.352l-0.002-1.117l-0.075-1.206l0.005-1.045l0.207-2.26l-0.025-0.144l-0.118-1.205l-0.028-1.44l0.181-1.599l-0.195-2.09
		l0.078-0.914l-0.046-0.914l0.354-2.746l-0.12-0.788l-0.074-1.624l0.064-1.082l-0.034-1.082l0.061-1.374l-0.083-0.52l0.134-2.798
		l-0.103-0.907l-0.072-1.435l0.22-2.153l-0.206-1.061l-0.13-1.03l-0.097-1.905l0.046-4.39l0.135-1.347l0.119-0.634l-0.006-0.256
		l-0.174-1.663l-0.113-3.302l0.001-0.067l-0.172-0.092l-2.354-1.475l-1.047-0.583l-0.985-0.655l-2.303-1.085l-0.599-0.425
		l-0.427-0.198l-1.114-0.43l-1.794-0.981l-1.624-1.148l-0.366-0.175l-2.471-0.861l-1.814-0.938l-0.676-0.472l-0.732-0.354
		l-1.128-0.675l-2.632-1.159l-0.269-0.19l-0.312-0.107l-2.1-1.103l-0.391-0.289l-0.439-0.18l-3.173-2.101l-0.351-0.062l-3.691-1.897
		l-0.596-0.241l-1.31-0.594l-1.241-0.754l-0.26,0.179l-2.083,0.822l-1.338,0.959l-2.47,1.286L99.6,42.108l-2.019,0.943l-1.882,0.956
		l-2.674,1.543l-0.719,0.235l-0.651,0.351l-1.533,0.639l-2.186,1.487l-1.262,0.688l-0.993,0.454l-2.104,0.757l-0.777,0.484
		l-1.257,0.704l-1.421,0.647l-2.776,1.441l-0.808,0.229l-1.17,0.529l-1.983,0.795l-0.222,0.232l-0.173,0.095l-0.138,0.734
		l0.083,2.225l0.186,1.875l0.033,1.439l-0.131,1.613l-0.146,0.775l-0.036,3.322l0.04,0.686l0.237,1.268l0.213,1.436l-0.221,3.305
		l0.14,0.786l-0.119,3.048l0.07,1.792l-0.079,1.004l0.031,1.003l-0.046,1.327l0.096,0.627l0.082,0.885l0.052,1.437l-0.364,2.653
		l0.006,0.115l-0.022,1.089l0.025,0.092l0.055,3.95l-0.093,0.373l0.128,0.717l0.021,2.595l-0.179,1.105l-0.042,0.582l0.071,1.383
		l0.003,1.439l-0.023,1.322l0.022,0.425l0.179,0.729l0.071,0.889l1.123,0.848l1.675,1.507l0.979,1.047l1.584,2.146l0.379,0.382
		l0.483,0.303l1.644,1.699l1.498,0.971l1.078,0.949l0.675,0.671l1.828,2.09l0.836,0.863l0.754,0.912l1.894,1.706l0.445,0.574
		l0.346,0.307l0.94,0.731l1.44,1.464l1.213,1.558l0.297,0.271l2.114,1.535l1.465,1.421l0.512,0.647l0.601,0.552l0.888,0.974
		l2.184,1.869l0.195,0.252l0.26,0.187l1.698,1.667l0.288,0.386l0.364,0.296L107.302,139.068z M159.943,89.994l0.005,0.111
		l-0.007,0.41l1.038-0.859l0.185-0.315l0.986-1.328l0.977-1.059l0.884-0.819l0.625-0.496l1.085-1.145l1.066-0.966l1.64-1.153
		l1.197-1.382l1-1.035l1.119-0.957l0.681-0.479l1.231-1.229l1.721-2.06l0.584-0.614l0.682-0.644l-1.372-0.713l-0.594-0.46
		l-0.647-0.335l-0.951-0.583l-0.82-0.587l-0.157-0.034l-1.66-0.558l-1.734-0.829l-2.177-1.23l-0.714-0.273l-1.945-1.237l-2.354-0.95
		l-0.388-0.275l-0.438-0.17l-0.803-0.524l-0.039,0.204l-0.036,3.318l0.04,0.683l0.238,1.27l0.213,1.436l-0.221,3.305l0.14,0.787
		l-0.12,3.038l0.071,1.801l-0.079,1.004l0.031,1.003l-0.046,1.327l0.096,0.627l0.082,0.886l0.052,1.437L159.943,89.994z
		 M55.937,88.771l1.432,1.021l0.074-0.871l-0.046-0.916l0.354-2.738l-0.12-0.789l-0.074-1.624l0.064-1.082l-0.034-1.082l0.061-1.377
		l-0.082-0.52l0.133-2.795l-0.103-0.906l-0.072-1.436l0.22-2.154l-0.206-1.067l-0.129-1.023l-0.097-1.905l0.046-4.354l-1.856,0.863
		l-4.319,2.303l-2.388,1.101l-0.451,0.405l-2.156,1.374l-1.898,0.779l-0.848,0.284l-0.787,0.395l-1.389,0.557l-1.171,0.88
		l-0.824,0.358l0.341,0.387l2.515,2.279l1.103,0.856l1.362,1.358l1.342,1.685l0.148,0.074l2.907,3.048l0.696,0.602l1.503,1.439
		l0.466,0.278l2.612,2.574L55.937,88.771z M141.843,38.226l0.854,0.347l1.306,0.604l0.589,0.342l-0.003-0.036l-0.023-1.093
		l0.039-0.79l-0.094-0.793l0.059-2.229l-0.021-0.108l-0.132-1.737l0.053-1.439l0.17-1.354l0.026-2.308l-0.225-2.32l0.106-1.859
		l-0.11-0.657l-0.003-2.559l0.055-0.332l-0.014-0.111l-2.292,1.375l-2.415,0.915l-0.717,0.177l-0.908,0.529l-1.165,0.556l-0.8,0.303
		l-0.488,0.437l-1.856,1.233l-1.155,0.548l-1.132,0.595l-2.497,0.837l-0.98,0.469l-2.867,1.691l0.72,0.52l1.959,1.086l1.874,0.962
		l2.818,1.261l0.609,0.442l0.664,0.32l1.417,0.867l2.488,0.897l1.298,0.619l0.949,0.538L141.843,38.226z M73.135,37.174l0.08,0.881
		l0.672-0.371l0.694-0.234l0.409-0.229l1.001-0.65l1.857-0.882l1.875-0.637l0.356-0.194l2.145-1.495l1.827-0.919l0.78-0.271
		l0.716-0.386l1.208-0.519l2.491-1.454l0.304-0.103l0.264-0.186l0.649-0.323l-0.722-0.463l-0.798-0.36l-3.175-2.11l-0.362-0.078
		l-1.574-0.523l-1.312-0.599l-1.05-0.582l-0.668-0.44l-1.429-0.675l-1.253-0.713l-1.613-1.2l-1.688-0.706l-1.296-0.627l-0.498-0.303
		l-0.028,0.233l0.027,0.163l0.102,1.569l-0.075,1.834l0.057,0.215l0.054,6.47l-0.153,0.724l0.101,0.526l0.041,2.681l-0.06,0.375
		l0.044,0.368l0.044,1.305L73.135,37.174z"/>
</g>
</svg>