<!-- Generator: Adobe Illustrator 19.2.1, SVG Export Plug-In  -->
<svg version="1.1"
	 xmlns="http://www.w3.org/2000/svg" xmlns:xlink="http://www.w3.org/1999/xlink" xmlns:a="http://ns.adobe.com/AdobeSVGViewerExtensions/3.0/"
	 x="0px" y="0px" width="189.008px" height="57.499px" viewBox="0 0 189.008 57.499"
	 style="enable-background:new 0 0 189.008 57.499;" xml:space="preserve">
<style type="text/css">
	.st0{fill:#EBECEC;}
</style>
<defs>
</defs>
<g>
	<g>
		<path class="st0" d="M73.081,57.499c0.045-0.293-0.126-0.429-0.36-0.554c-2.159-1.152-3.14-3.763-2.499-6.013
			c0.303-1.064,0.696-2.103,1.041-3.155c0.075-0.229,0.161-0.466,0.171-0.702c0.01-0.223-0.011-0.593-0.13-0.645
			c-0.233-0.102-0.634-0.144-0.806-0.009c-0.621,0.491-1.232,1.019-1.742,1.621c-0.573,0.676-1.036,1.447-1.543,2.179
			c-0.137,0.198-0.252,0.413-0.397,0.604c-0.13,0.171-0.267,0.352-0.44,0.474c-0.279,0.198-0.52,0.072-0.552-0.263
			c-0.011-0.12-0.011-0.243,0.004-0.362c0.093-0.741,0.123-1.499,0.31-2.216c0.181-0.693,0.502-1.355,0.807-2.009
			c0.151-0.324,0.493-0.621,0.226-0.981c-0.251-0.338-0.696-0.239-1.018-0.139c-0.897,0.278-1.777,0.613-2.476,1.292
			c-0.815,0.791-1.655,1.556-2.466,2.351c-0.906,0.889-1.942,1.558-3.1,2.085c-1.13,0.514-2.306,0.868-3.502,1.122
			c-1.274,0.271-2.583,0.344-3.881,0.063c-0.389-0.084-0.727-0.253-0.98-0.572c-0.208-0.262-0.171-0.502,0.135-0.629
			c0.151-0.062,0.331-0.05,0.495-0.083c0.283-0.057,0.572-0.1,0.844-0.19c2.137-0.706,3.668-2.176,4.918-3.974
			c0.661-0.951,1.501-1.692,2.458-2.318c0.081-0.053,0.176-0.088,0.246-0.151c0.199-0.178,0.17-0.416-0.087-0.511
			c-0.171-0.064-0.384-0.099-0.557-0.059c-0.586,0.134-1.161,0.315-1.743,0.465c-2.012,0.519-4.027,1.019-6.137,0.784
			c-0.466-0.052-0.909-0.153-1.277-0.454c-0.244-0.199-0.222-0.414,0.04-0.586c0.079-0.051,0.172-0.095,0.264-0.109
			c0.865-0.127,1.481-0.669,2.078-1.241c0.608-0.583,1.149-1.232,1.96-1.585c0.482-0.21,0.484-0.573,0.072-0.898
			c-0.143-0.114-0.336-0.186-0.517-0.227c-1.484-0.338-2.981-0.618-4.51-0.552c-1.058,0.046-2.111,0.183-3.168,0.248
			c-1.135,0.07-2.27,0.037-3.39-0.187c-0.9-0.18-1.777-0.401-2.576-0.902c-0.744-0.466-1.441-0.964-1.969-1.676
			c-0.372-0.502-0.759-0.994-1.138-1.491c-0.058-0.076-0.117-0.156-0.155-0.243c-0.147-0.336,0.029-0.597,0.4-0.546
			c0.232,0.032,0.462,0.135,0.675,0.241c1.306,0.647,2.697,0.656,4.103,0.565c1.143-0.074,2.081-0.63,3.056-1.176
			c0.761-0.426,1.593-0.829,2.529-0.797c0.097,0.003,0.212,0.028,0.286-0.014c0.153-0.088,0.369-0.195,0.398-0.33
			c0.031-0.142-0.079-0.407-0.206-0.477c-0.819-0.453-1.559-1.053-2.495-1.292c-0.746-0.191-1.502-0.389-2.206-0.694
			c-0.905-0.393-1.809-0.84-2.316-1.769c-0.072-0.131-0.126-0.332-0.076-0.456c0.097-0.241,0.319-0.151,0.5-0.077
			c0.517,0.21,1.026,0.188,1.559,0.033c0.717-0.209,1.441-0.414,2.177-0.536c0.632-0.105,1.283-0.197,1.9,0.181
			c0.22,0.135,0.585,0.359,0.789,0.088c0.133-0.177,0.104-0.569,0.008-0.809c-0.258-0.646-0.551-1.286-0.904-1.885
			c-0.735-1.248-1.341-2.546-1.85-3.905c-0.346-0.923-0.516-1.863-0.582-2.818c-0.068-0.982-0.03-1.976,0.425-2.899
			c0.319-0.647,0.598-1.315,0.925-1.958c0.117-0.229,0.295-0.449,0.495-0.61c0.297-0.237,0.544-0.103,0.577,0.284
			c0.054,0.624,0.107,1.248,0.144,1.873c0.059,0.972,0.645,1.64,1.297,2.264c0.224,0.215,0.487,0.402,0.759,0.552
			c0.605,0.334,1.057,0.095,1.132-0.586c0.029-0.263,0-0.533,0.015-0.798c0.074-1.301,0.144-2.602,0.598-3.845
			c0.066-0.18,0.09-0.374,0.137-0.561c0.188-0.747,0.396-1.49,0.56-2.242c0.215-0.988,0.429-1.98,0.573-2.98
			c0.048-0.333-0.105-0.701-0.191-1.046c-0.059-0.238-0.185-0.523,0.064-0.655c0.181-0.096,0.498-0.087,0.686,0.009
			c0.731,0.375,1.257,0.985,1.623,1.705c0.73,1.44,0.707,2.975,0.511,4.532c-0.093,0.741-0.158,1.492,0.058,2.23
			c0.063,0.216,0.146,0.475,0.406,0.419c0.178-0.038,0.394-0.221,0.461-0.391c0.237-0.603,0.412-1.231,0.622-1.845
			c0.117-0.341,0.291-0.664,0.384-1.01c0.37-1.382,1.006-2.66,1.589-3.952c0.373-0.827,0.86-1.635,1.443-2.328
			c1.303-1.552,2.698-3.027,4.055-4.534c0.032-0.036,0.051-0.085,0.086-0.117c0.228-0.208,0.439-0.186,0.567,0.091
			c0.152,0.328,0.337,0.663,0.384,1.012c0.144,1.062,0.13,2.131-0.243,3.15c-0.248,0.677-0.575,1.325-0.873,1.983
			c-0.257,0.568-0.404,1.147-0.144,1.75c0.083,0.193,0.206,0.385,0.356,0.53c0.26,0.252,0.483,0.246,0.768,0.005
			c0.202-0.172,0.374-0.379,0.57-0.559c0.79-0.725,1.67-1.291,2.683-1.674c1.355-0.512,2.737-0.932,4.128-1.326
			c0.231-0.065,0.45-0.174,0.673-0.267c0.134-0.056,0.259-0.146,0.398-0.174c0.281-0.056,0.631-0.157,0.786,0.15
			c0.082,0.164-0.013,0.463-0.109,0.662c-0.478,0.999-0.986,1.984-1.475,2.978c-0.084,0.171-0.17,0.357-0.184,0.542
			c-0.011,0.151,0.041,0.366,0.146,0.446c0.079,0.06,0.303-0.019,0.434-0.09c0.698-0.377,1.304-0.924,2.095-1.125
			c0.559-0.142,1.12-0.276,1.681-0.409c0.164-0.039,0.335-0.051,0.496-0.097c1.045-0.299,2.109-0.492,3.183-0.666
			c0.519-0.084,1.001-0.437,1.482-0.701c0.293-0.161,0.544-0.399,0.829-0.578c0.192-0.121,0.343-0.016,0.364,0.188
			c0.025,0.238,0.06,0.506-0.022,0.717c-0.208,0.538-0.464,1.059-0.73,1.572c-0.258,0.497-0.685,0.777-1.226,0.945
			c-0.764,0.237-1.477,0.591-2.1,1.112c-0.367,0.306-0.461,0.73-0.52,1.157c-0.04,0.285,0.176,0.444,0.471,0.372
			c0.233-0.056,0.481-0.124,0.674-0.258c0.955-0.662,1.993-0.632,3.06-0.409c0.115,0.024,0.236,0.066,0.329,0.134
			c0.206,0.151,0.29,0.357,0.056,0.537c-0.244,0.188-0.524,0.328-0.788,0.49c-0.244,0.15-0.516,0.269-0.722,0.46
			c-0.27,0.251-0.226,0.52,0.07,0.725c0.097,0.067,0.215,0.119,0.33,0.139c1.204,0.209,2.383,0.588,3.645,0.31
			c0.7-0.154,1.438-0.14,2.159-0.189c0.722-0.05,1.444-0.105,2.167-0.118c0.382-0.007,0.771,0.129,1.149,0.097
			c1.66-0.139,3.051,0.607,4.456,1.309c0.143,0.072,0.305,0.275,0.309,0.421c0.007,0.275-0.25,0.317-0.478,0.317
			c-0.775,0.002-1.549,0.01-2.324-0.006c-0.754-0.016-1.463,0.197-2.056,0.608c-0.438,0.303-0.783,0.779-1.083,1.234
			c-0.573,0.87-1.299,1.385-2.379,1.376c-0.6-0.005-1.202,0.08-1.801,0.139c-0.273,0.027-0.304,0.156-0.12,0.388
			c0.351,0.442,0.847,0.603,1.361,0.773c0.777,0.257,1.522,0.609,2.149,1.149c0.464,0.4,0.424,0.726-0.145,0.965
			c-0.418,0.175-0.88,0.247-1.326,0.352c-0.281,0.066-0.576,0.085-0.85,0.169c-0.525,0.16-0.685,0.659-0.268,0.988
			c1.517,1.196,2.637,2.848,4.367,3.793c0.655,0.358,1.328,0.685,1.981,1.046c0.904,0.501,1.816,0.998,2.605,1.672
			c0.455,0.389,0.908,0.799,1.271,1.269c0.302,0.392,0.476,0.885,0.696,1.338c0.04,0.083,0.04,0.189,0.043,0.284
			c0.015,0.439-0.191,0.568-0.585,0.385c-0.502-0.233-1.012-0.448-1.515-0.676c-0.651-0.296-1.344-0.384-2.046-0.385
			c-1.306-0.002-2.611-0.051-3.89-0.306c-0.744-0.148-1.526-0.243-2.162-0.756c-0.112-0.09-0.39-0.08-0.531-0.004
			c-0.22,0.118-0.179,0.364-0.11,0.586c0.165,0.528,0.341,1.054,0.473,1.59c0.072,0.292,0.203,0.666-0.117,0.865
			c-0.314,0.195-0.579-0.054-0.833-0.258c-0.185-0.149-0.41-0.269-0.636-0.336c-0.134-0.04-0.342,0.003-0.452,0.09
			c-0.149,0.119-0.191,0.297-0.078,0.516c0.253,0.491,0.502,0.991,0.68,1.512c0.155,0.452,0.217,0.937,0.308,1.41
			c0.327,1.687,0.396,3.397,0.461,5.108c0.04,1.066,0.212,2.115,0.751,3.061c0.128,0.225,0.357,0.392,0.505,0.609
			c0.085,0.125,0.173,0.328,0.127,0.442c-0.048,0.117-0.249,0.214-0.397,0.242c-1.023,0.19-1.652-0.412-2.145-1.167
			c-0.709-1.086-1.349-2.216-2.044-3.312c-0.482-0.76-1.116-1.388-1.84-1.923c-0.058-0.043-0.122-0.092-0.189-0.103
			c-0.253-0.042-0.508-0.069-0.763-0.101c-0.02,0.253-0.106,0.522-0.05,0.757c0.291,1.239,0.108,2.439-0.235,3.63
			c-0.038,0.131-0.13,0.261-0.23,0.357c-0.168,0.161-0.358,0.162-0.48-0.06c-0.176-0.317-0.326-0.649-0.497-0.969
			c-0.158-0.296-0.323-0.722-0.682-0.653c-0.438,0.084-0.276,0.561-0.264,0.87c0.037,0.935-0.192,1.799-0.472,2.688
			C76.4,47.922,76,48.743,75.719,49.613c-0.272,0.844-0.694,1.641-0.935,2.492c-0.215,0.758-0.335,1.557-0.384,2.345
			c-0.063,1.013-0.013,2.032-0.012,3.049C73.953,57.499,73.517,57.499,73.081,57.499z M52.099,27.638
			c0.022,0.001,0.043,0.003,0.065,0.004c0,0.532-0.043,1.069,0.01,1.596c0.074,0.74,0.193,1.478,0.343,2.206
			c0.092,0.442,0.279,0.865,0.424,1.297c0.046,0.137,0.074,0.285,0.143,0.41c0.412,0.756,0.815,1.517,1.258,2.254
			c0.272,0.452,0.571,0.901,0.928,1.285c1.269,1.363,2.582,2.684,4.269,3.542c0.663,0.338,1.345,0.639,2.022,0.95
			c0.084,0.039,0.192,0.022,0.284,0.046c0.348,0.09,0.697,0.179,1.042,0.281c0.3,0.088,0.591,0.256,0.894,0.279
			c1.034,0.078,2.071,0.13,3.108,0.146c0.552,0.009,1.104-0.102,1.657-0.112c0.497-0.008,0.95-0.128,1.399-0.328
			c0.26-0.116,0.544-0.178,0.817-0.264c0.363-0.114,0.731-0.215,1.088-0.346c0.224-0.082,0.434-0.202,0.646-0.314
			c0.614-0.322,1.269-0.587,1.828-0.987c1.001-0.715,1.911-1.545,2.773-2.429c0.917-0.941,1.641-1.999,2.167-3.199
			c0.067-0.152,0.188-0.279,0.269-0.426c0.09-0.165,0.191-0.333,0.237-0.513c0.137-0.534,0.213-1.082,0.547-1.555
			c0.116-0.165,0.139-0.411,0.162-0.625c0.106-0.957,0.2-1.915,0.29-2.874c0.02-0.216,0.019-0.437-0.001-0.653
			c-0.089-0.959-0.181-1.917-0.289-2.874c-0.027-0.237-0.071-0.492-0.184-0.696c-0.41-0.739-0.555-1.575-0.933-2.338
			c-0.663-1.337-1.499-2.528-2.497-3.611c-0.886-0.96-1.941-1.708-3.052-2.409c-1.223-0.771-2.54-1.282-3.902-1.646
			c-1.013-0.271-2.093-0.303-3.147-0.399c-1.042-0.095-2.062,0.173-3.092,0.26c-1.112,0.094-2.093,0.567-3.104,0.936
			c-0.667,0.244-1.27,0.674-1.88,1.055c-0.858,0.537-1.723,1.083-2.398,1.846c-0.717,0.81-1.426,1.638-2.036,2.529
			c-0.486,0.709-0.858,1.507-1.207,2.298c-0.281,0.637-0.454,1.322-0.671,1.987c-0.03,0.091-0.051,0.188-0.058,0.283
			C52.243,25.569,52.172,26.604,52.099,27.638z"/>
		<path class="st0" d="M189.008,29.897c-0.255-0.029-0.4,0.072-0.474,0.33c-0.341,1.192-1.155,2.062-2.06,2.833
			c-0.956,0.815-2.12,1.246-3.34,1.475c-1.265,0.238-2.551,0.26-3.819,0.008c-1.241-0.247-2.387-0.714-3.4-1.512
			c-0.779-0.613-1.374-1.377-1.814-2.225c-0.362-0.697-0.638-1.49-0.724-2.266c-0.125-1.12-0.19-2.269,0.085-3.391
			c0.063-0.255,0.176-0.499,0.28-0.742c0.287-0.669,0.151-0.899-0.561-0.901c-1.646-0.003-3.292-0.002-4.937,0.004
			c-0.737,0.003-0.886,0.155-0.887,0.902c-0.003,2.856-0.027,5.712,0.015,8.568c0.015,1.021-0.223,1.638-1.774,1.497
			c-0.716-0.065-1.443-0.007-2.166-0.002c-0.263,0.002-0.534,0.054-0.787,0.008c-0.637-0.117-0.805-0.328-0.806-0.99
			c-0.005-4.236-0.006-8.471-0.001-12.707c0.001-0.782,0.273-1.056,1.043-1.057c3.364-0.005,6.729-0.004,10.093,0
			c0.759,0.001,1.032,0.273,1.059,1.048c0.014,0.411-0.001,0.823,0,1.234c0,0.169-0.012,0.342,0.018,0.507
			c0.02,0.107,0.084,0.252,0.168,0.288c0.066,0.029,0.21-0.064,0.287-0.137c0.085-0.08,0.132-0.201,0.2-0.3
			c0.777-1.139,1.843-1.861,3.131-2.348c1.538-0.582,3.091-0.58,4.698-0.497c0.984,0.051,1.879,0.348,2.692,0.758
			c1.415,0.715,2.602,1.752,3.208,3.301c0.113,0.288,0.161,0.631,0.576,0.648C189.008,26.12,189.008,28.009,189.008,29.897z
			 M183.253,27.081c-0.066-0.7-0.082-1.428-0.218-2.132c-0.121-0.628-0.456-1.18-1.109-1.414c-1.458-0.522-2.273,0.254-2.623,1.543
			c-0.167,0.615-0.149,1.289-0.155,1.937c-0.005,0.551,0.113,1.103,0.106,1.653c-0.007,0.538,0.173,0.97,0.466,1.407
			c0.507,0.758,1.248,0.756,2.001,0.658c0.591-0.076,1.257-0.846,1.33-1.472C183.134,28.546,183.185,27.826,183.253,27.081z"/>
		<path class="st0" d="M116.804,27.066c0-1.961,0-3.921,0-5.882c0-0.194-0.008-0.388,0.004-0.581
			c0.035-0.554,0.316-0.864,0.858-0.87c1.258-0.016,2.518,0.011,3.776-0.011c0.421-0.007,0.735,0.251,0.852,0.735
			c0.045,0.184,0.029,0.385,0.03,0.578c0.002,1.017-0.006,2.033,0.002,3.05c0.005,0.707,0.166,0.869,0.843,0.877
			c0.581,0.007,1.162,0.012,1.743-0.004c0.592-0.016,0.887-0.306,0.894-0.899c0.013-1.065,0.041-2.132-0.012-3.194
			c-0.039-0.771,0.441-1.184,1.128-1.151c1.111,0.053,2.226,0.009,3.34,0.017c0.818,0.006,1.076,0.265,1.077,1.097
			c0.004,4.163,0.003,8.327,0,12.49c0,0.192-0.007,0.391-0.058,0.573c-0.074,0.265-0.218,0.496-0.537,0.513
			c-0.403,0.023-0.807,0.044-1.211,0.05c-0.699,0.011-1.398,0.005-2.097,0.015c-0.24,0.003-0.484,0.07-0.717,0.039
			c-0.696-0.093-0.905-0.342-0.908-1.056c-0.007-1.234,0.001-2.469,0-3.703c0-0.842-0.161-1.003-1.022-1.013
			c-0.605-0.007-1.21-0.013-1.815,0c-0.53,0.011-0.64,0.114-0.644,0.645c-0.011,1.259-0.002,2.517-0.004,3.776
			c0,0.217,0.012,0.441-0.031,0.651c-0.067,0.325-0.224,0.594-0.613,0.611c-0.38,0.016-0.76,0.037-1.141,0.041
			c-0.699,0.007-1.398,0.001-2.097,0.007c-0.095,0.001-0.188,0.047-0.283,0.058c-0.945,0.108-1.35-0.247-1.352-1.212
			C116.8,31.23,116.804,29.148,116.804,27.066z"/>
		<path class="st0" d="M13.8,27.146c0-2.033,0-4.065,0-6.098c0-0.193-0.01-0.389,0.013-0.58c0.056-0.47,0.275-0.718,0.748-0.726
			c1.33-0.023,2.661-0.013,3.992-0.007c0.331,0.001,0.548,0.189,0.617,0.509c0.066,0.305,0.143,0.618,0.138,0.927
			c-0.015,0.916-0.056,1.832-0.111,2.746c-0.039,0.653,0.249,1.021,0.899,1.038c0.677,0.018,1.355,0.015,2.032,0.007
			c0.503-0.006,0.656-0.137,0.679-0.637c0.027-0.604,0.009-1.21,0.01-1.815c0.001-0.629-0.014-1.259,0.006-1.887
			c0.023-0.721,0.211-0.895,0.922-0.897c1.186-0.004,2.371-0.005,3.557,0.001c0.654,0.003,0.852,0.166,0.978,0.814
			c0.041,0.211,0.04,0.433,0.04,0.649c0.002,3.92,0.004,7.84-0.003,11.76c-0.001,0.31-0.048,0.625-0.114,0.93
			c-0.098,0.452-0.283,0.608-0.738,0.644c-0.214,0.017-0.433-0.028-0.65-0.029c-0.865-0.006-1.731-0.009-2.597-0.007
			c-0.144,0-0.287,0.04-0.431,0.043c-0.561,0.012-0.86-0.227-0.949-0.774c-0.031-0.189-0.02-0.386-0.02-0.579
			c-0.002-1.234,0.005-2.468-0.003-3.702c-0.004-0.668-0.084-0.74-0.762-0.744c-0.605-0.004-1.21-0.003-1.815,0.004
			c-0.897,0.011-1.051,0.291-1.004,1.158c0.068,1.248,0.048,2.507-0.033,3.755c-0.044,0.673-0.495,0.966-1.162,0.871
			c-0.916-0.131-1.819-0.141-2.738-0.011c-0.343,0.049-0.732-0.033-1.062-0.157c-0.182-0.068-0.335-0.327-0.411-0.532
			c-0.071-0.193-0.028-0.43-0.028-0.648C13.799,31.163,13.8,29.155,13.8,27.146z"/>
		<path class="st0" d="M133.515,27.076c0-1.984,0-3.969,0.001-5.953c0-0.193-0.012-0.39,0.016-0.58
			c0.08-0.539,0.374-0.793,0.929-0.812c0.314-0.011,0.629-0.003,0.944-0.003c2.928,0,5.856-0.001,8.784-0.001
			c0.145,0,0.291-0.004,0.436,0.001c0.757,0.026,1.066,0.315,1.086,1.053c0.017,0.605,0.015,1.21,0,1.815
			c-0.016,0.673-0.243,0.905-0.938,0.912c-1.452,0.014-2.904,0.004-4.356,0.004c-0.194,0-0.388-0.011-0.581,0.003
			c-0.522,0.04-0.809,0.321-0.786,0.756c0.024,0.462,0.36,0.805,0.832,0.837c0.169,0.011,0.339,0.002,0.508,0.001
			c1.065-0.001,2.13-0.009,3.194,0.001c0.731,0.007,0.957,0.231,0.974,0.95c0.013,0.58,0.007,1.162-0.001,1.742
			c-0.011,0.721-0.182,0.91-0.896,0.922c-1.016,0.017-2.033,0.004-3.049,0.004c-0.169,0-0.339-0.003-0.508-0.002
			c-0.906,0.003-1.339,0.629-1.024,1.486c0.092,0.25,0.28,0.391,0.547,0.41c0.193,0.014,0.387,0.012,0.58,0.012
			c1.573,0,3.146-0.005,4.719-0.002c0.793,0.002,0.939,0.146,0.947,0.923c0.007,0.677,0.014,1.355-0.003,2.033
			c-0.018,0.695-0.392,0.999-1.074,0.94c-0.6-0.052-1.201-0.107-1.803-0.11c-2.275-0.013-4.549-0.009-6.824-0.001
			c-0.336,0.001-0.672,0.086-1.006,0.075c-0.38-0.013-0.775-0.04-1.132-0.156c-0.3-0.098-0.509-0.364-0.511-0.725
			c-0.002-0.363-0.003-0.726-0.003-1.089c0-1.815,0-3.63,0-5.445C133.515,27.076,133.515,27.076,133.515,27.076z"/>
		<path class="st0" d="M106.781,28.733c-0.46,0-0.921,0.019-1.379-0.005c-0.524-0.028-0.756-0.247-0.778-0.764
			c-0.028-0.677-0.031-1.356-0.004-2.032c0.029-0.717,0.45-1.011,1.166-0.942c0.719,0.07,1.444,0.083,2.166,0.112
			c0.222,0.009,0.499-0.012,0.516-0.275c0.011-0.177-0.117-0.432-0.265-0.538c-0.606-0.432-1.32-0.613-2.047-0.613
			c-0.67,0-1.343,0.102-2.009,0.204c-0.627,0.096-1.133-0.141-1.264-0.761c-0.154-0.729-0.243-1.475-0.304-2.218
			c-0.05-0.604,0.276-0.99,0.876-1.142c0.28-0.071,0.566-0.129,0.853-0.162c1.686-0.195,3.383-0.27,5.054,0.018
			c0.912,0.157,1.825,0.456,2.61,1.007c0.373,0.262,0.761,0.513,1.093,0.822c0.853,0.796,1.391,1.771,1.561,2.939
			c0.087,0.595,0.221,1.184,0.292,1.78c0.157,1.323-0.18,2.598-0.479,3.862c-0.136,0.572-0.458,1.125-0.793,1.621
			c-0.836,1.237-2.006,2.009-3.421,2.53c-1.724,0.634-3.452,0.526-5.215,0.411c-0.884-0.058-1.698-0.354-2.542-0.548
			c-0.735-0.169-0.833-0.407-0.677-1.152c0.123-0.589,0.185-1.19,0.311-1.778c0.204-0.946,0.601-1.168,1.542-1.028
			c0.832,0.124,1.675,0.229,2.513,0.228c0.566-0.001,1.144-0.162,1.694-0.328c0.253-0.076,0.502-0.298,0.663-0.519
			c0.294-0.404,0.141-0.7-0.354-0.727c-0.458-0.025-0.919-0.005-1.379-0.005C106.781,28.731,106.781,28.732,106.781,28.733z"/>
		<path class="st0" d="M147.746,27.064c0-2.033-0.001-4.067,0.001-6.1c0-0.217-0.008-0.44,0.033-0.651
			c0.082-0.414,0.275-0.583,0.699-0.584c2.13-0.005,4.262-0.043,6.39,0.029c0.905,0.031,1.833,0.21,2.694,0.493
			c0.851,0.279,1.57,0.857,2.08,1.625c0.895,1.347,0.946,2.846,0.522,4.32c-0.335,1.164-1.137,2.044-2.251,2.628
			c-0.883,0.463-1.789,0.706-2.784,0.647c-0.386-0.023-0.775-0.014-1.161,0.003c-0.61,0.026-0.82,0.232-0.829,0.853
			c-0.014,0.968-0.047,1.939,0.009,2.904c0.07,1.211-0.567,1.407-1.527,1.255c-0.776-0.123-1.588-0.025-2.383-0.019
			c-0.095,0.001-0.188,0.047-0.283,0.058c-0.888,0.103-1.204-0.168-1.207-1.069C147.742,31.325,147.747,29.194,147.746,27.064z
			 M154.87,24.805c0.006-0.565-0.466-1.16-1.002-1.265c-0.321-0.063-0.663,0.075-0.68,0.374c-0.032,0.568,0.009,1.145,0.07,1.713
			c0.024,0.228,0.243,0.339,0.494,0.333C154.16,25.951,154.981,25.258,154.87,24.805z"/>
		<path class="st0" d="M0,27.106c0-2.009,0-4.018,0-6.027c0-0.218-0.002-0.436,0.005-0.653c0.022-0.688,0.023-0.695,0.692-0.698
			c0.968-0.005,1.936,0.001,2.905,0.002c0.92,0.001,1.84,0.001,2.759,0.001c1.093,0,2.177,0.133,3.211,0.468
			c1.617,0.525,3.039,2.021,2.939,3.87c-0.012,0.217-0.011,0.436,0.003,0.653c0.111,1.684-0.618,2.963-1.987,3.85
			c-0.784,0.508-1.656,0.901-2.641,0.89c-0.581-0.006-1.162-0.005-1.743,0.009c-0.645,0.016-0.765,0.136-0.769,0.769
			c-0.006,0.92,0.001,1.84,0.002,2.759c0,0.169,0.006,0.339-0.003,0.508c-0.037,0.761-0.418,1.082-1.174,1.022
			c-0.648-0.051-1.298-0.097-1.948-0.11c-0.359-0.007-0.718,0.061-1.078,0.089c-0.168,0.013-0.34,0.031-0.506,0.011
			c-0.563-0.066-0.656-0.155-0.658-0.733C0,31.56,0.005,29.333,0.005,27.106C0.003,27.106,0.002,27.106,0,27.106z M5.373,24.689
			c0.002,0,0.004,0,0.006,0c0,0.217-0.001,0.434,0.001,0.651c0,0.048,0.004,0.097,0.016,0.143c0.11,0.439,0.518,0.615,0.89,0.367
			c0.158-0.106,0.292-0.252,0.425-0.391c0.257-0.267,0.487-0.549,0.329-0.959c-0.181-0.468-0.433-0.868-0.978-0.969
			c-0.43-0.08-0.648,0.077-0.686,0.506C5.357,24.253,5.373,24.471,5.373,24.689z"/>
		<path class="st0" d="M67.874,41.041c-0.575,0.056-1.149,0.144-1.725,0.158c-0.454,0.011-0.91-0.077-1.367-0.108
			c-0.265-0.018-0.54,0.031-0.797-0.021c-0.417-0.085-0.824-0.224-1.233-0.349c-0.206-0.063-0.401-0.169-0.61-0.213
			c-0.471-0.1-0.916-0.195-1.326-0.513c-0.429-0.332-0.949-0.557-1.446-0.791c-0.619-0.292-1.18-0.641-1.578-1.219
			c-0.075-0.109-0.231-0.159-0.335-0.252c-0.393-0.35-0.805-0.683-1.156-1.072c-0.144-0.16-0.172-0.441-0.21-0.673
			c-0.039-0.237-0.011-0.483-0.038-0.723c-0.049-0.439,0.011-0.574,0.412-0.665c0.232-0.053,0.487-0.008,0.718-0.064
			c0.167-0.04,0.405-0.148,0.439-0.273c0.036-0.132-0.122-0.326-0.213-0.482c-0.033-0.056-0.115-0.086-0.178-0.12
			c-0.291-0.154-0.293-0.423-0.269-0.694c0.035-0.4,0.293-0.558,0.577-0.284c0.485,0.467,1.05,0.433,1.622,0.405
			c0.194-0.01,0.424-0.114,0.564-0.251c0.254-0.249,0.15-0.567-0.207-0.609c-0.487-0.058-0.66-0.322-0.688-0.769
			c-0.013-0.214-0.094-0.423-0.118-0.638c-0.009-0.083,0.031-0.213,0.093-0.251c0.052-0.032,0.192,0.011,0.25,0.067
			c0.297,0.284,0.622,0.554,0.855,0.886c0.204,0.291,0.412,0.459,0.767,0.417c0.326-0.038,0.548,0.083,0.706,0.384
			c0.072,0.138,0.226,0.264,0.372,0.328c0.689,0.303,0.857,0.926,1.016,1.567c0.116,0.465,0.244,0.927,0.388,1.384
			c0.042,0.132,0.142,0.255,0.242,0.355c0.245,0.247,0.544,0.229,0.631-0.087c0.283-1.019,1.279-1.25,1.949-1.837
			c0.177-0.156,0.416-0.242,0.629-0.357c0.3-0.163,0.463-0.112,0.488,0.236c0.048,0.665,0.378,0.965,1.021,1.107
			c0.457,0.101,0.872,0.396,1.306,0.603c0.131,0.062,0.26,0.133,0.397,0.177c0.249,0.08,0.429-0.049,0.548-0.247
			c0.135-0.225-0.049-0.351-0.189-0.484c-0.206-0.196-0.451-0.367-0.603-0.599c-0.206-0.312-0.154-0.476,0.172-0.646
			c0.32-0.167,0.66-0.3,1.003-0.414c0.791-0.263,1.292-0.832,1.621-1.557c0.089-0.196,0.104-0.492,0.022-0.687
			c-0.185-0.439-0.425-0.862-0.691-1.259c-0.379-0.564-0.295-0.953,0.333-1.162c0.223-0.074,0.428-0.134,0.464-0.386
			c0.101-0.719,0.594-1.303,0.652-2.047c0.048-0.614-0.024-0.91-0.525-1.217c-0.751-0.46-1.013-1.049-0.571-1.794
			c0.385-0.649,0.38-1.378,0.658-2.038c0.066-0.157-0.024-0.438-0.134-0.598c-0.189-0.275-0.439-0.514-0.687-0.743
			c-0.236-0.218-0.414-0.183-0.595,0.074c-0.014,0.02-0.034,0.038-0.039,0.06c-0.248,1.005-1.177,1.369-1.878,1.92
			c-0.518,0.408-1.239,0.344-1.811,0.111c-0.598-0.243-0.97-0.075-1.338,0.335c-0.31,0.345-0.635,0.657-1.082,0.83
			c-0.29,0.112-0.572,0.151-0.837-0.007c-0.674-0.401-1.434-0.377-2.17-0.462c-0.272-0.031-0.503-0.075-0.728-0.257
			c-0.313-0.252-0.47-0.204-0.732,0.087c-0.221,0.244-0.458,0.474-0.688,0.711c-0.359-0.186-0.744-0.334-1.067-0.568
			c-0.267-0.194-0.5-0.465-0.675-0.747c-0.319-0.517-0.759-0.621-1.308-0.516c-0.306,0.058-0.62,0.077-0.925,0.14
			c-0.101,0.021-0.186,0.124-0.278,0.189c0.083,0.072,0.175,0.212,0.249,0.204c0.542-0.061,0.862,0.217,1.102,0.654
			c0.045,0.082,0.124,0.149,0.197,0.212c0.462,0.397,0.726,0.792,0.314,1.428c-0.262,0.405-0.025,0.712,0.477,0.781
			c0.704,0.098,1.139,0.585,1.198,1.287c0.021,0.253,0.154,0.496,0.191,0.75c0.029,0.198,0.026,0.418-0.036,0.603
			c-0.033,0.097-0.222,0.182-0.347,0.191c-0.067,0.005-0.205-0.155-0.213-0.249c-0.052-0.594-0.476-0.932-0.855-1.302
			c-0.101-0.098-0.227-0.209-0.356-0.232c-0.151-0.027-0.375-0.018-0.462,0.074c-0.082,0.087-0.067,0.314-0.024,0.459
			c0.046,0.155,0.174,0.285,0.267,0.426c0.106,0.161,0.227,0.314,0.317,0.483c0.253,0.474,0.232,0.688-0.068,0.885
			c-0.329,0.217-0.678,0.1-0.999-0.271c-0.568-0.656-0.778-1.491-1.167-2.236c-0.067-0.128-0.091-0.277-0.158-0.404
			c-0.235-0.448-0.212-0.882,0.049-1.31c0.226-0.369,0.314-0.759,0.158-1.178c-0.187-0.503-0.566-0.604-0.942-0.227
			c-0.166,0.166-0.278,0.389-0.401,0.595c-0.073,0.123-0.09,0.287-0.182,0.386c-0.08,0.086-0.231,0.107-0.351,0.157
			c0.001-0.11-0.024-0.229,0.007-0.33c0.097-0.319,0.278-0.625,0.312-0.949c0.077-0.746,0.407-1.37,0.772-2.002
			c0.749-1.297,1.77-2.364,2.877-3.332c0.811-0.709,1.691-1.367,2.755-1.699c0.156-0.049,0.294-0.155,0.443-0.231
			c0.277-0.141,0.542-0.321,0.835-0.411c0.525-0.161,1.065-0.272,1.603-0.389c0.059-0.013,0.141,0.075,0.212,0.116
			c-0.05,0.047-0.096,0.1-0.152,0.137c-0.038,0.026-0.105,0.015-0.135,0.045c-0.094,0.093-0.177,0.198-0.264,0.299
			c0.104,0.085,0.196,0.205,0.316,0.249c0.287,0.105,0.589,0.172,0.883,0.259c0.228,0.067,0.388-0.016,0.454-0.232
			c0.041-0.135,0.025-0.287,0.039-0.431c0.05-0.528,0.242-0.671,0.761-0.555c0.352,0.079,0.711,0.146,1.047,0.273
			c0.149,0.057,0.285,0.231,0.357,0.384c0.097,0.208,0.056,0.529,0.201,0.654c0.224,0.194,0.548,0.338,0.844,0.368
			c0.434,0.044,0.8,0.159,1.098,0.477c0.016,0.017,0.035,0.037,0.056,0.046c0.791,0.302,1.339,0.831,1.595,1.655
			c0.036,0.116,0.192,0.269,0.302,0.277c0.456,0.033,0.918,0.038,1.374,0.01c0.216-0.013,0.251-0.226,0.077-0.448
			c-0.254-0.322-0.505-0.649-0.795-0.937c-0.258-0.256-0.411-0.526-0.382-0.896c0.011-0.143-0.005-0.291-0.026-0.434
			c-0.082-0.573,0.008-0.705,0.575-0.578c0.488,0.11,0.995,0.275,1.409,0.545c0.886,0.577,1.829,1.134,2.542,1.893
			c0.782,0.833,1.719,1.56,2.219,2.654c0.256,0.561,0.716,1.03,0.967,1.593c0.332,0.744,0.644,1.522,0.792,2.317
			c0.211,1.132,0.342,2.292,0.361,3.443c0.014,0.857-0.205,1.717-0.319,2.576c-0.032,0.239-0.057,0.478-0.091,0.716
			c-0.024,0.165-0.01,0.362-0.096,0.488c-0.297,0.433-0.452,0.905-0.501,1.419c-0.002,0.024-0.002,0.053-0.016,0.07
			c-0.697,0.863-0.961,2.007-1.808,2.777c-0.248,0.226-0.436,0.516-0.674,0.754c-0.147,0.147-0.326,0.27-0.508,0.371
			c-0.27,0.15-0.584,0.234-0.831,0.413c-0.759,0.549-1.494,1.131-2.242,1.695c-0.153,0.115-0.311,0.248-0.488,0.301
			c-0.321,0.097-0.564,0.263-0.719,0.561c-0.163,0.313-0.481,0.381-0.777,0.483c-0.318,0.11-0.65,0.194-0.947,0.347
			C69.329,41.158,68.599,41.07,67.874,41.041z M62.179,17.562c0.022,0.059,0.043,0.387,0.196,0.469
			c0.653,0.352,1.344,0.652,2.107,0.643c0.204-0.002,0.442-0.09,0.6-0.219c0.168-0.137,0.371-0.377,0.355-0.554
			c-0.017-0.181-0.255-0.441-0.442-0.487c-0.657-0.164-1.268-0.422-1.889-0.683C62.503,16.478,62.192,16.738,62.179,17.562z"/>
		<path class="st0" d="M59.958,27.666c0.156-0.441,0.293-0.953,0.519-1.422c0.182-0.377,0.858-0.384,1.109-0.032
			c0.075,0.105,0.085,0.33,0.024,0.447c-0.191,0.362-0.103,0.613,0.172,0.892c0.321,0.326,0.238,0.549-0.205,0.724
			c-0.174,0.069-0.361,0.12-0.518,0.219c-0.475,0.299-0.704,0.245-0.935-0.267C60.057,28.077,60.029,27.91,59.958,27.666z"/>
		<path class="st0" d="M56.954,31.413c0-0.034,0.001,0.038,0,0.11c-0.005,0.254-0.039,0.5-0.359,0.527
			c-0.225,0.019-0.499-0.272-0.487-0.535c0.031-0.692,0.078-1.384,0.139-2.074c0.008-0.086,0.135-0.221,0.214-0.226
			c0.091-0.006,0.201,0.096,0.28,0.174c0.044,0.043,0.054,0.132,0.06,0.202C56.852,30.163,56.898,30.735,56.954,31.413z"/>
	</g>
</g>
</svg>