<!-- Generator: Adobe Illustrator 19.2.1, SVG Export Plug-In  -->
<svg version="1.1"
	 xmlns="http://www.w3.org/2000/svg" xmlns:xlink="http://www.w3.org/1999/xlink" xmlns:a="http://ns.adobe.com/AdobeSVGViewerExtensions/3.0/"
	 x="0px" y="0px" width="58.603px" height="78.67px" viewBox="0 0 58.603 78.67" style="enable-background:new 0 0 58.603 78.67;"
	 xml:space="preserve">
<style type="text/css">
	.st0{fill:#FFFFFF;}
</style>
<defs>
</defs>
<g>
	<path class="st0" d="M33.978,0c6.657,1.49,12.479,4.399,17.188,9.506c11.636,12.619,9.313,33.599-4.829,43.305
		c-1.565,1.074-2.537,1.053-3.723-0.485c-1.967-2.55-4.075-4.994-6.206-7.411c-0.96-1.089-0.921-1.684,0.4-2.424
		c2.536-1.421,4.583-3.383,6.057-5.947c0.795-1.382,0.397-1.744-1.033-1.735c-3.869,0.025-7.739-0.054-11.607,0.02
		c-1.659,0.032-2.818-0.536-3.849-1.843c-2.084-2.641-4.316-5.163-6.478-7.743c-0.361-0.431-0.948-0.891-0.724-1.47
		c0.282-0.727,1.092-0.55,1.713-0.551c6.807-0.015,13.613-0.003,20.42-0.032c0.666-0.003,1.592,0.375,1.94-0.427
		c0.304-0.701-0.382-1.323-0.756-1.912c-5.581-8.788-17.658-9.723-24.66-1.814c-1.319,1.49-1.972,1.566-3.181-0.032
		c-1.856-2.452-3.887-4.781-5.958-7.059C7.498,10.63,7.412,9.734,8.788,8.401c3.962-3.839,8.543-6.459,13.892-7.765
		C23.442,0.45,24.191,0.213,24.946,0C27.957,0,30.967,0,33.978,0z"/>
	<path class="st0" d="M0,46.451c0.882-3.912,1.855-7.765,3.887-11.313c2.231-3.896,5.369-6.845,8.897-9.487
		c1.033-0.774,1.796-0.617,2.573,0.316c2.199,2.641,4.391,5.29,6.641,7.887c0.948,1.094,0.591,1.685-0.508,2.325
		c-2.391,1.39-4.377,3.247-5.8,5.63c-1.232,2.065-1.02,2.418,1.329,2.432c3.871,0.022,7.742,0.053,11.612-0.011
		c1.418-0.023,2.408,0.43,3.304,1.555c2.051,2.576,4.25,5.034,6.346,7.574c0.373,0.452,1.129,0.891,0.723,1.628
		c-0.313,0.568-1.019,0.437-1.577,0.434c-6.879-0.036-13.759-0.089-20.638-0.134c-0.622-0.004-1.425-0.347-1.786,0.304
		c-0.336,0.605,0.266,1.208,0.557,1.758c4.848,9.187,18.374,10.653,24.983,2.651c1.266-1.533,2.113-1.563,3.317-0.052
		c2.008,2.52,4.079,4.992,6.19,7.426c0.737,0.85,0.862,1.42,0.047,2.352c-7.897,9.029-23.758,11.66-34.227,5.865
		C7.264,70.831,2.058,63.78,0.313,54.13C0.263,53.854,0.107,53.598,0,53.333C0,51.039,0,48.745,0,46.451z"/>
</g>
</svg>