<!-- Generator: Adobe Illustrator 19.2.1, SVG Export Plug-In  -->
<svg version="1.1"
	 xmlns="http://www.w3.org/2000/svg" xmlns:xlink="http://www.w3.org/1999/xlink" xmlns:a="http://ns.adobe.com/AdobeSVGViewerExtensions/3.0/"
	 x="0px" y="0px" width="109.469px" height="218.694px" viewBox="0 0 109.469 218.694"
	 style="enable-background:new 0 0 109.469 218.694;" xml:space="preserve">
<style type="text/css">
	.st0{fill:#EBECEC;}
</style>
<defs>
</defs>
<g>
	<path class="st0" d="M61.724,218.694l-12.575-1.619l-1.566,0.214l-0.058-0.423l-0.137-0.018l0.065-0.508l-0.069-0.509l0.222-2.994
		l-0.041-2.987l0.193-0.653l-0.089-0.877l0.033-1.728l0.084-0.6l-0.059-0.592l0.034-1.725l-0.052-0.223l-0.074-2.972l0.113-0.611
		l-0.171-3.083l-0.068-0.239l-0.091-3.67l0.236-0.998l0.063-0.739l-0.143-0.536l-0.124-3.17l0.104-0.565l-0.016-0.231l-0.175-1.132
		l-0.083-0.937l-0.034-1.449l0.182-1.791l0.172-0.745l0.102-1.637l-0.042-0.185l0.043-2.722l-0.242-2.926l0.127-0.788l-0.026-1.844
		l-0.138-0.949l-0.002-2.073l0.314-2.421l0.027-0.606l-0.298-2.986l-0.099-2.746l0.001-0.706l0.074-1.447l0.213-1.422l-0.067-0.647
		l-0.091-1.446l0.121-1.846l0.154-0.786l0.004-0.441l-0.169-2.451l-0.209-1.486l-0.137-1.446l-0.026-0.958l0.115-2.13l0.341-2.241
		l-0.219-1.547l0.151-2.443l-0.176-2.05l0.095-1.213l0.062-2.259l-0.141-1.134l-0.123-1.444l0.083-1.86l0.092-0.526l-0.043-0.517
		l0.095-1.906l0.09-0.487l-0.041-0.477l0.059-1.604l-0.258-2.591l0.065-0.692l-0.079-0.694l0.16-2.424l-0.1-2.035l0.021-0.206
		l-0.058-0.234l-0.135-2.697l0.143-1.031l0.111-2.702l0.186-1.396l-0.072-0.214l-0.375-2.686l0.072-1.442l0.24-1.521L47.537,94.2
		l0.107-0.371l-0.008-0.328l0.082-1.411l-0.086-0.557l-0.082-1.339l0.021-0.638l-0.126-0.651l-0.131-1.385l0.002-1.258l-0.062-1.256
		l0.092-1.566l0.249-1.467l-0.149-1.285l-0.287-0.652l-0.685-2.005l-0.236-0.352l-0.491-0.85l-1.25-2.502l-0.508-1.288l-2.619-4.879
		l-0.337-1.027l-0.437-0.976l-0.453-1.359l-0.162-0.634l-0.907-1.371l-0.715-1.271l-0.615-1.5l-0.961-1.472l-0.899-1.949
		l-1.523,2.102l-0.958,1.094l-3.017,4.445l-0.732,0.742l-0.639,0.806l-1.032,1.059l-0.4,0.334l-0.781,1.412l-0.775,1.189
		l-1.028,1.212l-0.846,1.512l-1.35,1.733l-0.975,1.046l-0.729,0.682l-0.97,1.301l-1.141,2.293l-0.888,1.117l-8.164-6.487
		l-3.605-0.929l0.385-1.494l1.83-2.746l0.097-0.258l2.163-3.04l0.767-0.635l0.431-0.474l0.189-0.477l1.839-2.663l0.48-0.497
		l0.516-0.978l0.509-0.824l0.821-1.15l1.252-1.351l0.543-0.452l2.736-3.465l1.551-2.479l0.544-0.521l0.339-0.476l-1.543,0.219
		l-1.417-0.072l-1.55-0.25l-2.956,0.062l-0.332-0.098l-0.283,0.007l-1.374-0.079l-0.512,0.081l-1.366,0.084l-0.592-0.02
		l-0.604,0.119l-1.41,0.136L8.16,49.475l-1.224,0.062l-1.596-0.096l-1.422-0.245L1.66,49.463l-1.412-0.13l0.954-10.368L0,35.423
		l1.413-0.479l3.763-0.238l1.827,0.355l0.995-0.04L8.7,35.021l0.716-0.141l1.635-0.132l0.729,0.023l0.738-0.116l1.816-0.056
		l0.982,0.095l0.98-0.024l2.087,0.274l2.825-0.089l0.248,0.067l2.078-0.353l1.415-0.006l0.617,0.05l-0.297-0.611l-0.243-0.734
		l-0.131-0.234l-0.595-0.784l-1.355-3.093l-0.096-0.537l-0.455-0.967l-0.371-0.447l-1.545-3.046l0.017-0.144l-0.279-1.121
		l0.422-0.104l0.975-8.385l0.573-0.49l1.261-1.676l1.972-1.81l0.799-0.497l0.456-0.411l0.273-0.514l0.892-1.308l0.952-1.111
		l0.647-0.664l1.61-1.453l0.427-0.586l2.315-2.058l0.802-1.095L46.251,9.28l-1.917,2.535l-2.069,1.805l-0.97,1.077l-1.961,1.805
		l-0.34,0.639l-1.077,1.516l-1.568,1.628l-1.027,0.888l1.002,2.124l0.505,1.575l0.438,0.667l0.714,1.276l0.713,1.737l0.278,0.422
		l1.099,2.792l1.335,2.681l0.049,0.316l0.115-0.007l1.88,0.126l0.744,0.148l0.393,0.003l2.384-0.168l1.458-0.208l1.415-0.137
		l0.984-0.027l2.102,0.116l2.18,0.336l1.453-0.212l2.425,0.152l2.046-0.179l1.174,0.094l2.188,0.06l1.102-0.139l1.413-0.122
		l1.146,0.052l0.563-1.547l0.36-0.597l0.229-0.66l1.193-2.114l1.999-4.784l0.581-0.878l1.481-2.731l-0.175-0.329l-0.829-0.892
		l-0.355-0.446l-0.467-0.357l-0.98-0.905l-0.439-0.488l-0.559-0.396l-1.041-0.897l-0.881-0.919l-0.929-0.874L66.8,13.657
		l-0.857-1.254l-1.804-1.489l-0.914-1.139l8.269-6.638L73.151,0l1.353,0.715l2.708,2.49l1.075,1.645l1.288,1.28l0.651,0.462
		l1.194,1.062l0.529,0.588l0.643,0.491l1.264,1.239l0.646,0.812l0.737,0.729l1.21,1.628l2.083,2.031l0.69,1.226l-0.042,5.56
		l0.24,0.029l-0.187,1.521l-0.649,2.231L87.96,27.05l-0.596,1.022l-0.62,0.89l-1.564,2.95l-0.908,2.268l-0.223,0.456l1.152-0.035
		l0.982,0.095l0.98-0.024l2.087,0.274l2.825-0.089l0.248,0.067l2.078-0.353l1.415-0.006l1.222,0.099l1.021,0.171l3.085,0.153
		l0.066-0.017l2.483-0.17l0.297,0.031l0.318-0.065l3.383,0.106l0.092-0.011l0.004,0.035l1.204,0.308l-0.801,3.132l1.276,10.881
		l-1.424,0.167l-2.411-0.161l-2.035,0.102l-0.161-0.018l-0.193,0.048l-2.736,0.139l-0.996-0.141l-2.652-0.11l-1.332-0.179
		l-0.153,0.054l-2.729,0.387l-1.417-0.072l-1.55-0.25l-2.956,0.062l-0.332-0.098l-0.044,0.001l0.173,0.315l1.502,2.187l0.654,1.169
		l0.133,0.09l1.948,1.952l0.792,1.177l0.73,1.39l1.823,2.327l0.119,0.322l0.175,0.221l0.761,1.146l0.369,0.358l0.888,1.041
		l0.341,0.488l0.461,0.414l0.952,1.044l0.732,0.979l0.782,0.94l0.883,1.336l0.653,1.279l1.567,1.646l0.746,1.212l-8.882,5.469
		l-2.104,3.069l-1.232-0.845l-2.446-2.869l-0.806-1.666l-1.047-1.33l-0.545-0.49l-1.084-1.226l-0.419-0.6l-0.535-0.52l-1.138-1.424
		l-0.511-0.839l-0.606-0.768l-1.035-1.838l-1.765-2.206l-0.094-0.236l-1.532-1.453l-0.854-1.13l-0.65-1.032l-0.476-0.919
		l-1.768-2.587l-0.363-0.421l-0.607,1.276l-0.474,1.388l-1.099,2.056l-0.743,0.973l-0.476,0.724l-0.3,0.567l-0.277,0.749
		l-0.61,1.848l-1.263,3.111l-0.64,1.306l-0.699,1.144l-0.33,0.442l-0.116,0.286l-0.396,1.179l-1.17,2.167l-0.549,0.697l-0.24,0.442
		l-0.987,2.253l-0.72,1.859l0.146,2.382l-0.361,1.899l0.041,1.032l-0.001,0.746l0.146,0.761l0.128,1.604l-0.025,0.773l0.121,0.781
		l0.053,1.785l-0.097,1.016l0.025,1.013l-0.266,2.062l0.089,2.873l-0.08,0.299l0.356,2.14l0.005,1.442l-0.094,1.188l-0.173,1.062
		l-0.159,3.18l0.026,0.108l0.165,2.449l-0.035,0.342l0.073,0.358l-0.115,3.378l0.016,0.139l0.015,1.508l-0.003,0.034l0.026,0.087
		l0.217,3.23l-0.091,0.569l0.048,0.561l-0.093,1.926l-0.091,0.497l0.04,0.485l-0.084,1.846l-0.091,0.52l0.03,0.348l0.167,1.285
		l0.053,1.271l-0.121,3.376l0.074,0.293l-0.034,3.68l0.192,1.572l-0.101,2.345l-0.248,1.191l-0.114,0.846l-0.023,0.621l0.074,0.784
		l0.251,1.921l0.21,3.345l-0.012,1.447l-0.135,1.334l-0.104,0.532l0.018,0.288l0.154,1.222l-0.117,2.481l-0.189,0.851l-0.025,0.484
		l0.087,2.43l0.275,2.472l0.046,1.193l-0.103,1.93l-0.249,2.081l0.059,0.406l0.075,0.992l0.042,2.766l-0.1,1.383l0.246,5.528
		l-0.142,1.071l-0.029,1.069l-0.182,1.422l-0.13,0.562l0.002,0.071l0.223,1.624l0.094,1.447l-0.095,1.612l0.229,1.745l0.001,1.45
		l-0.039,0.756l-0.151,1.449l-0.166,0.961l0.006,1.788l0.452,2.493l-0.039,1.452l-0.114,1.081l0.145,2.45l-0.078,0.683l0.067,0.682
		l-0.035,1.709l-0.083,0.591l0.06,0.584l0.024,1.148l-0.085,1.452l-0.287,1.608l0.06,2.88l-0.004,0.014l0.007,1.817L61.724,218.694z
		 M54.705,62.437l0.107,0.136l0.772-1.921l0.462-1.443l0.508-1.37l0.388-0.866l1.028-1.877l1.354-2.08l0.416-1.32l1.2-2.145
		l0.125-0.331l-0.21,0.055l-3.593-0.033l-1.599,0.198l-2.384-0.104l-1.154-0.246l-0.81-0.11l-0.576-0.022l-0.737,0.071l-1.351,0.196
		l0.257,0.502l0.222,1.008l0.263,0.695l0.365,0.426l1.482,2.8l0.153,0.562l0.117,0.208l0.649,0.944l0.483,0.813l0.658,1.292
		l0.609,1.686l0.169,0.748L54.705,62.437z"/>
</g>
</svg>