<!-- Generator: Adobe Illustrator 19.2.1, SVG Export Plug-In  -->
<svg version="1.1"
	 xmlns="http://www.w3.org/2000/svg" xmlns:xlink="http://www.w3.org/1999/xlink" xmlns:a="http://ns.adobe.com/AdobeSVGViewerExtensions/3.0/"
	 x="0px" y="0px" width="110.658px" height="91.536px" viewBox="0 0 110.658 91.536"
	 style="enable-background:new 0 0 110.658 91.536;" xml:space="preserve">
<style type="text/css">
	.st0{fill:#FFFFFF;}
</style>
<defs>
</defs>
<g>
	<g>
		<path class="st0" d="M16.551,0.443v19.714h-3.842V3.753H4.788v16.404H0.945V0.443H16.551z"/>
		<path class="st0" d="M29.438,0.443c2.217,0,3.753,0.236,5.201,1.507c1.597,1.418,2.011,3.34,2.011,4.758
			c0,0.769-0.119,2.896-1.626,4.404c-1.094,1.094-2.72,1.744-4.995,1.744h-2.482v7.3h-3.843V0.443H29.438z M27.546,9.546h1.566
			c0.738,0,1.685,0,2.512-0.621c0.71-0.562,1.064-1.448,1.064-2.305c0-1.094-0.532-1.833-1.094-2.247
			c-0.798-0.562-1.803-0.621-2.719-0.621h-1.33V9.546z"/>
		<path class="st0" d="M62.245,10.315c0,6-4.315,10.286-10.522,10.286s-10.521-4.286-10.521-10.286S45.516,0,51.723,0
			S62.245,4.315,62.245,10.315z M58.284,10.315c0-3.99-2.719-6.828-6.562-6.828c-3.842,0-6.562,2.837-6.562,6.828
			s2.72,6.798,6.562,6.798C55.565,17.113,58.284,14.305,58.284,10.315z"/>
		<path class="st0" d="M71.111,0.088h2.66l5.35,12.887l5.586-12.887h2.66l3.311,20.069h-3.901L85.003,8.01l-5.409,12.414H78.53
			L73.357,8.01l-2.01,12.147h-3.901L71.111,0.088z"/>
		<path class="st0" d="M0,50.422c1.537,1.567,3.458,2.158,5.201,2.158c2.867,0,5.734-1.744,6.296-5.202H2.66v-3.311h8.777
			c-0.562-3.399-3.34-5.113-6.088-5.113c-1.39,0-3.547,0.384-5.35,2.217v-4.493c1.892-0.975,3.665-1.211,5.143-1.211
			c3.783,0,6.089,1.389,7.359,2.601c1.892,1.833,2.956,4.759,2.956,7.714c0,4.197-1.951,6.591-2.927,7.537
			c-1.566,1.566-3.96,2.749-7.359,2.749c-2.542,0-4.256-0.709-5.172-1.153V50.422z"/>
		<path class="st0" d="M25.507,44.245l7.241-8.334h4.847l-8.335,9.103l8.778,10.611h-5.083l-7.005-8.837l-0.443,0.443v8.394h-3.843
			V35.911h3.843V44.245z"/>
		<path class="st0" d="M63.22,45.782c0,6-4.315,10.286-10.522,10.286s-10.521-4.286-10.521-10.286s4.314-10.315,10.521-10.315
			S63.22,39.782,63.22,45.782z M59.259,45.782c0-3.99-2.719-6.828-6.562-6.828c-3.842,0-6.562,2.837-6.562,6.828
			s2.72,6.798,6.562,6.798C56.54,52.58,59.259,49.772,59.259,45.782z"/>
		<path class="st0" d="M6.68,71.378c2.217,0,3.753,0.236,5.201,1.507c1.597,1.418,2.011,3.34,2.011,4.758
			c0,0.769-0.119,2.896-1.626,4.404c-1.094,1.094-2.72,1.744-4.995,1.744H4.788v7.3H0.945V71.378H6.68z M4.788,80.481h1.566
			c0.738,0,1.685,0,2.512-0.621c0.71-0.562,1.064-1.448,1.064-2.305c0-1.094-0.532-1.833-1.094-2.247
			c-0.798-0.562-1.803-0.621-2.719-0.621h-1.33V80.481z"/>
		<path class="st0" d="M30.324,74.688h-7.093v4.404h6.798v3.311h-6.798v5.379h7.093v3.311H19.389V71.378h10.936V74.688z"/>
		<path class="st0" d="M51.014,90.383c-1.183,0.621-2.749,1.153-4.877,1.153c-3.458,0-5.557-1.182-7.212-2.749
			c-2.275-2.188-3.162-4.641-3.162-7.537c0-3.576,1.478-6.147,3.162-7.714c1.98-1.862,4.434-2.601,7.241-2.601
			c1.39,0,3.045,0.236,4.848,1.211v4.493c-1.803-2.069-4.05-2.217-4.759-2.217c-3.961,0-6.532,3.251-6.532,6.887
			c0,4.375,3.37,6.739,6.68,6.739c1.833,0,3.458-0.798,4.611-2.158V90.383z"/>
		<path class="st0" d="M59.525,71.378l4.995,9.931l4.227-9.931h4.196l-9.133,19.714h-4.196l2.748-5.498l-7.329-14.216H59.525z"/>
		<path class="st0" d="M83.644,71.378c2.217,0,3.753,0.236,5.201,1.507c1.597,1.418,2.011,3.34,2.011,4.758
			c0,0.769-0.119,2.896-1.626,4.404c-1.094,1.094-2.72,1.744-4.995,1.744h-2.482v7.3h-3.843V71.378H83.644z M81.752,80.481h1.566
			c0.738,0,1.685,0,2.512-0.621c0.71-0.562,1.064-1.448,1.064-2.305c0-1.094-0.532-1.833-1.094-2.247
			c-0.798-0.562-1.803-0.621-2.719-0.621h-1.33V80.481z"/>
		<path class="st0" d="M110.658,90.383c-1.183,0.621-2.749,1.153-4.877,1.153c-3.458,0-5.557-1.182-7.212-2.749
			c-2.275-2.188-3.162-4.641-3.162-7.537c0-3.576,1.478-6.147,3.162-7.714c1.98-1.862,4.434-2.601,7.241-2.601
			c1.39,0,3.045,0.236,4.848,1.211v4.493c-1.803-2.069-4.05-2.217-4.759-2.217c-3.961,0-6.532,3.251-6.532,6.887
			c0,4.375,3.37,6.739,6.68,6.739c1.833,0,3.458-0.798,4.611-2.158V90.383z"/>
	</g>
</g>
</svg>