<!-- Generator: Adobe Illustrator 19.2.1, SVG Export Plug-In  -->
<svg version="1.1"
	 xmlns="http://www.w3.org/2000/svg" xmlns:xlink="http://www.w3.org/1999/xlink" xmlns:a="http://ns.adobe.com/AdobeSVGViewerExtensions/3.0/"
	 x="0px" y="0px" width="191.484px" height="214.666px" viewBox="0 0 191.484 214.666"
	 style="enable-background:new 0 0 191.484 214.666;" xml:space="preserve">
<style type="text/css">
	.st0{fill:#EBECEC;}
</style>
<defs>
</defs>
<g>
	<path class="st0" d="M60.928,214.666l-13.412-4.584l0.777-2.135l0.615-1.38l0.979-3.399l0.123-0.209l0.045-0.241l0.844-2.267
		l0.309-0.53l0.169-0.578l1.2-2.342l0.353-1.434l0.972-2.218l1.86-4.943l0.26-0.473l0.236-0.911l0.361-1.176l0.284-1.207
		l1.105-2.518l0.164-0.633l0.431-1.398l0.504-1.22l1.069-2.042l0.464-1.501l-0.083-0.24l-0.359-1.694l-1.048-3.008l-0.014-0.318
		l-1.489-4.146l-0.565-1.335l-0.486-1.54l-0.321-0.609l-0.518-1.267l-0.415-1.384l-0.284-1.861l-0.565-1.379l-0.508-0.971
		l-0.665-2.987l-1.061-2.771l-0.016-0.449l-1.272-3.563l-0.031-0.592l-0.371-0.728l-0.613-1.725l-0.458-1.894l-0.391-0.896
		l-1.504-4.41l-0.643-1.265l-1.04-2.661l-0.464-1.963l-0.049-0.551l-0.178-0.484l-0.32-1.253l-0.775-1.547l-0.393-1.128
		l-0.474-1.103l-0.411-1.276l-0.708-3.32l-0.108-0.729l-0.299-0.451l-1.924-5.367l-0.098-0.522l-0.135-0.284l-0.607-1.096
		l-0.798-2.556l-0.814-1.999l-0.196-0.835l-0.332-0.788l-0.385-1.997l-0.7-1.411l-0.63-2.188l-0.47-2.647l-0.473-0.9l-0.387-0.874
		l-0.494-1.358l-0.275-0.966l-0.148-0.704l-0.511-1.23l-0.464-1.37l-0.325-1.429l-0.06-0.5l-0.46-0.763l-0.892-2.32l-0.217-1.127
		l-0.159-0.557l-1.291-2.751l-0.611-1.772l-0.905-3.39L26.8,73.21l-0.562-1.644L25.1,69.25l-1.64,0.021l-1.78-0.212l-2.083,0.07
		l-0.305-0.038l-0.32,0.062l-2.262,0.08l-0.136-0.018l-0.166,0.041l-2.881,0.108l-2.318-0.385l-0.508-0.007l-1.513,0.141
		L8.15,69.152l-1.85,0.234l-1.445,0.053l-0.995-0.034l-2.3-0.211l-1.065,0.037L0,55.067l1.451-0.051l0.771,0.015l2.616,0.226
		l0.541-0.02l1.857-0.234l1.207-0.043l2.021-0.162l1.446,0.018l1.052,0.091l1.471,0.24l0.016-0.004l2.586-0.152l0.306,0.039
		l0.32-0.063l2.262-0.08l0.314,0.04l0.329-0.064l0.03,0.001l-0.001-0.002l-1.083-2.567l-0.189-0.927l-0.316-0.883l-0.35-1.784
		l-0.511-1.111l-0.83-2.513l-0.767-1.623l-1.314-4.013l-0.656-1.758l-0.28-1.008l-0.393-0.97l-0.518-2.796l0-0.012l-0.061-0.091
		l-0.758-1.492l-0.733-2.136l-0.26-1.077l-0.524-1.572l-0.369-1.405l-0.161-0.815l-1.008-2.571l-0.291-1.549l-0.27-0.563
		L8.33,18.446l-0.729-2.907l-0.85-2.532l-1.03-2.653L4.824,7.543L4.706,6.355l10.586-4.157l1.025-1.572l1.224,0.798l0.925,0.719
		l2.547,2.394l0.962,1.059l0.627,0.798l0.664,0.981l0.256,0.166l1.354,1.141l1.497,1.631l1.518,1.2l0.986,1.027l1.203,1.441
		l0.954,0.695l1.466,1.436l0.671,0.882l1.04,1.074l0.691,0.465l0.927,0.744l1.035,0.984l1.38,1.821l0.24,0.438l0.466,0.385
		l0.862,0.547l1.99,2.119l1.966,1.834l0.512,0.722l1.539,1.527l0.856,1.018l2.629,2.501l1.136,0.892l3.492,3.772l1.977,1.867
		l1.815,1.631l0.969,1.216l0.372,0.241l1.299,1.083l0.718,0.763l0.801,0.684l1.158,1.262l0.709,0.99l0.573,0.695l1.422,1.543
		l0.237,0.15l1.721,1.531l1.127,1.358l0.539,0.387l1.703,1.731l1.803,0.195l1.434-0.185l2.478,0.119l3.321-0.046l0.002,0.001
		l1.838-0.001l0.497,0.069l0.907-0.105l1.203-0.085l1.203-0.166l2.655,0.136l0.703-0.084l1.438-0.1l1.34,0.034l2.093,0.283
		l0.096-0.018l1.547-0.109l0.699,0.026l0.709-0.121l1.555-0.092l4.281,0.229l1.121,0.163l2.752-0.283l0.148,0.028l0.146-0.026
		l3.287,0.346l0.898-0.055l0.521,0.004l0.55-0.141l1.466-0.215l1.436-0.059l2.454,0.333l0.282,0.091l2.608-0.366l1.271,0.135
		l0.215-0.309l1.883-1.768l1.102-0.818l0.655-0.901l0.966-1.057l2.272-1.63l0.548-0.563l0.094-0.19l1.438-1.964l1.916-1.886
		l1.174-0.928l1.583-1.796l0.657-0.494l0.553-0.592l0.652-0.616l1.944-1.584l0.269-0.498l2.77-2.812l0.786-0.492l0.212-0.243
		l0.42-0.71l2.568-2.539l0.387-0.223l0.743-0.847l0.618-0.892l3.715-3.513l0.987-0.743l1.622-2.143l0.991-0.842l1.758-1.521
		l0.165-0.238l1.202-1.332l1.565-1.363l0.476-0.619l1.378-1.36l0.472-0.353l0.367-0.447l1.553-1.404l0.489-0.325l0.174-0.19
		l1.562-2.046l1.897-1.726l0.563-0.35l1.674-2.233l1.12-0.915l1.271-0.828l0.195-0.328l1.115-1.426L176.945,0l9.468,7.462
		l1.539,0.221l-0.128,0.892l0.137,0.107l-0.217,0.45l-0.834,2.461l-0.805,3.172l-0.418,0.657l-1.064,2.683l-0.104,0.681
		l-0.372,1.417l-0.236,0.627l-0.098,0.687l-0.87,2.524l-0.806,1.484l-0.111,0.432l-0.181,1.118l-1.072,2.863l-0.651,2.89
		l-0.606,1.788l-0.205,0.413l-0.083,0.454l-0.991,2.369l-0.741,2.688l-0.135,0.23l-0.303,1.604l-1.298,2.998l-0.717,1.822
		l-0.03,0.222l-0.644,1.985l-0.481,2.579l-0.975,2.34l-0.265,0.907l0.265-0.001l0.378,0.006l0.271-0.091l2.487-0.363l1.031,0.035
		l1.032-0.083l2.733,0.4l0.268-0.073l3.825,0.025l0.519,0.148l0.647,0.011l3.549-0.479l1.438,0.188l-1.243,9.483l1.638,3.885
		l-1.438,0.606l-3.108,0.548l-2.602-0.081l-1.368-0.2l-1.101,0.173l-1.433,0.065l-2.767-0.454l-0.659,0.016l-0.157-0.006
		l-0.224,0.075l-2.391,0.365l-1.352-0.026l-1.351,0.006l-1.494-0.174l-2.374,0.148l-0.34,1.728l-0.381,1.307l-0.423,1.061
		l-0.264,0.869l-0.275,1.184l-0.769,1.946l-0.548,0.945l-0.92,3.377l-0.153,0.246l-0.116,0.491l-0.502,1.848l-0.636,1.842
		l-0.438,1.055l-0.784,2.465l-0.767,1.627l-0.727,2.279l-0.042,0.328l-1.518,5.226l-1.105,2.095l-0.169,0.484l-0.345,1.48
		l-0.293,0.994l-0.362,1.828l-0.407,1.389l-0.347,0.935l-0.926,2.11l-0.591,1.82l-0.193,0.447l-0.069,0.502l-0.252,1.136
		l-0.429,1.382l-0.884,1.864l-0.24,0.918l-0.316,0.971l-0.2,1.015l-0.91,2.027l-0.235,1.433l-0.606,1.884l-0.395,1l-0.378,1.335
		l-0.736,2.113l-0.971,2.052l-0.094,0.464l-0.765,1.958l-0.199,1.2l-0.372,1.405l-1.11,2.317l-0.153,0.605l-0.513,1.649
		l-0.703,1.939l-0.021,0.341l-0.523,2.279l-0.456,1.104l-0.748,2.366l-0.806,1.746l-0.245,0.384l-0.345,1.075l-0.437,1.099
		l0.01,0.346l-0.494,2.82l-0.967,2.448l-0.356,1.144l-0.868,1.818l-0.213,0.319l-0.28,0.9l-0.29,0.77l-0.153,0.82l-0.381,1.318
		l-0.621,1.563l-0.009,0.27l-1.631,5.485l-0.415,0.894l0.079,0.192l0.29,0.858l0.373,1.392l0.155,0.993l0.575,1.099l0.499,1.347
		l0.292,1.014l0.483,2.212l0.343,0.919l0.345,1.214l1.158,3.309l0.055,0.625l0.299,0.906l0.173,0.23l1.13,2.241l0.295,0.992
		l0.405,0.955l0.483,2.717l0.149,0.223l1.189,3.65l0.021,0.528l0.194,0.618l1.573,3.203l0.272,1.416l-9.358,1.801l-3.186,2.812
		l-1.029-1.166l-1.515-2.791l-0.743-2.484l-0.239-1.353l-0.513-0.989l-0.515-1.34l-0.443-2.768l-0.266-0.766l-0.144-0.19
		l-1.103-2.149l-0.835-2.575l-0.306-1.465l-0.901-2.231l-0.146-0.806l-0.282-0.755l-0.261-0.865l-0.552-2.465l-0.34-0.487
		l-0.805-2.357l-2.631-0.128l-0.203,0.022l-1.773-0.023l-1.122-0.156l-0.165,0.015l-0.176-0.003l-2.48,0.339l-2.02-0.136
		l-0.314,0.03l-3.726-0.007l-0.905-0.105l-0.903,0.034l-0.572-0.018l-0.24,0.031l-1.905-0.013l-0.614-0.087l-0.608,0.059
		l-1.763-0.087l-2.024,0.266l-1.635-0.063l-0.146,0.019l-2.525-0.119l-0.374-0.086l-0.738-0.007l-2.362,0.334l-1.656-0.186
		l-1.192,0.093l-1.075-0.098l-1.246,0.046l-0.982-0.007l-0.986,0.124l-0.764-0.099l-0.167,0.01l-5.379-0.14l-0.613,0.109
		l-0.778-0.01l-0.286,0.723l-0.896,1.495l-0.14,0.452l-0.236,1.127l-1.215,2.847l-0.797,2.896l-0.675,1.728l-0.242,0.439
		l-0.115,0.491l-1.088,2.306l-0.872,2.674l-0.165,0.255l-0.393,1.648l-1.445,2.968l-0.808,1.8l-0.048,0.258l-0.734,1.958
		l-0.605,2.562l-1.1,2.346L60.928,214.666z M77.241,168.217l2.707,0.28l0.602-0.072l1.445-0.026l0.35,0.029l0.234-0.06l1.447-0.209
		l1.456-0.059l1.371,0.184l0.399-0.049l1.278,0.006l1.28-0.059l0.523,0.049l0.534-0.074l1.867,0.221l1.452,0.015l1.44-0.163
		l1.453-0.066l0.253,0.019l0.151-0.021l1.331,0.015l1.331-0.03l0.924,0.039l1.681,0.18l0.861-0.031l2.139,0.131l0.567-0.102
		l2.287-0.034l0.401,0.059l0.124-0.023l0.893-0.113l1.455-0.092l1.266,0.033l0.638,0.074l0.875-0.1l0.313,0.039l0.651-0.011
		l2.14,0.069l-0.48-0.245l-1.19-0.785l-1.961-1.988l-0.658-0.465l-0.209-0.065l-2.158-1.112L108.533,162l-1.106-1.021l-2.011-1.277
		l-0.581-0.563l-0.664-0.448l-0.717-0.553l-1.864-1.671l-0.537-0.19l-3.208-2.296l-0.615-0.705l-0.464-0.249l-1.361,0.963
		l-1.089,0.579l-1.926,1.855l-1.101,0.67l-1.96,1.22l-0.192,0.201l-1.4,1.133l-1.748,1.095l-0.559,0.531l-1.585,1.137l-0.501,0.263
		l-0.418,0.373l-1.76,1.151l-0.534,0.245l-0.195,0.156l-1.856,1.772l-2.144,1.408l-0.605,0.255l-0.332,0.322l1.374-0.141
		l0.186,0.035L77.241,168.217z M121.582,153.445l0.877,0.536l1.781,1.744l0.24-0.709l0.535-1.36l-0.003-0.083l0.324-2.337
		l0.61-1.876l0.404-1.018l0.301-1.053l0.843-1.871l0.281-0.44l0.922-2.715l0.019-0.313l0.504-2.23l0.481-1.191l0.656-1.979
		l0.214-1.075l1.228-2.782l0.031-0.448l1.006-3.176l0.131-0.217l0.045-0.222l0.646-1.834l0.438-0.852l-0.792,0.493l-1.957,1.754
		l-2.056,1.04l-0.642,0.542l-1.635,1.218l-0.627,0.399l-1.769,1.623l-1.26,0.904l-0.483,0.272l-0.405,0.386l-0.651,0.549
		l-1.622,1.178l-0.863,0.54l-1.959,1.556l-1.919,1.009l-1.016,0.852l-1.508,0.98l-0.82,0.479l-1.424,1.055l-1.119,0.688l-0.843,0.73
		l0.068,0.035l1.186,0.805l0.827,0.656l1.664,1.507l0.81,0.546l0.951,0.769l2.89,2.032l0.398,0.468l0.752,0.551l0.261,0.081
		l2.241,1.177L121.582,153.445z M67.964,152.063l0.522,1.072l0.57,2.411l0.772-0.419l1.51-1.404l1.115-0.893l1.832-1.072
		l0.274-0.244l1.419-0.984l0.399-0.21l0.331-0.313l1.047-0.823l1.76-1.119l0.374-0.392l1.849-1.389l0.946-0.492l1.045-0.69
		l1.165-1.072l-2.182-1.381l-2.035-1.77l-0.566-0.349l-1.182-0.807l-1.033-0.859l-1.528-1.547l-1.285-0.873l-0.524-0.448
		l-0.624-0.339l-1.28-0.892l-3.2-2.817l-0.778-0.825l-2.535-1.642l-2.349-2.295l-1.138-0.833l-0.504-0.223l-1.297-0.746l-1.158-0.84
		l-1.16-1.203l0.136,0.35l0.112,0.743l0.252,0.687l0.404,1.804l0.042,0.465l0.435,1.116l0.42,0.654l0.747,2.678l1.051,2.193
		l0.204,0.823l0.339,0.778l0.316,0.88l0.624,2.361l0.243,0.477l0.457,1.128l0.425,1.377l0.227,1.277l0.859,1.843l0.343,1.404
		l0.205,1.611l0.661,1.958l0.489,1.016L67.964,152.063z M95.403,134.242l0.394,0.23l1.114,1.023l0.357-0.262l1.682-1.236
		l1.884-1.804l2.119-1.305l0.795-0.623l0.794-0.54l1.419-0.854l0.428-0.454l3.333-2.035l1.751-1.34l0.969-0.605l0.57-0.426
		l0.734-0.699l1.407-1.04l0.572-0.322l1.387-1.299l1.08-0.845l0.951-0.606l0.705-0.54l0.902-0.791l1.781-1.142l0.993-0.444
		l2.688-2.181l0.244-0.1l0.362-0.316l1.48-1.202l1.579-1.114l0.954-0.588l2.058-1.529l1.563-0.866l1.897-1.412l0.211-0.228
		l1.835-1.418l-0.198-0.432l-0.84-2.15l-0.508-0.935l-0.539-1.22l-0.301-0.396l-0.634-0.995l-0.672-1.279l-0.69-1.937l-0.479-0.818
		l-0.464-0.912l-0.575-0.858l-0.791-2.079l-0.848-1.181l-0.901-1.758l-0.431-0.992l-0.677-1.212l-0.978-2.02l-0.773-2.157
		l-0.267-0.402l-0.846-1.93l-0.71-0.992l-0.729-1.254l-0.854-2.424l-0.323-0.542l-0.803-1.528l-0.883-1.888l-0.229-0.258
		l-1.077-1.72l-2.729,0.391l-1.436-0.145l-1.483-0.312l-0.36,0.093l-1.803,0.221l-0.962-0.007l-0.965,0.123l-2.933-0.386
		l-2.179-0.013l-3.255,0.24l-0.752-0.188l-2.867-0.161l-0.668,0.114l-1.469,0.096l-0.658-0.025l-0.67,0.123l-2.68-0.026
		l-1.651-0.294l-0.435,0.03l-1.11,0.183l-2.923-0.131l-0.605,0.068l-1.234,0.087l-1.236,0.16l-1.89-0.01l-0.458-0.064l-0.458,0.064
		l-2.563-0.191l-2.786,0.146l-0.254-0.054l-1.61,0.22l-0.944-0.077l-0.355,0.495l-0.71,1.077l-0.903,1.034l-0.445,1.012
		l-0.716,1.234l-1.871,2.07l-0.428,0.685l-0.056,0.22l-0.985,2.213l-1.475,2.255l-0.95,1.156l-1.168,2.094L61.76,85.5l-0.41,0.69
		l-0.511,0.747l-1.564,1.961l-0.16,0.553l-2.112,3.335l-0.661,0.646l-0.155,0.281l-0.257,0.779l-1.975,3.033l-0.33,0.299
		l-0.544,0.983l-0.417,1.006l-0.31,0.452l0.893,0.632l1.521,1.383l0.666,0.397l1.509,1.207l0.401,0.423l0.482,0.31L59.407,106
		l0.375,0.442l0.198,0.142l2.198,1.301l1.944,1.693l0.401,0.505l2.396,1.389l1.032,1l0.959,1.15l0.316,0.14l1.564,0.95l0.741,0.593
		l0.824,0.495l2.052,2.112l1.711,1.369l2.691,1.819l0.462,0.601l2.122,1.88l0.586,0.318l1.216,0.836l0.495,0.423l0.596,0.315
		l2.099,1.691l1.092,1.234l0.349,0.238l0.98,0.542l2.31,1.966l2.487,1.586l1.483,1.182L95.403,134.242z M146.03,88.467l0.234,0.377
		l0.084-0.285l0.138-0.288l0.043-0.332l1.072-2.933l0.297-0.461l0.8-2.429l0.46-1.105l0.305-0.91l0.572-2.355l0.739-1.798
		l0.57-2.582l1.074-2.074l0.209-0.833l0.378-1.249l-0.583-0.003l-0.436-0.117l-1.131,0.073l-1.066,0.192l-3.15-0.139l-0.18,0.021
		l-1.79-0.023l-1.226-0.173l-2.669,0.367l-1.291-0.106l-2.322-0.167l-0.52,0.063l0.797,2.057l0.295,0.339l1.534,2.953l0.063,0.256
		l0.131,0.197l0.837,1.748l0.707,2.065l0.407,0.801l0.966,1.789l0.566,1.267l0.361,0.379l1.774,3.669l0.431,0.733L146.03,88.467z
		 M43.84,79.799l0.114,0.189l0.498,0.992l0.547,1.344l0.486,1.944l0.663-0.728l0.494-1.135l0.734-1.228l0.604-0.859l1.417-1.759
		l0.499-0.839l0.723-1.018l1.858-2.988l0.445-0.427l0.508-0.785l0.069-0.271l1.042-2.297l0.533-0.771l-2.276-0.154l-0.2-0.066
		l-1.521,0.074l-0.817-0.007l-1.151-0.076l-0.725,0.011l-1.014,0.137l-1.744,0.02l-0.667-0.075l-1.911,0.242l-1.358,0.053
		l-1.141-0.066l-0.137,0.004l0.198,0.728l0.237,1.218l0.602,2.208l0.261,0.741l1.159,2.413l0.388,1.041L43.84,79.799z
		 M35.885,54.821l2.291,0.362l0.852-0.064l1.439-0.039l1.359,0.053l2.407-0.281l1.544,0.005l0.565,0.063l0.565-0.076l0.849-0.063
		l1.436-0.021l1.595,0.082l0.438-0.021l-0.588-0.603l-0.512-0.333l-1.519-1.328l-1.262-1.494l-0.197-0.123l-2.05-1.948l-2.371-2.366
		l-1.818-1.909l-0.261-0.322l-1.072-0.783l-1.628-1.685l-2.094-1.989L35.413,39.3l-1.627-1.631l-0.745-0.88l-2.06-2.155
		l-0.714-0.519l-1.672-1.436l-1.007-1.039l-0.001,0.082l0.26,0.764l0.286,1.029l0.615,1.633l0.344,1.178l0.656,1.881l0.315,0.493
		l0.961,2.351l0.306,1.283l0.38,0.642l0.982,3.306l0.019,0.43l0.125,0.349l0.323,1.073l0.721,1.356l0.536,1.342l0.452,2.434
		l0.534,1.607L35.885,54.821z M146.292,54.991l2.438,0.153l0.705-0.09l1.766-0.123l1.434-0.039l1.601,0.189l0.981-0.158l1.435-0.098
		l0.905-0.004l0.182,0.011l0.024-0.049l0.328-1.289l0.658-1.699l0.396-0.895l0.545-1.703l0.528-1.255l-0.001-0.044l0.831-3.491
		l0.095-0.177l0.027-0.203l0.75-2.334l0.271-0.516l0.134-0.552l1.08-2.36l0.28-1.423l0.892-2.302l1.022-3.207l-0.695,0.634
		l-2.052,2.586l-1.651,1.268l-0.335,0.422l-1.83,1.612l-0.432,0.558l-1.163,1.339l-0.987,1.042l-1.261,0.993l-0.577,0.8l-0.94,1.079
		l-0.644,0.648l-1.07,0.948l-0.808,0.574l-0.72,0.999l-0.977,1.043l-0.78,0.718l-1.751,1.41l-0.671,0.72l-0.918,0.835l-2.454,2.53
		l-0.524,0.321l-0.59,0.588l1.911-0.221l2.073,0.271L146.292,54.991z"/>
</g>
</svg>